<svg width="148" height="148" viewBox="0 0 148 148" fill="none" xmlns="http://www.w3.org/2000/svg">
<path d="M116.857 67.0756C118.054 67.0756 119.025 66.105 119.025 64.9077V62.1202C119.025 57.0142 114.87 52.8601 109.764 52.8601H104.596C99.49 52.8601 95.3359 57.0142 95.3359 62.1202V64.9077C95.3359 66.105 96.3063 67.0756 97.5039 67.0756C98.7015 67.0756 99.6719 66.105 99.6719 64.9077V62.1202C99.6719 59.4051 101.881 57.196 104.596 57.196H109.764C112.48 57.196 114.689 59.4051 114.689 62.1202V64.9077C114.689 66.105 115.659 67.0756 116.857 67.0756Z" fill="white"/>
<path d="M66.4919 62.1202C66.4919 59.4051 68.7009 57.196 71.4161 57.196H76.5848C79.3003 57.196 81.509 59.4051 81.509 62.1202C81.509 63.3175 82.4794 64.2882 83.677 64.2882C84.8745 64.2882 85.8449 63.3175 85.8449 62.1202C85.8449 57.0142 81.6908 52.8601 76.5848 52.8601H71.4164C66.3104 52.8601 62.1562 57.0142 62.1562 62.1202C62.1562 63.3175 63.1266 64.2882 64.3242 64.2882C65.5218 64.2882 66.4919 63.3175 66.4919 62.1202Z" fill="white"/>
<path d="M50.4973 67.0756C51.6948 67.0756 52.6652 66.105 52.6652 64.9077V62.1202C52.6652 57.0142 48.5111 52.8601 43.4051 52.8601H38.2367C33.1307 52.8601 28.9766 57.0142 28.9766 62.1202V64.9077C28.9766 66.105 29.9469 67.0756 31.1445 67.0756C32.3421 67.0756 33.3125 66.105 33.3125 64.9077V62.1202C33.3125 59.4051 35.5215 57.196 38.2367 57.196H43.4051C46.1206 57.196 48.3293 59.4051 48.3293 62.1202V64.9077C48.3293 66.105 49.3 67.0756 50.4973 67.0756Z" fill="white"/>
<path d="M146.629 31.3394L74.7969 2.94277C74.285 2.74043 73.7153 2.74043 73.2031 2.94277L45.0038 14.0902C43.8901 14.5301 43.3446 15.7899 43.7846 16.9033C44.2245 18.0168 45.4846 18.5631 46.5975 18.1223L74 7.29027L143.664 34.8298V38.1812H4.33594V34.8298L38.484 21.33C39.5978 20.8901 40.1433 19.6304 39.7033 18.5169C39.2634 17.4034 38.0036 16.8577 36.8904 17.2979L1.37102 31.3394C0.543727 31.6663 0 32.4659 0 33.3553V40.3489C0 41.5462 0.970383 42.5169 2.16797 42.5169H7.10834V44.2125C7.10834 48.0865 10.26 51.2385 14.1343 51.2385H15.1501V64.9077C15.1501 66.105 16.1204 67.0756 17.318 67.0756C18.5156 67.0756 19.486 66.105 19.486 64.9077V51.2604H128.515V64.9077C128.515 66.105 129.485 67.0756 130.683 67.0756C131.88 67.0756 132.851 66.105 132.851 64.9077V51.2385H133.866C137.74 51.2385 140.892 48.0868 140.892 44.2125V42.5169H145.832C147.03 42.5169 148 41.5462 148 40.3489V33.3553C148 32.4659 147.456 31.6663 146.629 31.3394ZM136.556 44.2128C136.556 45.696 135.349 46.9028 133.866 46.9028H14.134C12.6508 46.9028 11.444 45.6963 11.444 44.2128V42.5172H136.555V44.2128H136.556Z" fill="white"/>
<path d="M83.2026 23.9067C83.2026 18.8322 79.0743 14.7041 73.9998 14.7041C68.9253 14.7041 64.7969 18.8325 64.7969 23.9067C64.7969 28.9809 68.9253 33.1096 73.9998 33.1096C79.0743 33.1096 83.2026 28.9812 83.2026 23.9067ZM69.1328 23.9067C69.1328 21.223 71.3161 19.04 73.9998 19.04C76.6834 19.04 78.8667 21.2233 78.8667 23.9067C78.8667 26.5901 76.6834 28.7736 73.9998 28.7736C71.3161 28.7736 69.1328 26.5903 69.1328 23.9067Z" fill="white"/>
<path d="M111.393 104.698H108.552H106.151H103.31C99.2438 104.698 95.4556 106.712 93.1763 110.085C92.5063 111.077 92.767 112.425 93.7591 113.095C94.752 113.766 96.0993 113.505 96.7694 112.512C98.2303 110.35 100.651 109.054 103.253 109.036L100.753 117.534C100.531 118.286 100.734 119.099 101.281 119.66L105.8 124.288C106.208 124.706 106.767 124.941 107.351 124.941C107.935 124.941 108.495 124.706 108.902 124.288L113.421 119.66C113.969 119.099 114.172 118.286 113.95 117.534L111.45 109.035C115.771 109.066 119.278 112.591 119.278 116.92V127.133H102.038C100.841 127.133 99.8704 128.104 99.8704 129.301C99.8704 130.499 100.841 131.469 102.038 131.469H121.447C122.644 131.469 123.615 130.499 123.615 129.301V116.92C123.615 110.181 118.132 104.698 111.393 104.698ZM107.351 119.67L105.271 117.539L107.351 110.467L109.432 117.539L107.351 119.67Z" fill="white"/>
<path d="M54.24 113.095C55.2321 112.424 55.4928 111.077 54.8228 110.085C52.5435 106.712 48.7556 104.698 44.6894 104.698H41.8482H39.4475H36.6063C29.8674 104.698 24.3848 110.18 24.3848 116.92V129.301C24.3848 130.498 25.3551 131.469 26.5527 131.469H45.9607C47.1583 131.469 48.1286 130.498 48.1286 129.301C48.1286 128.104 47.1583 127.133 45.9607 127.133H28.7204V116.92C28.7204 112.591 32.2273 109.066 36.5491 109.035L34.0487 117.533C33.8273 118.285 34.0296 119.099 34.5774 119.66L39.0963 124.288C39.5042 124.705 40.0635 124.941 40.6474 124.941C41.2313 124.941 41.7907 124.705 42.1985 124.288L46.7174 119.66C47.2655 119.099 47.4676 118.285 47.2461 117.533L44.746 109.035C47.3482 109.054 49.7685 110.35 51.2294 112.512C51.8998 113.504 53.2479 113.765 54.24 113.095ZM40.6477 119.67L38.567 117.539L40.6477 110.467L42.7284 117.539L40.6477 119.67Z" fill="white"/>
<path d="M27.0039 85.4956V89.968C27.0039 97.4914 33.1248 103.612 40.6482 103.612C48.172 103.612 54.2929 97.4914 54.2929 89.968V86.6013V84.435C54.2929 84.1919 54.2859 83.9503 54.2732 83.7104C54.2703 83.6563 54.2645 83.6028 54.2611 83.5491C54.2489 83.3612 54.235 83.1736 54.2154 82.9877C54.2093 82.9313 54.2006 82.8755 54.194 82.8195C54.1723 82.6362 54.1489 82.4535 54.1197 82.2726C54.1107 82.2162 54.0992 82.1601 54.0896 82.104C54.0587 81.9245 54.0255 81.7456 53.9873 81.5684C53.9749 81.51 53.9601 81.4519 53.9468 81.3938C53.9072 81.2209 53.8656 81.0492 53.8197 80.879C53.8026 80.816 53.7838 80.7532 53.7659 80.6905C53.7194 80.5278 53.6708 80.3662 53.6185 80.206C53.5956 80.1361 53.5716 80.067 53.5479 79.9976C53.4965 79.8485 53.443 79.7005 53.3864 79.5536C53.3563 79.475 53.3251 79.3967 53.2936 79.3186C53.2395 79.1857 53.1834 79.0538 53.1253 78.9229C53.086 78.8342 53.0464 78.7457 53.0051 78.6575C52.951 78.5428 52.8949 78.4295 52.8383 78.3167C52.788 78.2167 52.738 78.117 52.6851 78.0181C52.6351 77.9245 52.5825 77.8326 52.5302 77.7401C52.466 77.6265 52.4024 77.5129 52.335 77.401C52.2966 77.3374 52.2555 77.2752 52.2162 77.2119C51.7977 76.543 51.321 75.9083 50.7874 75.316C50.7695 75.2963 50.7524 75.2758 50.7348 75.2561C50.6197 75.1298 50.5006 75.007 50.3807 74.8847C50.3382 74.8413 50.2963 74.7974 50.2532 74.7546C50.1434 74.6459 50.0309 74.5396 49.917 74.4343C49.8586 74.3803 49.8002 74.3262 49.741 74.2733C49.6881 74.2259 49.6381 74.1765 49.5843 74.13C49.5661 74.1132 49.5479 74.097 49.5294 74.0808C49.4999 74.056 49.4704 74.0314 49.4525 74.0175C49.3473 73.9285 49.2409 73.8409 49.1331 73.755L48.9871 73.6409C48.9287 73.5958 48.8697 73.5524 48.8111 73.5085C48.8085 73.5067 48.8062 73.5047 48.8038 73.503C48.7663 73.4749 48.7287 73.4457 48.6911 73.4183C48.6319 73.3749 48.5723 73.3319 48.5099 73.2876C48.431 73.2318 48.3518 73.1781 48.2731 73.1252C48.2725 73.1249 48.272 73.1243 48.2714 73.124C48.2593 73.1159 48.2468 73.107 48.235 73.0989C48.1665 73.0526 48.0974 73.0069 48.0268 72.9613C47.9424 72.9069 47.8572 72.854 47.7745 72.8034C47.7618 72.7956 47.7479 72.7875 47.7352 72.7795C47.7227 72.7719 47.71 72.7644 47.6976 72.7566C47.6424 72.7228 47.5883 72.6896 47.5285 72.6543C47.4594 72.6138 47.3898 72.5751 47.3131 72.5323L47.2845 72.5164C47.2513 72.4979 47.2206 72.4814 47.188 72.4632C47.1651 72.4508 47.1423 72.4378 47.1192 72.4254C47.0894 72.4089 47.0573 72.3907 47.029 72.3756C46.9891 72.3542 46.9489 72.3337 46.9082 72.3132L46.8726 72.295C46.8385 72.2774 46.8035 72.2629 46.7694 72.2456C46.6029 72.1617 46.4344 72.0814 46.2641 72.0042C46.1985 71.9744 46.1332 71.9438 46.0676 71.9152C45.8936 71.8397 45.7175 71.7686 45.5398 71.7001C45.4779 71.6761 45.4169 71.6501 45.3547 71.627C45.1348 71.5457 44.9119 71.47 44.6867 71.4001C44.5656 71.3622 44.4428 71.3301 44.3208 71.296C44.2098 71.2651 44.0994 71.233 43.9872 71.2046C43.8531 71.1708 43.7178 71.1408 43.5825 71.111C43.4779 71.0879 43.3732 71.0653 43.268 71.0448C43.1336 71.0185 42.9989 70.9945 42.8636 70.9725C42.7494 70.9537 42.6347 70.9373 42.5193 70.9214C42.3927 70.904 42.2664 70.8867 42.1389 70.8728C41.999 70.8575 41.8577 70.8465 41.7166 70.8355C41.6117 70.8274 41.5073 70.8173 41.4018 70.8115C41.1651 70.7985 40.9269 70.7913 40.687 70.7907C40.6742 70.7907 40.6615 70.7896 40.6488 70.7896C33.1254 70.7896 27.0045 76.9104 27.0045 84.4342V85.4956H27.0039ZM40.6482 99.2764C35.5156 99.2764 31.3398 95.1006 31.3398 89.968V88.4683C32.4354 88.7054 33.5561 88.8265 34.6947 88.8265C38.3363 88.8265 41.8542 87.5647 44.6581 85.3034C46.1289 86.7741 47.9497 87.8344 49.9569 88.3877V89.9677C49.9569 95.1006 45.7811 99.2764 40.6482 99.2764ZM41.1605 75.1411C41.2345 75.1451 41.3079 75.1521 41.3813 75.1579C41.4755 75.1651 41.5695 75.1726 41.6631 75.1827C41.7513 75.1923 41.8389 75.2041 41.9265 75.2163C42.0031 75.2267 42.0797 75.2379 42.156 75.2504C42.2499 75.2657 42.3436 75.2824 42.4364 75.3007C42.506 75.3142 42.5754 75.3293 42.6448 75.3443C42.7387 75.3648 42.8327 75.3859 42.9255 75.4093C42.9992 75.4281 43.0723 75.4489 43.1454 75.4695C43.231 75.4935 43.3169 75.516 43.4013 75.5423C43.5542 75.59 43.7062 75.6412 43.8568 75.6967C43.8938 75.7103 43.93 75.7259 43.9667 75.74C44.0939 75.7892 44.2208 75.8398 44.3465 75.8947C44.3838 75.9109 44.4202 75.9282 44.4572 75.9447C44.5844 76.0022 44.711 76.062 44.8362 76.1256C44.9058 76.1609 44.9758 76.1956 45.0446 76.2326C45.0764 76.2499 45.1082 76.2676 45.14 76.2852C45.2348 76.3378 45.329 76.3916 45.4218 76.4474C45.4499 76.4644 45.4776 76.4809 45.5065 76.4988C45.5117 76.502 45.5169 76.5052 45.5221 76.5084C45.6192 76.5682 45.7152 76.6298 45.81 76.6931C45.8141 76.6957 45.8175 76.698 45.8216 76.7009C45.8499 76.7197 45.8768 76.7387 45.9048 76.7578C45.9999 76.8232 46.0942 76.8896 46.1864 76.9581C46.2014 76.9694 46.2162 76.9801 46.2315 76.9917C46.3289 77.0651 46.4246 77.1408 46.5191 77.2177C46.5474 77.2408 46.576 77.264 46.6041 77.2877C46.6709 77.3435 46.7362 77.401 46.8015 77.4588C46.859 77.5097 46.9163 77.5608 46.9723 77.6129C47.0307 77.6669 47.0883 77.7221 47.1452 77.7776C47.1949 77.8262 47.2444 77.8753 47.2929 77.9248C47.3522 77.9855 47.4109 78.0467 47.4687 78.1089C47.5126 78.1563 47.556 78.2043 47.599 78.2526C47.6574 78.3182 47.7149 78.3844 47.7716 78.4517C47.8121 78.4997 47.8517 78.548 47.891 78.5968C47.9462 78.6653 48.0008 78.7344 48.0543 78.8047C48.093 78.8555 48.1312 78.9073 48.1688 78.959C48.2191 79.0278 48.2685 79.0969 48.3168 79.1672C48.3561 79.2244 48.3945 79.2822 48.4324 79.3403C48.4758 79.4062 48.5185 79.4724 48.5602 79.5395C48.6009 79.6051 48.6402 79.6716 48.6793 79.7383C48.7151 79.7993 48.7507 79.8603 48.7851 79.9222C48.8273 79.9982 48.868 80.0754 48.9082 80.1526C48.9362 80.2066 48.9646 80.2604 48.9914 80.315C49.0345 80.402 49.0756 80.4899 49.1157 80.5781C49.1371 80.6252 49.1588 80.672 49.1796 80.7194C49.2218 80.816 49.2617 80.9137 49.3005 81.0117C49.3166 81.0527 49.3334 81.0935 49.349 81.1348C49.3883 81.2386 49.4253 81.3435 49.4612 81.4487C49.4739 81.4866 49.4872 81.5242 49.4996 81.5623C49.5343 81.6693 49.5664 81.7774 49.5973 81.8858C49.6083 81.9245 49.6199 81.9633 49.6306 82.002C49.6595 82.1084 49.6855 82.2156 49.7106 82.3234C49.7207 82.3665 49.7312 82.4096 49.7407 82.4529C49.763 82.555 49.7826 82.6576 49.8014 82.7608C49.8106 82.8122 49.8205 82.8634 49.8291 82.9149C49.8448 83.0091 49.8581 83.1042 49.8708 83.1993C49.8792 83.2614 49.8875 83.3236 49.8948 83.3863C49.9043 83.4716 49.9121 83.5574 49.9193 83.6433C49.9231 83.6875 49.9263 83.732 49.9295 83.7763C48.6214 83.171 47.4944 82.2017 46.683 80.9515C46.3162 80.3864 45.7077 80.0239 45.0362 79.9705C44.3679 79.9167 43.7065 80.1789 43.2553 80.6792C41.0694 83.101 37.949 84.4902 34.6933 84.4902C33.5486 84.4902 32.429 84.3246 31.3494 83.9962C31.3497 83.989 31.3494 83.9821 31.35 83.9748C31.3531 83.9112 31.3592 83.8485 31.3635 83.7855C31.3699 83.6933 31.3757 83.6008 31.3846 83.5092C31.391 83.4435 31.4003 83.3788 31.4084 83.3138C31.419 83.2256 31.4289 83.1371 31.4419 83.0496C31.4517 82.9836 31.4641 82.9186 31.4754 82.8533C31.4902 82.7677 31.5043 82.6819 31.5214 82.5972C31.5344 82.5316 31.55 82.4671 31.5647 82.4021C31.5832 82.3185 31.6014 82.235 31.6225 82.1523C31.639 82.0876 31.6575 82.0237 31.6752 81.9595C31.6977 81.8783 31.72 81.7968 31.7445 81.7161C31.7642 81.6516 31.7859 81.5883 31.807 81.5245C31.833 81.4455 31.859 81.3663 31.887 81.2886C31.9099 81.2256 31.9344 81.1634 31.9584 81.101C31.9882 81.0238 32.018 80.9463 32.0495 80.8703C32.0752 80.8085 32.1024 80.7477 32.1293 80.6868C32.1625 80.6116 32.1958 80.5364 32.231 80.4622C32.2596 80.402 32.2894 80.3425 32.3192 80.2829C32.3559 80.2095 32.3929 80.1364 32.4316 80.0641C32.4629 80.0057 32.4952 79.9482 32.5276 79.8907C32.5678 79.819 32.6085 79.7476 32.6505 79.6771C32.6843 79.6207 32.719 79.5649 32.7539 79.5091C32.7976 79.4397 32.8412 79.3707 32.8866 79.3024C32.923 79.2475 32.9603 79.1935 32.9979 79.1394C33.0444 79.0723 33.0916 79.0056 33.1401 78.9397C33.1789 78.8868 33.2185 78.8347 33.2584 78.7827C33.3081 78.7177 33.3587 78.6532 33.4101 78.5896C33.4512 78.539 33.4928 78.4887 33.535 78.4387C33.5879 78.376 33.6414 78.3141 33.696 78.2529C33.7394 78.2043 33.783 78.156 33.8275 78.1083C33.8833 78.0482 33.94 77.9886 33.9975 77.93C34.0429 77.8834 34.0885 77.8375 34.1351 77.7921C34.1938 77.7346 34.2536 77.6779 34.3137 77.6218C34.3611 77.5779 34.4085 77.534 34.4568 77.4909C34.5184 77.436 34.5811 77.3819 34.6441 77.3284C34.6933 77.2868 34.7427 77.2455 34.7927 77.2047C34.8572 77.1524 34.9225 77.1015 34.9881 77.0509C35.0393 77.0116 35.0904 76.9726 35.1422 76.9344C35.2092 76.885 35.2772 76.8373 35.3457 76.7896C35.3983 76.7532 35.4506 76.7165 35.5041 76.6809C35.5737 76.6344 35.6446 76.5896 35.7157 76.5451C35.77 76.511 35.8241 76.4769 35.8787 76.4439C35.951 76.4008 36.0241 76.3592 36.0972 76.3182C36.153 76.2867 36.2085 76.2551 36.2649 76.2248C36.3395 76.1849 36.4152 76.1467 36.4909 76.1089C36.5479 76.0803 36.6045 76.0514 36.6621 76.0239C36.7395 75.9872 36.8179 75.9525 36.8965 75.9178C36.9543 75.8924 37.0118 75.8661 37.0702 75.8415C37.1503 75.808 37.2315 75.777 37.3127 75.7458C37.3711 75.7233 37.4289 75.7001 37.4879 75.6788C37.5715 75.6484 37.6561 75.6209 37.7408 75.5932C37.7989 75.5741 37.8565 75.5539 37.9151 75.536C38.0019 75.5094 38.0897 75.4854 38.1776 75.4611C38.2354 75.4452 38.293 75.4278 38.3513 75.4131C38.4418 75.39 38.5337 75.37 38.6254 75.3498C38.6823 75.3371 38.7384 75.3232 38.7956 75.3116C38.8919 75.292 38.9893 75.2761 39.0867 75.2596C39.1405 75.2506 39.1937 75.24 39.2477 75.2316C39.3532 75.2157 39.4599 75.2032 39.5663 75.1908C39.6131 75.1853 39.6596 75.1781 39.7068 75.1735C39.8325 75.1607 39.9597 75.1521 40.0869 75.1446C40.1155 75.1428 40.1438 75.1397 40.1724 75.1382C40.3297 75.1304 40.4878 75.1261 40.6471 75.1261C40.6601 75.1261 40.6728 75.1269 40.6858 75.1269C40.8457 75.1281 41.0035 75.1327 41.1605 75.1411Z" fill="white"/>
<path d="M93.707 85.4955V89.9679C93.707 97.4913 99.8279 103.612 107.352 103.612C114.875 103.612 120.996 97.4913 120.996 89.9679V86.6012V84.4349C120.996 84.1918 120.989 83.9505 120.976 83.7103C120.973 83.6562 120.967 83.6024 120.964 83.5484C120.952 83.3608 120.938 83.1738 120.919 82.9885C120.913 82.931 120.904 82.8743 120.897 82.8171C120.875 82.635 120.852 82.4534 120.823 82.2736C120.814 82.2164 120.802 82.1597 120.792 82.1028C120.762 81.9241 120.729 81.7464 120.691 81.5703C120.678 81.5105 120.663 81.4515 120.65 81.392C120.611 81.2206 120.569 81.05 120.524 80.8812C120.506 80.8167 120.487 80.7529 120.469 80.6887C120.423 80.528 120.375 80.3678 120.323 80.2094C120.3 80.1377 120.275 80.0663 120.251 79.9949C120.2 79.8481 120.147 79.7021 120.092 79.5576C120.061 79.4769 120.029 79.3966 119.996 79.3165C119.943 79.1859 119.888 79.0561 119.831 78.9274C119.791 78.8367 119.75 78.7462 119.708 78.6563C119.656 78.5441 119.601 78.4331 119.545 78.3227C119.493 78.2204 119.442 78.1181 119.388 78.0169C119.34 77.9264 119.289 77.8374 119.238 77.7481C119.173 77.6316 119.107 77.5148 119.038 77.4003C119.001 77.3396 118.962 77.2804 118.925 77.2202C118.503 76.5459 118.023 75.9064 117.485 75.3098C117.47 75.2928 117.455 75.2748 117.44 75.2578C117.324 75.1312 117.205 75.008 117.084 74.8855C117.042 74.8424 117 74.7985 116.957 74.7557C116.848 74.6476 116.736 74.5421 116.623 74.4374C116.564 74.3822 116.505 74.3273 116.444 74.273C116.393 74.227 116.344 74.179 116.292 74.1339C116.273 74.1157 116.253 74.0981 116.233 74.0804C116.203 74.0556 116.174 74.031 116.153 74.0148C116.048 73.9258 115.942 73.8382 115.842 73.759L115.688 73.6385C115.59 73.5633 115.492 73.489 115.394 73.4179C115.337 73.3757 115.278 73.3338 115.213 73.2872C115.121 73.2225 115.029 73.1592 114.938 73.0988C114.87 73.0525 114.8 73.0069 114.73 72.9612C114.646 72.9068 114.56 72.8539 114.474 72.8013L114.445 72.7831C114.439 72.7794 114.432 72.7753 114.425 72.7716C114.422 72.7695 114.419 72.7675 114.415 72.7655C114.356 72.7291 114.297 72.6932 114.231 72.6545C114.17 72.6186 114.108 72.5842 114.047 72.5499L113.995 72.5207C113.957 72.4996 113.922 72.4808 113.885 72.4602C113.865 72.4493 113.845 72.4383 113.825 72.4276C113.795 72.4105 113.762 72.392 113.732 72.3761C113.692 72.3547 113.651 72.3339 113.61 72.3131L113.575 72.2955C113.542 72.2781 113.507 72.264 113.474 72.2469C113.306 72.1625 113.136 72.0816 112.965 72.0038C112.9 71.9743 112.836 71.9443 112.771 71.9159C112.596 71.8399 112.419 71.7682 112.24 71.6994C112.179 71.676 112.119 71.6503 112.058 71.6277C111.838 71.5465 111.615 71.4708 111.389 71.4005C111.268 71.363 111.146 71.3312 111.025 71.2971C110.913 71.2658 110.802 71.2337 110.69 71.2051C110.556 71.1713 110.421 71.1412 110.286 71.1115C110.181 71.0884 110.076 71.0658 109.971 71.0453C109.836 71.019 109.701 70.995 109.566 70.973C109.452 70.9542 109.337 70.9377 109.222 70.9218C109.096 70.9045 108.969 70.8872 108.842 70.8733C108.702 70.858 108.561 70.847 108.419 70.836C108.315 70.8279 108.21 70.8178 108.105 70.812C107.868 70.799 107.629 70.7918 107.39 70.7912C107.377 70.7912 107.364 70.79 107.352 70.79C99.8279 70.79 93.707 76.9109 93.707 84.4347V85.4955ZM107.352 99.2763C102.219 99.2763 98.043 95.1005 98.043 89.9679V88.4682C99.1385 88.7053 100.259 88.8264 101.398 88.8264C105.039 88.8264 108.558 87.5643 111.362 85.3036C112.832 86.774 114.653 87.8343 116.66 88.3879V89.9679C116.66 95.1005 112.484 99.2763 107.352 99.2763ZM107.864 75.141C107.938 75.1451 108.011 75.152 108.084 75.1578C108.179 75.165 108.273 75.1725 108.367 75.1826C108.455 75.1922 108.542 75.204 108.629 75.2162C108.706 75.2269 108.783 75.2378 108.86 75.2503C108.954 75.2656 109.047 75.2821 109.139 75.3003C109.21 75.3142 109.28 75.3292 109.35 75.3445C109.443 75.365 109.536 75.3858 109.629 75.409C109.704 75.428 109.778 75.4494 109.852 75.4702C109.936 75.4937 110.021 75.5162 110.104 75.5419C110.258 75.5896 110.41 75.6411 110.561 75.6969C110.597 75.7099 110.631 75.7249 110.667 75.7385C110.796 75.7882 110.924 75.8397 111.052 75.8952C111.088 75.9108 111.123 75.9275 111.159 75.9437C111.287 76.0018 111.415 76.0622 111.542 76.1264C111.614 76.1634 111.688 76.1996 111.76 76.2383C111.782 76.2504 111.807 76.2643 111.832 76.2782C111.934 76.3343 112.034 76.3921 112.133 76.4519C112.149 76.4612 112.164 76.4704 112.179 76.4797L112.21 76.4987C112.213 76.5005 112.216 76.5025 112.219 76.5042C112.321 76.5667 112.421 76.6311 112.52 76.6973C112.522 76.6985 112.524 76.6996 112.526 76.7008C112.552 76.7184 112.576 76.7352 112.601 76.7525C112.695 76.8164 112.787 76.882 112.878 76.9494C112.907 76.9711 112.938 76.9945 112.968 77.0173C113.055 77.0829 113.14 77.15 113.224 77.2185C113.251 77.2408 113.279 77.263 113.305 77.2853C113.373 77.3416 113.439 77.3997 113.505 77.4581C113.563 77.5093 113.621 77.561 113.677 77.6134C113.735 77.6674 113.793 77.7223 113.849 77.7775C113.899 77.8261 113.949 77.8752 113.997 77.925C114.057 77.9857 114.116 78.0472 114.174 78.1097C114.217 78.1568 114.26 78.2042 114.303 78.2519C114.362 78.3181 114.42 78.3849 114.477 78.4528C114.516 78.5002 114.555 78.5479 114.594 78.5959C114.65 78.665 114.705 78.7349 114.759 78.8057C114.797 78.856 114.835 78.9066 114.872 78.9575C114.923 79.0272 114.973 79.0974 115.022 79.1685C115.06 79.2243 115.098 79.281 115.135 79.3376C115.179 79.405 115.223 79.4723 115.266 79.5408C115.305 79.6053 115.344 79.6703 115.382 79.7354C115.419 79.7975 115.455 79.86 115.49 79.9233C115.532 79.9981 115.572 80.0736 115.611 80.1496C115.64 80.2048 115.669 80.26 115.697 80.3158C115.739 80.4017 115.78 80.4884 115.819 80.5754C115.841 80.6234 115.864 80.6714 115.885 80.7199C115.926 80.8156 115.966 80.9121 116.004 81.009C116.021 81.0512 116.038 81.0931 116.054 81.1353C116.093 81.2385 116.13 81.3426 116.166 81.4469C116.179 81.4853 116.192 81.5235 116.205 81.5622C116.239 81.6689 116.272 81.7767 116.302 81.8845C116.314 81.9236 116.325 81.9626 116.336 82.0019C116.365 82.108 116.391 82.2149 116.415 82.3222C116.426 82.3655 116.436 82.4089 116.446 82.4526C116.468 82.5543 116.487 82.6569 116.506 82.7595C116.515 82.811 116.525 82.8624 116.534 82.9142C116.55 83.0084 116.563 83.1032 116.576 83.198C116.584 83.2605 116.592 83.3226 116.6 83.3854C116.609 83.4706 116.617 83.5565 116.624 83.6423C116.628 83.6866 116.631 83.7311 116.634 83.7753C115.326 83.17 114.199 82.2008 113.388 80.9506C113.021 80.3855 112.413 80.023 111.741 79.9695C111.07 79.9157 110.411 80.1779 109.96 80.6783C107.774 83.1001 104.654 84.489 101.398 84.489C100.254 84.489 99.1342 84.3234 98.0542 83.995C98.0545 83.9878 98.0542 83.9808 98.0548 83.9736C98.058 83.91 98.0641 83.8473 98.0684 83.7843C98.0748 83.6921 98.0805 83.5996 98.0895 83.5079C98.0959 83.4423 98.1051 83.3776 98.1132 83.3125C98.1239 83.2244 98.1337 83.1359 98.1467 83.0483C98.1566 82.9824 98.169 82.9174 98.1803 82.852C98.195 82.7665 98.2092 82.6806 98.2262 82.5959C98.2392 82.5303 98.2548 82.4659 98.2696 82.4008C98.2881 82.3173 98.3063 82.2337 98.3274 82.1511C98.3436 82.0866 98.3624 82.0227 98.38 81.9588C98.4026 81.8773 98.4248 81.7955 98.4494 81.7146C98.469 81.6507 98.4904 81.5877 98.5112 81.5244C98.5376 81.4452 98.5633 81.3657 98.5916 81.2873C98.6142 81.2243 98.6387 81.1622 98.6627 81.0997C98.6925 81.0226 98.7223 80.9451 98.7538 80.8691C98.7795 80.8072 98.8067 80.7465 98.8335 80.6855C98.8668 80.6104 98.9 80.5352 98.9353 80.4609C98.9639 80.4008 98.9937 80.3412 99.0235 80.2817C99.0602 80.2083 99.0972 80.1351 99.1356 80.0629C99.1668 80.0045 99.1992 79.9467 99.2319 79.8889C99.2721 79.8175 99.3125 79.7463 99.3542 79.6764C99.3883 79.6194 99.4232 79.5634 99.4582 79.5073C99.5016 79.4382 99.5452 79.3694 99.5903 79.3015C99.6267 79.2466 99.664 79.1922 99.7016 79.1382C99.7481 79.0708 99.7956 79.004 99.8438 78.9381C99.8826 78.8855 99.9219 78.8335 99.9618 78.7815C100.012 78.7164 100.062 78.652 100.114 78.5881C100.155 78.5375 100.196 78.4872 100.239 78.4372C100.292 78.3748 100.345 78.3126 100.4 78.2516C100.443 78.2028 100.487 78.1545 100.532 78.1068C100.587 78.0467 100.644 77.9874 100.701 77.9287C100.747 77.8822 100.792 77.8362 100.839 77.7908C100.897 77.7333 100.957 77.6767 101.017 77.6206C101.065 77.5766 101.112 77.5327 101.161 77.4896C101.222 77.4344 101.285 77.3804 101.348 77.3269C101.397 77.2853 101.446 77.2439 101.496 77.2035C101.561 77.1511 101.626 77.1003 101.692 77.0497C101.743 77.0104 101.794 76.9711 101.846 76.9329C101.913 76.8838 101.981 76.8358 102.049 76.7884C102.102 76.7517 102.155 76.7152 102.208 76.6797C102.277 76.6331 102.349 76.5883 102.42 76.5435C102.474 76.5097 102.527 76.4756 102.582 76.4429C102.655 76.3996 102.728 76.3583 102.802 76.3166C102.857 76.2854 102.913 76.2536 102.969 76.2235C103.043 76.1837 103.119 76.1455 103.195 76.1073C103.252 76.0787 103.309 76.0498 103.366 76.0226C103.444 75.9859 103.522 75.9512 103.601 75.9163C103.658 75.8908 103.716 75.8645 103.774 75.8402C103.854 75.8067 103.936 75.7755 104.017 75.7443C104.075 75.7217 104.133 75.6986 104.192 75.6775C104.275 75.6474 104.36 75.6197 104.444 75.5919C104.502 75.5729 104.56 75.5526 104.619 75.5344C104.706 75.5078 104.793 75.4838 104.881 75.4598C104.939 75.4439 104.997 75.4266 105.055 75.4119C105.146 75.3887 105.237 75.3688 105.329 75.3486C105.386 75.3358 105.442 75.322 105.499 75.3104C105.596 75.2907 105.693 75.2748 105.79 75.2584C105.844 75.2494 105.897 75.2387 105.951 75.2303C106.057 75.2144 106.163 75.202 106.27 75.1896C106.317 75.1841 106.363 75.1768 106.41 75.1722C106.536 75.1595 106.663 75.1508 106.791 75.1433C106.819 75.1416 106.847 75.1384 106.876 75.137C107.033 75.1292 107.191 75.1248 107.35 75.1248C107.363 75.1248 107.376 75.1257 107.389 75.1257C107.549 75.128 107.707 75.1326 107.864 75.141Z" fill="white"/>
<path d="M79.5206 110.223H75.6391H72.3594H68.4779C59.7086 110.223 52.5742 117.357 52.5742 126.126V143.041C52.5742 144.239 53.5446 145.209 54.7422 145.209H93.2557C94.4533 145.209 95.4237 144.239 95.4237 143.041V126.126C95.424 117.357 88.2899 110.223 79.5206 110.223ZM74.0172 114.559L77.7348 127.195L73.9992 131.021L70.2637 127.195L73.9813 114.559H74.0172V114.559ZM91.088 140.873H56.9104V126.126C56.9104 119.748 62.0997 114.559 68.4781 114.559H69.4618L65.7459 127.189C65.5245 127.941 65.7268 128.754 66.2746 129.315L72.4481 135.638C72.856 136.056 73.4153 136.292 73.9992 136.292C74.5831 136.292 75.1425 136.056 75.5503 135.638L81.7238 129.315C82.2719 128.754 82.474 127.941 82.2525 127.189L78.5366 114.559H79.5203C85.8985 114.559 91.088 119.748 91.088 126.126V140.873Z" fill="white"/>
<path d="M56.1523 82.5793V84.0286V90.1385C56.1523 99.9794 64.1585 107.986 73.9993 107.986C83.8402 107.986 91.8464 99.9797 91.8464 90.1385V85.539V82.5793C91.8464 82.261 91.8374 81.9451 91.8206 81.6309C91.8169 81.56 91.8091 81.4901 91.8044 81.4195C91.7885 81.1738 91.7706 80.9287 91.7449 80.6856C91.7371 80.6113 91.7255 80.5382 91.7166 80.4642C91.6882 80.2249 91.6573 79.9864 91.6197 79.7499C91.6079 79.6756 91.5928 79.6025 91.5801 79.5285C91.5394 79.2938 91.4963 79.0599 91.4463 78.8281C91.4298 78.7518 91.411 78.6764 91.3937 78.6006C91.3419 78.374 91.2873 78.1485 91.2269 77.9254C91.2046 77.8436 91.1806 77.7623 91.1572 77.6808C91.0962 77.4675 91.0323 77.2556 90.9638 77.0455C90.9341 76.9547 90.9029 76.8642 90.8719 76.774C90.8043 76.578 90.7337 76.3835 90.6597 76.1907C90.6207 76.089 90.5805 75.9875 90.5395 75.8866C90.4681 75.7111 90.3941 75.5374 90.3175 75.3646C90.2669 75.2501 90.2157 75.1359 90.1626 75.0226C90.0912 74.8705 90.0166 74.7202 89.9411 74.5705C89.8764 74.4419 89.8119 74.3132 89.744 74.1861C89.6772 74.0612 89.607 73.9383 89.5373 73.8152C89.4549 73.6692 89.3728 73.5227 89.2861 73.379C89.2338 73.2923 89.178 73.2076 89.1243 73.122C88.5846 72.2603 87.9703 71.4426 87.2847 70.678C87.2517 70.6413 87.2202 70.6034 87.187 70.567C87.0421 70.4083 86.8921 70.2536 86.7412 70.0999C86.6794 70.0366 86.6181 69.9727 86.5551 69.9102C86.4163 69.7729 86.2741 69.6385 86.1304 69.5056C86.0483 69.4295 85.9662 69.3535 85.8827 69.2789C85.8151 69.2185 85.7509 69.1549 85.6821 69.0954C85.6584 69.0731 85.6344 69.0517 85.6095 69.0303C85.5789 69.004 85.5474 68.9783 85.511 68.9491C85.3748 68.8344 85.2378 68.721 85.0965 68.6086C85.0329 68.5583 84.9693 68.5089 84.9039 68.4583C84.8294 68.4008 84.7548 68.3458 84.6799 68.2898C84.6741 68.2854 84.6684 68.2811 84.6626 68.2767C84.6137 68.2403 84.5649 68.2019 84.516 68.1666C84.4394 68.1108 84.3631 68.0556 84.2816 67.9981C84.1796 67.9261 84.0764 67.8559 83.9732 67.7862C83.9717 67.7853 83.9706 67.7845 83.9691 67.7833C83.9526 67.7723 83.9364 67.7608 83.92 67.7495C83.8304 67.6897 83.741 67.6298 83.6488 67.5703C83.5393 67.4997 83.4291 67.4315 83.3144 67.361L83.2655 67.3309C83.2626 67.3292 83.2595 67.3272 83.2563 67.3254C83.2485 67.3205 83.2407 67.3159 83.2326 67.3113C83.156 67.2645 83.0797 67.2176 82.9976 67.1694C82.9149 67.1211 82.8316 67.0745 82.7484 67.028L82.6828 66.9913C82.6403 66.9676 82.5969 66.9442 82.5541 66.9205C82.5232 66.9034 82.4923 66.8861 82.4611 66.8693C82.4195 66.8465 82.3787 66.8231 82.3362 66.8008C82.2885 66.7754 82.2399 66.7508 82.1914 66.7265L82.1388 66.6999C82.0974 66.6788 82.0552 66.6612 82.0139 66.6404C81.7893 66.5271 81.5621 66.4187 81.3326 66.3149C81.2522 66.2785 81.1719 66.2409 81.0912 66.2056C80.8565 66.1036 80.6186 66.0076 80.379 65.9154C80.305 65.8868 80.2315 65.8553 80.1572 65.8278C79.8673 65.7209 79.5736 65.6211 79.2768 65.5289C79.1241 65.4815 78.9698 65.441 78.816 65.3977C78.6648 65.3552 78.5142 65.3118 78.3616 65.2731C78.1896 65.2297 78.0162 65.1913 77.8427 65.1531C77.7022 65.1222 77.5615 65.0919 77.4195 65.0641C77.247 65.0306 77.0738 64.9997 76.8998 64.971C76.7463 64.9459 76.5919 64.9236 76.4373 64.9025C76.2757 64.8806 76.1144 64.8583 75.9517 64.8407C75.7626 64.8199 75.5721 64.8051 75.3811 64.7904C75.2495 64.7803 75.1186 64.7675 74.9862 64.7603C74.659 64.7424 74.3297 64.7317 73.9979 64.7317C64.1585 64.7323 56.1523 72.7384 56.1523 82.5793ZM73.9993 103.65C66.5493 103.65 60.4883 97.5888 60.4883 90.1385V87.0834C62.2334 87.5494 64.0322 87.785 65.866 87.785C70.9044 87.785 75.7629 85.9497 79.5389 82.6804C81.667 85.0129 84.4357 86.6394 87.5107 87.3621V90.1383C87.5104 97.5886 81.4494 103.65 73.9993 103.65ZM74.7477 69.0899C74.8475 69.0954 74.9463 69.1049 75.0458 69.1127C75.1903 69.1237 75.3345 69.1353 75.4779 69.1509C75.601 69.1645 75.723 69.1809 75.845 69.1977C75.9624 69.2136 76.0797 69.2307 76.1965 69.2497C76.3272 69.2711 76.4572 69.2942 76.5867 69.3197C76.6957 69.3408 76.8041 69.3642 76.9125 69.3882C77.0417 69.4168 77.1709 69.4454 77.2987 69.4775C77.4192 69.5079 77.5392 69.5423 77.6589 69.5761C77.7693 69.6073 77.8806 69.6365 77.9899 69.6703C78.2171 69.7408 78.4428 69.8169 78.6665 69.8998C78.7076 69.9149 78.7475 69.9325 78.7885 69.9481C78.9868 70.0238 79.184 70.1033 79.3794 70.1889C79.4265 70.2094 79.473 70.2314 79.5199 70.2525C79.7109 70.3386 79.9008 70.4291 80.0893 70.5245C80.189 70.5751 80.2896 70.6245 80.3879 70.6777C80.4293 70.7002 80.4706 70.7231 80.5116 70.7459C80.6593 70.8274 80.8056 70.9113 80.9499 70.9983C80.9672 71.009 80.9848 71.0194 81.0022 71.0298L81.0502 71.0593C81.0516 71.0601 81.0531 71.061 81.0545 71.0619C81.2091 71.157 81.3621 71.2547 81.5127 71.3558C81.5462 71.3784 81.578 71.4006 81.6112 71.4235C81.7529 71.5203 81.8928 71.6198 82.0304 71.7218C82.0651 71.7475 82.0992 71.7732 82.1333 71.799C82.2703 71.9027 82.4053 72.0085 82.5383 72.1172C82.5689 72.1424 82.5995 72.1672 82.6299 72.1927C82.7305 72.2765 82.8285 72.3632 82.9268 72.4499C83.0207 72.5329 83.1135 72.6167 83.2048 72.7017C83.2875 72.7789 83.3696 72.8567 83.4505 72.9359C83.5315 73.0151 83.6107 73.096 83.6893 73.1769C83.7734 73.2634 83.8572 73.3501 83.939 73.4388C84.0102 73.516 84.0787 73.5949 84.1478 73.6735C84.231 73.7681 84.3145 73.862 84.3952 73.9588C84.4588 74.0354 84.5192 74.1141 84.5808 74.1918C84.6611 74.293 84.7432 74.3933 84.8207 74.4968C84.8938 74.5942 84.9623 74.6948 85.0326 74.794C85.1424 74.9492 85.2491 75.1067 85.3526 75.2669C85.4274 75.3828 85.5032 75.4981 85.5743 75.6163C85.6202 75.6924 85.663 75.7707 85.7075 75.8476C85.7801 75.9736 85.8526 76.0996 85.9212 76.228C85.9599 76.3003 85.996 76.3737 86.0333 76.4465C86.1036 76.5838 86.1726 76.7217 86.238 76.8613C86.2695 76.9284 86.2995 76.9966 86.3299 77.0642C86.3967 77.2134 86.4617 77.3634 86.523 77.5149C86.5481 77.577 86.5727 77.6395 86.597 77.7022C86.6591 77.8621 86.7181 78.0231 86.7739 78.1852C86.7938 78.243 86.8138 78.3011 86.8329 78.3592C86.8886 78.5281 86.9404 78.6983 86.9895 78.8697C87.0051 78.9244 87.0213 78.9787 87.0361 79.0336C87.084 79.2094 87.1274 79.3869 87.1682 79.5646C87.1803 79.6175 87.1933 79.6701 87.2049 79.7233C87.2439 79.9028 87.2774 80.0841 87.3089 80.2656C87.3182 80.3194 87.3292 80.3726 87.3378 80.4266C87.367 80.6076 87.3905 80.79 87.4124 80.9724C87.4191 81.0282 87.4277 81.0834 87.4338 81.1395C87.4538 81.3247 87.4673 81.5109 87.4795 81.6973C87.483 81.7511 87.489 81.804 87.4916 81.8581C87.5043 82.0974 87.5113 82.3376 87.5113 82.5787V82.8617C85.0965 82.0549 83.0065 80.4489 81.5809 78.2523C81.2141 77.6872 80.6056 77.3247 79.9341 77.2712C79.2643 77.2186 78.6044 77.4796 78.1529 77.98C75.0168 81.4554 70.5387 83.4485 65.8666 83.4485C64.0189 83.4485 62.216 83.1476 60.4897 82.5521C60.49 82.4359 60.4952 82.3208 60.4984 82.2055C60.5013 82.0942 60.5019 81.9824 60.5074 81.8716C60.5134 81.7566 60.5247 81.643 60.5337 81.5288C60.5426 81.4146 60.5487 81.2999 60.5605 81.1866C60.5718 81.0759 60.5886 80.9669 60.6025 80.8573C60.6172 80.742 60.6296 80.6261 60.6473 80.5116C60.6635 80.4064 60.6846 80.3032 60.7033 80.1988C60.7244 80.0815 60.7429 79.9633 60.7669 79.847C60.7875 79.7485 60.8123 79.6514 60.8349 79.5537C60.8623 79.4337 60.8881 79.3132 60.9187 79.1943C60.9427 79.1016 60.9713 79.0108 60.997 78.9189C61.0314 78.7969 61.0638 78.6743 61.1017 78.5538C61.1283 78.4685 61.1592 78.385 61.1875 78.3003C61.2294 78.1754 61.2696 78.0497 61.315 77.9265C61.3445 77.8467 61.3777 77.7687 61.4087 77.6895C61.4575 77.5637 61.5052 77.4374 61.5578 77.3137C61.5896 77.2391 61.6249 77.1666 61.6578 77.0926C61.7142 76.9665 61.7691 76.8399 61.829 76.7159C61.8625 76.6468 61.8992 76.5798 61.9339 76.5113C61.9978 76.385 62.0605 76.2578 62.1281 76.1338C62.1625 76.0707 62.2001 76.0097 62.2357 75.9473C62.3076 75.8204 62.3787 75.6929 62.4545 75.5683C62.4889 75.512 62.5262 75.4576 62.5614 75.4018C62.6421 75.2738 62.7219 75.1457 62.8066 75.0206C62.843 74.9668 62.882 74.9154 62.9193 74.8622C63.0063 74.7379 63.0927 74.613 63.1835 74.4916C63.2225 74.4396 63.2644 74.3896 63.304 74.3381C63.3965 74.2181 63.4887 74.0979 63.5853 73.9811C63.6214 73.9378 63.6596 73.8961 63.6963 73.8533C63.7995 73.7314 63.903 73.6094 64.0105 73.4914C64.0475 73.451 64.0868 73.4125 64.1241 73.3723C64.234 73.2544 64.3441 73.1368 64.458 73.0229C64.4979 72.983 64.5401 72.9451 64.5808 72.9058C64.695 72.7945 64.8095 72.6832 64.9274 72.576C64.9693 72.5381 65.013 72.5026 65.0555 72.4653C65.1749 72.3595 65.2945 72.2537 65.4177 72.1519C65.4642 72.1135 65.5133 72.0776 65.5605 72.0398C65.6819 71.9424 65.8033 71.8446 65.9281 71.7513C65.9753 71.716 66.0244 71.6834 66.0724 71.6487C66.1999 71.5559 66.3273 71.4631 66.458 71.3746C66.5054 71.3425 66.5545 71.3134 66.6025 71.2821C66.7358 71.1945 66.869 71.1067 67.0058 71.0237C67.061 70.9902 67.1182 70.9598 67.174 70.9269C67.3055 70.8494 67.4371 70.7714 67.5715 70.6985C67.6264 70.6687 67.683 70.6419 67.7383 70.613C67.8758 70.5407 68.0132 70.4678 68.1533 70.4002C68.2146 70.3707 68.2779 70.3444 68.3401 70.3158C68.4765 70.2525 68.6124 70.1886 68.7508 70.1299C68.8231 70.0993 68.8974 70.0727 68.9705 70.0432C69.1012 69.9906 69.2313 69.9365 69.3639 69.888C69.4353 69.8617 69.5085 69.8394 69.5807 69.8146C69.7169 69.7672 69.8527 69.7186 69.9909 69.6755C70.0753 69.6492 70.1615 69.6275 70.2464 69.6027C70.3742 69.5657 70.5014 69.5267 70.6309 69.4934C70.7263 69.4688 70.8237 69.4492 70.9197 69.4266C71.0408 69.3983 71.161 69.3677 71.2836 69.3425C71.379 69.3229 71.4761 69.3084 71.5721 69.2908C71.6973 69.2679 71.8218 69.2428 71.9482 69.2234C72.0482 69.2081 72.1499 69.198 72.2508 69.185C72.3748 69.1688 72.498 69.1503 72.6231 69.1376C72.7448 69.1251 72.868 69.1188 72.9905 69.1095C73.0963 69.1017 73.2015 69.0907 73.3079 69.0853C73.5377 69.0737 73.769 69.0676 74.0017 69.0676C74.2503 69.0682 74.4994 69.0766 74.7477 69.0899Z" fill="white"/>
</svg>
