<svg width="154" height="154" viewBox="0 0 154 154" fill="none" xmlns="http://www.w3.org/2000/svg">
<g clip-path="url(#clip0)">
<path d="M109.248 110.868H44.7539C43.5078 110.868 42.498 111.878 42.498 113.124C42.498 114.37 43.5078 115.38 44.7539 115.38H109.248C110.494 115.38 111.504 114.37 111.504 113.124C111.504 111.878 110.494 110.868 109.248 110.868Z" fill="#0054A6"/>
<path d="M111.504 122.896C111.504 121.65 110.494 120.64 109.248 120.64H44.7539C43.5078 120.64 42.498 121.65 42.498 122.896C42.498 124.141 43.5078 125.151 44.7539 125.151H109.248C110.494 125.151 111.504 124.141 111.504 122.896Z" fill="#0054A6"/>
<path d="M54.1875 130.411C52.9414 130.411 51.9316 131.421 51.9316 132.667C51.9316 133.913 52.9414 134.923 54.1875 134.923H99.8127C101.059 134.923 102.069 133.913 102.069 132.667C102.069 131.421 101.059 130.411 99.8127 130.411H54.1875Z" fill="#0054A6"/>
<path d="M111.683 53.978L125.237 49.0317C126.464 48.5838 127.257 47.4502 127.257 46.1439C127.257 44.8376 126.464 43.7046 125.237 43.2567L80.5378 26.9436C78.2569 26.1111 75.7442 26.1108 73.4631 26.9436L28.7645 43.2564C27.5373 43.704 26.7441 44.8373 26.7441 46.1439C26.7441 47.4505 27.537 48.5838 28.7642 49.0317L42.3179 53.978V80.6419C42.3179 82.4005 43.0936 84.0696 44.2823 85.1915C45.4599 86.302 46.7653 87.3475 48.178 88.3247C48.1777 88.325 48.1771 88.3256 48.1765 88.3259C46.6591 89.8154 45.7889 91.8808 45.7889 93.9932V95.5112C45.7889 96.1808 45.9989 96.8175 46.3649 97.346L44.1725 102.4C43.6769 103.543 44.2014 104.871 45.3444 105.367C46.4861 105.863 47.8153 105.339 48.3116 104.195L50.3773 99.4328C50.6724 99.5273 50.9705 99.6088 51.2713 99.6758V104.754C51.2713 106 52.281 107.01 53.5271 107.01C54.7732 107.01 55.783 106 55.783 104.754V99.6758C56.0837 99.6085 56.3818 99.5273 56.6766 99.4328L58.7426 104.195C59.2392 105.34 60.5687 105.862 61.7098 105.367C62.8531 104.871 63.3777 103.543 62.8817 102.4L60.6893 97.346C61.0553 96.8175 61.2656 96.1805 61.2656 95.5109V94.3466C66.2116 95.7522 71.5754 96.4894 77 96.4894C88.5177 96.4894 101.424 93.0139 109.719 85.1906C110.911 84.0657 111.682 82.3834 111.682 80.6413C111.683 77.6254 111.683 57.0346 111.683 53.978ZM75.0097 31.1819C76.2934 30.7133 77.7074 30.7133 78.9908 31.1819L119.989 46.1442C119.226 46.4224 79.6953 60.8493 78.9911 61.1062C77.7068 61.5748 76.2931 61.5745 75.0097 61.1062L59.2528 55.3556L72.2889 48.9168L73.4634 49.3454C74.604 49.7617 75.802 49.9698 77.0006 49.9698C78.1992 49.9698 79.3978 49.7617 80.5381 49.3454L82.6185 48.5862C83.8872 48.1236 84.7393 46.9058 84.7393 45.5556V43.8938C84.7393 39.706 81.3339 36.235 77.148 36.1565C75.1048 36.1192 73.1437 36.904 71.65 38.3703C70.1326 39.8597 69.2624 41.9252 69.2624 44.0375V45.3802C52.8067 53.5079 53.8571 52.968 53.4525 53.239L34.0125 46.1442L75.0097 31.1819ZM73.7732 44.656V44.0373C73.7732 43.1286 74.151 42.2365 74.8094 41.5898C75.4314 40.9795 76.2228 40.6556 77.0625 40.667C78.8074 40.6998 80.2271 42.1472 80.2271 43.8935V44.6557L78.9908 45.1068C77.7071 45.5754 76.2934 45.5751 75.01 45.1068L73.7732 44.656ZM51.2716 74.2566C49.8492 73.3143 48.5432 72.2913 47.378 71.1923C47.0294 70.8635 46.8296 70.4015 46.8296 69.9251V55.6251L51.2749 57.2475C51.2697 57.5378 51.2716 55.2951 51.2716 74.2566ZM50.3003 94.6122C50.3003 93.9703 50.1821 92.6791 51.3365 91.5458C51.9964 90.8982 52.8185 90.6094 53.5894 90.6233C55.9054 90.6672 56.7539 92.3043 56.7539 94.6119C54.0435 95.6012 53.5584 95.8012 50.3003 94.6122ZM51.2716 84.9725C49.9797 84.1168 48.7943 83.1985 47.7257 82.2267C47.3891 81.9205 46.8293 81.5081 46.8293 80.6419V76.631C48.1982 77.6744 49.6888 78.6366 51.2716 79.5206V84.9725ZM59.6248 89.092C58.662 87.8543 57.3341 86.9174 55.7833 86.4457V81.7051C60.538 83.6876 65.9006 85.0113 71.5321 85.5232C72.7752 85.6348 73.8704 84.7217 73.9829 83.4809C74.0959 82.2402 73.1816 81.143 71.9409 81.0302C66.0486 80.4945 60.5034 79.0159 55.783 76.7868V58.8925L73.4628 65.3448C74.5757 65.7509 75.7869 65.9692 77 65.9692C78.2419 65.9689 79.4546 65.7397 80.5372 65.3448H80.5374L107.171 55.6251V69.9251C107.171 70.4015 106.971 70.8635 106.623 71.1923C100.952 76.5407 91.9996 80.1266 82.0594 81.0305C80.8187 81.1433 79.9043 82.2405 80.0174 83.4812C80.1299 84.722 81.2262 85.6369 82.4682 85.5235C92.0345 84.6537 100.838 81.4588 107.171 76.6313V80.6422C107.171 81.1379 106.95 81.6005 106.623 81.9094C99.1287 88.978 87.333 91.9786 77.0003 91.9786C70.9101 91.978 64.9194 90.9815 59.6248 89.092Z" fill="#0054A6"/>
<path d="M26.9087 154H127.093C132.055 154 136.093 149.963 136.093 145V83.4665C136.093 82.2206 135.083 81.2106 133.837 81.2106C132.591 81.2106 131.581 82.2206 131.581 83.4665V145C131.581 147.475 129.568 149.488 127.093 149.488H26.9087C24.4336 149.488 22.4199 147.475 22.4199 145V18.4423H131.581V72.9392C131.581 74.185 132.591 75.195 133.837 75.195C135.083 75.195 136.093 74.185 136.093 72.9392C136.093 70.7814 136.093 12.0718 136.093 9.00024C136.093 4.03797 132.056 0 127.093 0C124.386 0 27.8051 0 26.9087 0C21.9459 0 17.9082 4.03737 17.9082 9.00024V144.999C17.9082 149.963 21.9459 154 26.9087 154ZM131.581 9.00024V13.9306H40.4408V4.5117H127.093C129.567 4.5117 131.581 6.52452 131.581 9.00024ZM22.4199 9.00024C22.4199 6.98923 23.7491 5.2829 25.5754 4.71383C25.9968 4.58238 26.4446 4.5117 26.9087 4.5117H35.9291V13.9306H22.4199V9.00024Z" fill="#0054A6"/>
</g>
<defs>
<clipPath id="clip0">
<rect width="154" height="154" fill="white"/>
</clipPath>
</defs>
</svg>
