<svg width="138" height="138" viewBox="0 0 138 138" fill="none" xmlns="http://www.w3.org/2000/svg">
<g clip-path="url(#clip0)">
<path d="M111.747 70.9795H117.753C118.693 75.6302 122.811 79.1428 127.735 79.1428C133.35 79.1428 137.918 74.5745 137.918 68.9592C137.918 63.3438 133.35 58.7756 127.735 58.7756C122.811 58.7756 118.693 62.2882 117.753 66.9389H111.747C111.266 56.6481 107.14 47.2944 100.63 40.1455L111.449 29.3268C113.578 30.8775 116.197 31.7958 119.027 31.7958C126.143 31.7958 131.932 26.0068 131.932 18.891C131.932 11.7753 126.143 5.98652 119.027 5.98652C111.912 5.98652 106.123 11.7756 106.123 18.891C106.123 21.7213 107.041 24.3399 108.592 26.4695L97.7728 37.2883C90.6239 30.7787 81.2703 26.6516 70.9795 26.1716V20.1652C75.6302 19.2253 79.1428 15.1072 79.1428 10.1836C79.1428 4.56828 74.5745 0 68.9592 0C63.3438 0 58.7756 4.56828 58.7756 10.1836C58.7756 15.1072 62.2882 19.2253 66.9389 20.1652V26.1714C56.6481 26.6516 47.2944 30.7784 40.1455 37.2881L29.3273 26.4701C30.8784 24.3402 31.7966 21.7213 31.7966 18.891C31.7966 14.594 29.6683 10.5925 26.1035 8.18702C25.1779 7.56315 23.9224 7.80666 23.2988 8.73169C22.6746 9.65671 22.9184 10.9122 23.8432 11.5364C26.2934 13.1895 27.7558 15.939 27.7558 18.891C27.7558 23.7791 23.7788 27.7561 18.8908 27.7561C14.0028 27.7561 10.026 23.7791 10.026 18.891C10.026 14.9437 12.6753 11.4351 16.4686 10.359C17.542 10.0543 18.1654 8.93722 17.8607 7.86377C17.556 6.79032 16.4384 6.1678 15.3658 6.47166C9.84257 8.03886 5.98544 13.1459 5.98544 18.891C5.98544 26.0073 11.7748 31.7966 18.891 31.7966C21.7216 31.7966 24.3404 30.8784 26.4701 29.3273L37.2883 40.1453C30.7784 47.2941 26.6516 56.6478 26.1714 66.9386H20.1652C19.2253 62.2879 15.1072 58.7753 10.1836 58.7753C4.56828 58.7756 0 63.3438 0 68.9592C0 74.5745 4.56828 79.1428 10.1836 79.1428C15.1072 79.1428 19.2253 75.6302 20.1652 70.9795H26.1716C26.6519 81.2703 30.7787 90.6239 37.2886 97.7728L26.4695 108.592C24.3399 107.041 21.7213 106.123 18.891 106.123C11.7753 106.123 5.98652 111.912 5.98652 119.027C5.98652 126.143 11.7753 131.932 18.891 131.932C26.0068 131.932 31.7956 126.143 31.7956 119.027C31.7956 116.197 30.8775 113.578 29.3265 111.449L40.1455 100.63C47.2944 107.14 56.6481 111.267 66.9389 111.747V117.753C62.2882 118.693 58.7756 122.811 58.7756 127.734C58.7756 133.35 63.3438 137.918 68.9592 137.918C74.5745 137.918 79.1428 133.35 79.1428 127.735C79.1428 122.811 75.6302 118.693 70.9795 117.753V111.747C81.2703 111.267 90.6239 107.14 97.7728 100.63L108.591 111.448C107.04 113.578 106.122 116.197 106.122 119.027C106.122 126.143 111.911 131.933 119.027 131.933C126.144 131.933 131.933 126.144 131.933 119.027C131.933 117.63 131.71 116.255 131.272 114.938C130.918 113.879 129.774 113.307 128.716 113.66C127.658 114.013 127.086 115.157 127.438 116.215C127.74 117.119 127.893 118.065 127.893 119.027C127.893 123.915 123.916 127.892 119.028 127.892C114.14 127.892 110.163 123.915 110.163 119.027C110.163 114.139 114.14 110.162 119.028 110.162C120.146 110.162 121.237 110.368 122.27 110.774C123.307 111.182 124.481 110.671 124.889 109.632C125.297 108.594 124.786 107.421 123.748 107.013C122.243 106.422 120.655 106.121 119.028 106.121C116.197 106.121 113.578 107.04 111.449 108.591L100.631 97.7728C107.14 90.6239 111.267 81.2703 111.747 70.9795ZM127.735 62.8161C131.122 62.8161 133.878 65.5718 133.878 68.9592C133.878 72.3465 131.122 75.1022 127.735 75.1022C124.347 75.1022 121.592 72.3465 121.592 68.9592C121.592 65.5718 124.348 62.8161 127.735 62.8161ZM119.027 10.0271C123.915 10.0271 127.891 14.0036 127.891 18.891C127.891 23.7788 123.915 27.7553 119.027 27.7553C114.14 27.7553 110.163 23.7788 110.163 18.891C110.163 14.0033 114.14 10.0271 119.027 10.0271ZM62.8161 10.1836C62.8161 6.79625 65.5721 4.04058 68.9592 4.04058C72.3462 4.04058 75.1022 6.79625 75.1022 10.1836C75.1022 13.5709 72.3462 16.3266 68.9592 16.3266C65.5721 16.3266 62.8161 13.5707 62.8161 10.1836ZM10.1836 75.1022C6.79625 75.1022 4.04058 72.3465 4.04058 68.9592C4.04058 65.5718 6.79625 62.8161 10.1836 62.8161C13.5709 62.8161 16.3264 65.5718 16.3264 68.9592C16.3264 72.3465 13.5707 75.1022 10.1836 75.1022ZM68.9592 30.1632C90.3513 30.1632 107.755 47.567 107.755 68.9592C107.755 90.3513 90.3513 107.755 68.9592 107.755C47.567 107.755 30.1632 90.3516 30.1632 68.9592C30.1632 47.5667 47.567 30.1632 68.9592 30.1632ZM18.891 127.891C14.0033 127.891 10.0271 123.915 10.0271 119.027C10.0271 114.14 14.0036 110.163 18.891 110.163C23.7785 110.163 27.755 114.14 27.755 119.027C27.755 123.915 23.7785 127.891 18.891 127.891ZM75.1022 127.735C75.1022 131.122 72.3462 133.878 68.9592 133.878C65.5721 133.878 62.8161 131.122 62.8161 127.735C62.8161 124.347 65.5721 121.592 68.9592 121.592C72.3462 121.592 75.1022 124.348 75.1022 127.735Z" fill="white"/>
<path d="M46.1018 93.8352H57.511C57.5172 93.8352 57.5231 93.836 57.5293 93.836C57.5355 93.836 57.5415 93.8352 57.5477 93.8352H64.244C65.36 93.8352 66.2643 92.9306 66.2643 91.8149C66.2643 90.6991 65.36 89.7946 64.244 89.7946H59.5496V86.3736C59.5496 85.2578 58.6453 84.3533 57.5293 84.3533C56.4133 84.3533 55.5091 85.2578 55.5091 86.3736V89.7946H48.1221V79.844C48.1221 74.956 52.0977 70.979 56.9841 70.979H80.9313C85.818 70.979 89.7933 74.956 89.7933 79.844V89.7946H82.4064V86.3736C82.4064 85.2578 81.5021 84.3533 80.3861 84.3533C79.2701 84.3533 78.3658 85.2578 78.3658 86.3736V89.7946H73.672C72.556 89.7946 71.6517 90.6991 71.6517 91.8149C71.6517 92.9306 72.556 93.8352 73.672 93.8352H80.3683C80.3745 93.8352 80.3804 93.836 80.3866 93.836C80.3928 93.836 80.3987 93.8352 80.4049 93.8352H91.8142C92.9302 93.8352 93.8345 92.9306 93.8345 91.8149V79.844C93.8345 72.7277 88.0465 66.9384 80.9318 66.9384H79.432C82.5938 64.0771 84.584 59.9433 84.584 55.3533C84.584 46.7371 77.5744 39.7275 68.9583 39.7275C60.3421 39.7275 53.3325 46.7371 53.3325 55.3533C53.3325 59.9433 55.3226 64.0771 58.4845 66.9384H56.9847C49.87 66.9384 44.082 72.7277 44.082 79.844V91.8149C44.0815 92.9306 44.986 93.8352 46.1018 93.8352ZM57.3728 55.3533C57.3728 48.9654 62.5698 43.7681 68.958 43.7681C75.3461 43.7681 80.5431 48.9651 80.5431 55.3533C80.5431 61.7414 75.3461 66.9384 68.958 66.9384C62.5698 66.9384 57.3728 61.7414 57.3728 55.3533Z" fill="white"/>
</g>
<defs>
<clipPath id="clip0">
<rect width="137.918" height="137.918" fill="white"/>
</clipPath>
</defs>
</svg>
