<svg width="179" height="108" viewBox="0 0 179 108" fill="none" xmlns="http://www.w3.org/2000/svg">
<path d="M37.8781 97.7056L39.3455 98.6817C39.9175 99.0622 53.7663 108 89.5 108C125.234 108 139.082 99.0622 139.654 98.6817L141.122 97.7056V42.3596L160.892 35.7851V66.8207C155.827 68.2557 152.105 72.9083 152.105 78.4147V94.851H176.269V78.4147C176.269 72.9083 172.547 68.2557 167.482 66.8207V33.5936L179 29.7633L144.395 18.2552L142.311 24.4923L158.161 29.7628L89.5 52.5961L20.8394 29.7633L89.5 6.93042L136.059 22.4138L138.144 16.1768L89.5 0L0 29.7633L37.8781 42.3596V97.7056ZM169.679 78.4147V88.2765H158.695V78.4147C158.695 75.3935 161.159 72.9359 164.187 72.9359C167.215 72.9359 169.679 75.3935 169.679 78.4147ZM44.4682 44.5511L89.5 59.5265L134.532 44.5511V70.3061H126.404V76.8806H134.532V83.4551H120.253V90.0297H134.532V93.9928C130.285 96.0559 116.622 101.425 89.5 101.425C62.357 101.425 48.6937 96.0475 44.4682 93.9945V44.5511Z" fill="#0054A6"/>
</svg>
