<svg width="13" height="9" viewBox="0 0 13 9" fill="none" xmlns="http://www.w3.org/2000/svg">
<path fill-rule="evenodd" clip-rule="evenodd" d="M0.666341 4.14817C0.666341 4.03358 0.710237 3.92369 0.788372 3.84267C0.866508 3.76165 0.972482 3.71613 1.08298 3.71613H10.9099L8.28752 0.997744C8.24878 0.957575 8.21806 0.909888 8.19709 0.857404C8.17613 0.804921 8.16534 0.748669 8.16534 0.691861C8.16534 0.635053 8.17613 0.578802 8.19709 0.526319C8.21806 0.473835 8.24878 0.426147 8.28752 0.385978C8.32626 0.345809 8.37225 0.313945 8.42286 0.292206C8.47347 0.270466 8.52772 0.259277 8.5825 0.259277C8.63729 0.259277 8.69153 0.270466 8.74215 0.292206C8.79276 0.313945 8.83875 0.345809 8.87748 0.385978L12.2106 3.84228C12.2494 3.88242 12.2802 3.93009 12.3012 3.98258C12.3222 4.03507 12.333 4.09134 12.333 4.14817C12.333 4.20499 12.3222 4.26126 12.3012 4.31375C12.2802 4.36624 12.2494 4.41392 12.2106 4.45405L8.87748 7.91035C8.83875 7.95052 8.79276 7.98239 8.74215 8.00413C8.69153 8.02587 8.63729 8.03706 8.5825 8.03706C8.52772 8.03706 8.47347 8.02587 8.42286 8.00413C8.37225 7.98239 8.32626 7.95052 8.28752 7.91035C8.24878 7.87019 8.21806 7.8225 8.19709 7.77001C8.17613 7.71753 8.16534 7.66128 8.16534 7.60447C8.16534 7.54766 8.17613 7.49141 8.19709 7.43893C8.21806 7.38645 8.24878 7.33876 8.28752 7.29859L10.9099 4.5802H1.08298C0.972482 4.5802 0.866508 4.53469 0.788372 4.45366C0.710237 4.37264 0.666341 4.26275 0.666341 4.14817Z" fill="#1D1D1D"/>
</svg>
