<svg width="35" height="35" viewBox="0 0 35 35" fill="none" xmlns="http://www.w3.org/2000/svg">
<circle cx="17.5" cy="17.5" r="17.5" fill="#ED1A3B"/>
<path fill-rule="evenodd" clip-rule="evenodd" d="M11.9998 18.0349C11.9998 17.916 12.0438 17.802 12.1222 17.7179C12.2006 17.6339 12.307 17.5867 12.4179 17.5867H22.2789L19.6475 14.7662C19.6086 14.7245 19.5778 14.675 19.5567 14.6206C19.5357 14.5661 19.5249 14.5078 19.5249 14.4488C19.5249 14.3899 19.5357 14.3315 19.5567 14.2771C19.5778 14.2226 19.6086 14.1731 19.6475 14.1315C19.6863 14.0898 19.7325 14.0567 19.7833 14.0342C19.8341 14.0116 19.8885 14 19.9435 14C19.9985 14 20.0529 14.0116 20.1037 14.0342C20.1545 14.0567 20.2006 14.0898 20.2395 14.1315L23.5842 17.7175C23.6231 17.7592 23.654 17.8086 23.6751 17.8631C23.6962 17.9176 23.707 17.976 23.707 18.0349C23.707 18.0939 23.6962 18.1523 23.6751 18.2067C23.654 18.2612 23.6231 18.3106 23.5842 18.3523L20.2395 21.9384C20.2006 21.98 20.1545 22.0131 20.1037 22.0357C20.0529 22.0582 19.9985 22.0698 19.9435 22.0698C19.8885 22.0698 19.8341 22.0582 19.7833 22.0357C19.7325 22.0131 19.6863 21.98 19.6475 21.9384C19.6086 21.8967 19.5778 21.8472 19.5567 21.7928C19.5357 21.7383 19.5249 21.6799 19.5249 21.621C19.5249 21.5621 19.5357 21.5037 19.5567 21.4492C19.5778 21.3948 19.6086 21.3453 19.6475 21.3036L22.2789 18.4832H12.4179C12.307 18.4832 12.2006 18.4359 12.1222 18.3519C12.0438 18.2678 11.9998 18.1538 11.9998 18.0349Z" fill="white"/>
</svg>
