<svg width="60" height="59" viewBox="0 0 60 59" fill="none" xmlns="http://www.w3.org/2000/svg">
<g filter="url(#filter0_d)">
<ellipse cx="28.8198" cy="27.5" rx="17.8198" ry="17.5" fill="white"/>
<path d="M46.1397 27.5C46.1397 36.8803 38.3939 44.5 28.8198 44.5C19.2458 44.5 11.5 36.8803 11.5 27.5C11.5 18.1197 19.2458 10.5 28.8198 10.5C38.3939 10.5 46.1397 18.1197 46.1397 27.5Z" stroke="#DFDDDD"/>
</g>
<path d="M30.4099 26.9999L34.7099 22.7099C34.8982 22.5216 35.004 22.2662 35.004 21.9999C35.004 21.7336 34.8982 21.4782 34.7099 21.2899C34.5216 21.1016 34.2662 20.9958 33.9999 20.9958C33.7336 20.9958 33.4782 21.1016 33.2899 21.2899L28.9999 25.5899L24.7099 21.2899C24.5216 21.1016 24.2662 20.9958 23.9999 20.9958C23.7336 20.9958 23.4782 21.1016 23.2899 21.2899C23.1016 21.4782 22.9958 21.7336 22.9958 21.9999C22.9958 22.2662 23.1016 22.5216 23.2899 22.7099L27.5899 26.9999L23.2899 31.2899C23.1962 31.3829 23.1218 31.4935 23.071 31.6154C23.0203 31.7372 22.9941 31.8679 22.9941 31.9999C22.9941 32.132 23.0203 32.2627 23.071 32.3845C23.1218 32.5064 23.1962 32.617 23.2899 32.7099C23.3829 32.8037 23.4935 32.8781 23.6154 32.9288C23.7372 32.9796 23.8679 33.0057 23.9999 33.0057C24.132 33.0057 24.2627 32.9796 24.3845 32.9288C24.5064 32.8781 24.617 32.8037 24.7099 32.7099L28.9999 28.4099L33.2899 32.7099C33.3829 32.8037 33.4935 32.8781 33.6154 32.9288C33.7372 32.9796 33.8679 33.0057 33.9999 33.0057C34.132 33.0057 34.2627 32.9796 34.3845 32.9288C34.5064 32.8781 34.617 32.8037 34.7099 32.7099C34.8037 32.617 34.8781 32.5064 34.9288 32.3845C34.9796 32.2627 35.0057 32.132 35.0057 31.9999C35.0057 31.8679 34.9796 31.7372 34.9288 31.6154C34.8781 31.4935 34.8037 31.3829 34.7099 31.2899L30.4099 26.9999Z" fill="#ED1A3B"/>
<defs>
<filter id="filter0_d" x="0" y="0" width="59.6397" height="59" filterUnits="userSpaceOnUse" color-interpolation-filters="sRGB">
<feFlood flood-opacity="0" result="BackgroundImageFix"/>
<feColorMatrix in="SourceAlpha" type="matrix" values="0 0 0 0 0 0 0 0 0 0 0 0 0 0 0 0 0 0 127 0"/>
<feOffset dx="1" dy="2"/>
<feGaussianBlur stdDeviation="6"/>
<feColorMatrix type="matrix" values="0 0 0 0 0 0 0 0 0 0 0 0 0 0 0 0 0 0 0.1 0"/>
<feBlend mode="normal" in2="BackgroundImageFix" result="effect1_dropShadow"/>
<feBlend mode="normal" in="SourceGraphic" in2="effect1_dropShadow" result="shape"/>
</filter>
</defs>
</svg>
