<svg width="28" height="28" viewBox="0 0 28 28" fill="none" xmlns="http://www.w3.org/2000/svg">
<path d="M23.884 4.08178C21.1618 1.37356 17.836 0 14 0C10.1282 0 6.79311 1.37511 4.08644 4.08333C1.37511 6.79156 0 10.1298 0 14C0 17.8344 1.37356 21.1602 4.08178 23.884C6.79 26.6156 10.1267 28 14 28C17.8376 28 21.1633 26.6156 23.8871 23.8887C26.6171 21.1618 28 17.8344 28 14C28 10.1298 26.6156 6.79156 23.884 4.08178ZM21.6876 21.6891C19.9189 23.4609 17.8982 24.4704 15.5556 24.7769V17.1111H18.6667V14H15.5556V11.8222C15.5556 11.6995 15.5797 11.578 15.6267 11.4647C15.6738 11.3514 15.7426 11.2484 15.8295 11.1617C15.9163 11.075 16.0194 11.0063 16.1328 10.9595C16.2462 10.9127 16.3677 10.8887 16.4904 10.8889H18.6667V7.77778H16.4936C15.3393 7.77778 14.3764 8.20244 13.6049 9.05644C12.8333 9.90733 12.4444 10.9464 12.4444 12.18V14H9.33333V17.1111H12.4444V24.78C10.0769 24.4767 8.04844 23.4656 6.28911 21.6938C4.15022 19.5409 3.11111 17.024 3.11111 14C3.11111 10.9418 4.14867 8.41867 6.28756 6.28444C8.41867 4.14867 10.9418 3.11111 14 3.11111C17.0256 3.11111 19.5409 4.15022 21.6922 6.28911C23.8436 8.42333 24.8889 10.9464 24.8889 14C24.8889 17.0193 23.842 19.5362 21.6876 21.6891Z" fill="white"/>
</svg>
