<svg width="28" height="28" viewBox="0 0 28 28" fill="none" xmlns="http://www.w3.org/2000/svg">
<path fill-rule="evenodd" clip-rule="evenodd" d="M14 24.8889C20.0138 24.8889 24.8889 20.0138 24.8889 14C24.8889 7.98623 20.0138 3.11111 14 3.11111C7.98623 3.11111 3.11111 7.98623 3.11111 14C3.11111 20.0138 7.98623 24.8889 14 24.8889ZM14 28C21.732 28 28 21.732 28 14C28 6.26801 21.732 0 14 0C6.26801 0 0 6.26801 0 14C0 21.732 6.26801 28 14 28Z" fill="white"/>
<g clip-path="url(#clip0)">
<path d="M13.9996 16.1862C13.9228 16.1862 13.8461 16.1621 13.7814 16.1137L9.96484 13.2632V18.7397H18.0343V13.2632L14.2177 16.1138C14.153 16.1621 14.0763 16.1862 13.9996 16.1862Z" fill="white"/>
<path d="M9.23568 12.7186L7.77734 11.6294V17.6459C7.77734 18.249 8.268 18.7397 8.87109 18.7397H9.23568V12.7186Z" fill="white"/>
<path d="M18.7637 12.7186V18.7397H19.1283C19.7313 18.7397 20.222 18.249 20.222 17.6459V11.6294L18.7637 12.7186Z" fill="white"/>
<path d="M18.5212 9.26041H9.47852L13.9999 12.6337L18.5212 9.26041Z" fill="white"/>
<path d="M19.5979 9.36664L14.2176 13.3807C14.1529 13.429 14.0762 13.4531 13.9996 13.4531C13.9229 13.4531 13.8462 13.429 13.7815 13.3807L8.40127 9.36664C8.03265 9.54273 7.77734 9.91915 7.77734 10.3541V10.7635C7.82882 10.7738 7.87892 10.795 7.92376 10.8285L13.9996 15.3665L20.0754 10.8285C20.1202 10.7951 20.1703 10.7738 20.2218 10.7635V10.3541C20.2218 9.91915 19.9665 9.54271 19.5979 9.36664Z" fill="white"/>
</g>
<defs>
<clipPath id="clip0">
<rect width="12.4444" height="12.4444" fill="white" transform="translate(7.77734 7.77777)"/>
</clipPath>
</defs>
</svg>
