<svg width="128" height="116" viewBox="0 0 128 116" fill="none" xmlns="http://www.w3.org/2000/svg">
<path d="M121.555 8.89019H107.699V2.95204C107.699 1.85893 106.813 0.972656 105.72 0.972656C104.627 0.972656 103.74 1.85893 103.74 2.95204V8.89019H91.8641V2.95204C91.8641 1.85893 90.9779 0.972656 89.8848 0.972656C88.7916 0.972656 87.9054 1.85893 87.9054 2.95204V8.89019H40.4002V2.95204C40.4002 1.85893 39.5139 0.972656 38.4208 0.972656C37.3277 0.972656 36.4414 1.85893 36.4414 2.95204V8.89019H24.5651V2.95204C24.5651 1.85893 23.6788 0.972656 22.5857 0.972656C21.4926 0.972656 20.6063 1.85893 20.6063 2.95204V8.89019H6.75065C3.47626 8.89019 0.8125 11.5539 0.8125 14.8283V109.839C0.8125 113.113 3.47626 115.777 6.75065 115.777H121.555C124.829 115.777 127.493 113.113 127.493 109.839C127.493 107.128 127.493 17.091 127.493 14.8283C127.493 11.5539 124.829 8.89019 121.555 8.89019ZM4.77127 14.8283C4.77127 13.737 5.65927 12.849 6.75065 12.849H20.6063V17.1482C18.3026 17.9652 16.6476 20.1655 16.6476 22.7459C16.6476 26.0203 19.3113 28.684 22.5857 28.684C25.8601 28.684 28.5239 26.0203 28.5239 22.7459C28.5239 20.1655 26.8689 17.9652 24.5651 17.1482V12.849H36.4414V17.1482C34.1376 17.9652 32.4826 20.1655 32.4826 22.7459C32.4826 26.0203 35.1464 28.684 38.4208 28.684C41.6952 28.684 44.3589 26.0203 44.3589 22.7459C44.3589 20.1655 42.7039 17.9652 40.4002 17.1482V12.849H87.9054V17.1482C85.6016 17.9652 83.9466 20.1655 83.9466 22.7459C83.9466 26.0203 86.6104 28.684 89.8848 28.684C93.1591 28.684 95.8229 26.0203 95.8229 22.7459C95.8229 20.1655 94.1679 17.9652 91.8641 17.1482V12.849H103.74V17.1482C101.437 17.9652 99.7817 20.1655 99.7817 22.7459C99.7817 26.0203 102.445 28.684 105.72 28.684C108.994 28.684 111.658 26.0203 111.658 22.7459C111.658 20.1655 110.003 17.9652 107.699 17.1482V12.849H121.555C122.646 12.849 123.534 13.737 123.534 14.8283V32.6428H4.77127V14.8283ZM22.5857 20.7665C23.6771 20.7665 24.5651 21.6545 24.5651 22.7459C24.5651 23.8373 23.6771 24.7253 22.5857 24.7253C21.4943 24.7253 20.6063 23.8373 20.6063 22.7459C20.6063 21.6545 21.4943 20.7665 22.5857 20.7665ZM38.4208 20.7665C39.5122 20.7665 40.4002 21.6545 40.4002 22.7459C40.4002 23.8373 39.5122 24.7253 38.4208 24.7253C37.3294 24.7253 36.4414 23.8373 36.4414 22.7459C36.4414 21.6545 37.3294 20.7665 38.4208 20.7665ZM89.8848 20.7665C90.9761 20.7665 91.8641 21.6545 91.8641 22.7459C91.8641 23.8373 90.9761 24.7253 89.8848 24.7253C88.7934 24.7253 87.9054 23.8373 87.9054 22.7459C87.9054 21.6545 88.7934 20.7665 89.8848 20.7665ZM105.72 20.7665C106.811 20.7665 107.699 21.6545 107.699 22.7459C107.699 23.8373 106.811 24.7253 105.72 24.7253C104.628 24.7253 103.74 23.8373 103.74 22.7459C103.74 21.6545 104.628 20.7665 105.72 20.7665ZM123.534 109.839C123.534 110.93 122.646 111.818 121.555 111.818H6.75065C5.65927 111.818 4.77127 110.93 4.77127 109.839V36.6016H123.534V109.839Z" fill="#0054A6"/>
<path d="M76.0289 20.7666H52.2763C51.1831 20.7666 50.2969 21.6529 50.2969 22.746C50.2969 23.8391 51.1831 24.7254 52.2763 24.7254H76.0289C77.122 24.7254 78.0082 23.8391 78.0082 22.746C78.0082 21.6529 77.122 20.7666 76.0289 20.7666Z" fill="#0054A6"/>
<path d="M64.1545 42.54C46.6914 42.54 32.4844 56.7471 32.4844 74.2102C32.4844 91.6733 46.6914 105.88 64.1545 105.88C81.6176 105.88 95.8246 91.6733 95.8246 74.2102C95.8246 56.7471 81.6176 42.54 64.1545 42.54ZM91.8659 74.2102H89.2778C88.0571 74.2102 86.9748 73.4776 86.521 72.3444L85.2003 69.0423C84.6436 67.6485 83.433 66.6358 81.9618 66.3335C80.4909 66.0316 78.9784 66.4841 77.9169 67.5453L75.5268 69.9354C74.8442 70.6181 73.9057 70.9207 72.9534 70.7663C71.9996 70.6117 71.2043 70.0272 70.7718 69.1632L67.2931 62.2057C66.1119 59.8431 63.7374 58.3751 61.0964 58.3751H56.8506C54.1111 58.3751 51.79 56.3255 51.4516 53.607L50.9805 49.8358C54.9009 47.7082 59.3891 46.4988 64.1545 46.4988C79.4346 46.4988 91.8659 58.9301 91.8659 74.2102ZM37.6441 66.1363L40.0211 67.3254C40.5917 67.6107 41.063 68.082 41.3483 68.6528L43.7508 73.458C44.0675 74.0917 44.1474 74.8188 43.9757 75.5059L43.1199 78.9293C42.533 81.2766 43.2312 83.7976 44.9421 85.5082L45.9259 86.492C46.0912 86.6573 46.0874 86.8411 46.055 86.9661C46.0226 87.091 45.9368 87.2536 45.7121 87.3177L40.5932 88.7804C37.964 84.5445 36.4431 79.552 36.4431 74.2102C36.4431 71.4027 36.8643 68.6919 37.6441 66.1363ZM43.083 92.1864L46.7998 91.1245C48.3331 90.6863 49.4873 89.5031 49.8874 87.9595C50.2874 86.4158 49.853 84.8209 48.7252 83.6932L47.7415 82.7094C47.0083 81.976 46.709 80.8958 46.9606 79.8898L47.8164 76.4662C48.2173 74.8629 48.0309 73.166 47.2919 71.6877L44.8892 66.8822C44.2234 65.5506 43.1233 64.4503 41.7922 63.7845L39.0772 62.4264C40.9725 58.4092 43.8047 54.9186 47.2907 52.2368L47.523 54.0967C48.1081 58.7928 52.1181 62.3339 56.8506 62.3339H61.0964C62.2281 62.3339 63.246 62.9631 63.7522 63.9763L67.2312 70.9345C68.2402 72.9505 70.0949 74.3136 72.3197 74.6743C74.5433 75.0353 76.733 74.3279 78.3259 72.735L80.716 70.3449C80.8707 70.1903 81.0453 70.1871 81.1646 70.2113C81.2836 70.2358 81.4427 70.3076 81.5241 70.5117L82.8456 73.8155C83.9048 76.46 86.4295 78.1689 89.2778 78.1689H91.5818C91.3874 79.5223 91.0947 80.8443 90.7114 82.1277H76.5257C74.3565 82.1277 72.2846 83.1637 70.9834 84.8988L68.0143 88.8576C67.4566 89.6011 66.5689 90.0452 65.639 90.0452H59.5005C56.7256 90.0452 54.2267 91.6933 53.1336 94.2435L51.2187 98.7105C48.1101 97.0627 45.3509 94.8408 43.083 92.1864ZM64.1545 101.922C60.8883 101.922 57.7529 101.352 54.8405 100.309L56.7722 95.803C57.2405 94.7102 58.3114 94.004 59.5005 94.004H65.639C67.8082 94.004 69.8801 92.968 71.1813 91.2329L74.1504 87.2741C74.7081 86.5306 75.5961 86.0865 76.5257 86.0865H89.1885C84.7329 95.4405 75.1869 101.922 64.1545 101.922Z" fill="#0054A6"/>
</svg>
