<svg width="210" height="88" viewBox="0 0 210 88" fill="none" xmlns="http://www.w3.org/2000/svg">
<path d="M89.2296 32.3991C86.2028 29.3768 82.6861 26.9775 78.6706 25.2041C74.6581 23.4307 70.3817 22.544 65.8444 22.544C61.3071 22.544 57.0743 23.4307 53.1487 25.2041C49.2231 26.9775 45.805 29.3768 42.897 32.3991C39.9862 35.4243 37.7045 38.9392 36.0461 42.9525C34.3878 46.9629 33.5586 51.208 33.5586 55.6849C33.5586 60.2198 34.3878 64.4505 36.0461 68.3739C37.5508 71.9352 39.5745 75.0734 42.1084 77.7943C37.0116 77.7943 33.1353 77.7972 33.0802 77.7972C29.9983 77.7972 27.1455 77.2003 24.5275 76.0094C21.9095 74.8155 19.6568 73.2044 17.7636 71.1702C15.8733 69.1331 14.3918 66.7657 13.3133 64.0622C12.2464 61.3847 11.71 58.5189 11.7013 55.4705V22.941H0.530559V55.3836C0.530559 55.3865 0.530559 55.3923 0.530559 55.3952V55.4705C0.542156 60.0286 1.42932 64.2882 3.19205 68.2464C4.96638 72.2279 7.33795 75.6732 10.3039 78.5796C13.2698 81.486 16.717 83.7839 20.6454 85.4703C24.571 87.1568 28.7169 88 33.0802 88C33.2426 88 66.404 87.9913 66.5634 87.9884V87.942C70.834 87.858 74.8726 87.0351 78.6735 85.4645C82.689 83.807 86.2057 81.5266 89.2325 78.6173C92.2564 75.7109 94.6425 72.2945 96.3878 68.371C98.1332 64.4476 99.0058 60.2169 99.0058 55.682C99.0058 51.2051 98.1332 46.96 96.3878 42.9496C94.6396 38.9392 92.2535 35.4243 89.2296 32.3991ZM86.2202 64.1868C85.0257 66.7744 83.4283 69.0143 81.422 70.9036C79.4157 72.7929 77.0732 74.2765 74.3972 75.3516C71.7212 76.4266 68.8683 76.9656 65.8444 76.9656C62.8176 76.9656 60.0112 76.4295 57.4251 75.3516C54.8361 74.2765 52.5949 72.7929 50.7047 70.9036C48.8144 69.0143 47.3299 66.7744 46.2543 64.1868C45.1758 61.5991 44.6395 58.7652 44.6395 55.6849C44.6395 52.6626 45.1758 49.8142 46.2543 47.1396C47.3299 44.4651 48.8144 42.1237 50.7047 40.1185C52.5949 38.1133 54.8361 36.5283 57.4251 35.3663C60.0141 34.2044 62.8205 33.6219 65.8444 33.6219C68.8683 33.6219 71.7183 34.2044 74.3972 35.3663C77.0732 36.5312 79.4157 38.1133 81.422 40.1185C83.4283 42.1237 85.0286 44.4651 86.2202 47.1396C87.4118 49.8142 88.0091 52.6626 88.0091 55.6849C88.0091 58.7681 87.4118 61.602 86.2202 64.1868ZM206.947 41.9064C205.144 38.0699 202.729 34.7114 199.705 31.834C196.678 28.9566 193.161 26.6877 189.146 25.0303C185.133 23.3728 180.825 22.544 176.233 22.544C171.637 22.544 167.361 23.3873 163.406 25.0737C159.449 26.7602 156.005 29.0725 153.068 32.0079C150.131 34.9433 147.817 38.4176 146.13 42.4309C144.443 46.4413 143.599 50.7473 143.599 55.3372C143.599 59.9301 144.443 64.2042 146.13 68.1566C147.817 72.112 150.128 75.5544 153.068 78.4898C156.005 81.4251 159.452 83.7375 163.406 85.424C167.361 87.1104 171.637 87.9536 176.233 87.9536C180.886 87.9536 185.032 87.2437 188.667 85.818C192.303 84.3953 195.692 82.4017 198.832 79.843V87.9536H210V55.3372V54.2042C209.768 49.8403 208.748 45.743 206.947 41.9064ZM198.832 57.6322C198.539 60.4227 197.786 63.0683 196.562 65.569C195.341 68.0697 193.741 70.2487 191.764 72.1091C189.787 73.9694 187.473 75.4385 184.826 76.5135C182.179 77.5886 179.315 78.1276 176.23 78.1276C173.145 78.1276 170.31 77.5306 167.723 76.3397C165.134 75.1487 162.882 73.5347 160.96 71.5005C159.04 69.4664 157.541 67.0961 156.466 64.3925C155.39 61.689 154.851 58.7971 154.851 55.7139C154.851 52.6337 155.387 49.7273 156.466 46.9919C157.541 44.2593 159.04 41.8601 160.96 39.7969C162.879 37.7337 165.132 36.1052 167.723 34.9143C170.312 33.7233 173.148 33.1264 176.23 33.1264C179.312 33.1264 182.22 33.7233 184.956 34.9143C187.69 36.1052 190.091 37.6903 192.155 39.6665C194.219 41.6427 195.849 43.9261 197.04 46.5137C198.232 49.1014 198.829 51.7904 198.829 54.5809V57.6322H198.832ZM0 6.96315C0 3.5207 2.79486 0.727321 6.23915 0.727321C9.68633 0.727321 12.4783 3.5207 12.4783 6.96315C12.4783 10.4056 9.68343 13.199 6.23915 13.199C2.79486 13.2019 0 10.4085 0 6.96315ZM130.318 48.0205L156.616 87.9536H140.937L126.778 64.4476C124.081 60.0663 120.878 57.8756 117.17 57.8756C113.798 58.0437 112.113 59.8982 112.113 63.4363V87.9507H100.229V0H104.529C109.585 0 112.116 2.44275 112.116 7.32826V50.5473L138.667 21.9877H154.851L130.318 48.0205Z" fill="url(#paint0_linear)"/>
<defs>
<linearGradient id="paint0_linear" x1="-3.29918" y1="10.6358" x2="235.506" y2="109.22" gradientUnits="userSpaceOnUse">
<stop offset="0.1237" stop-color="#F7E700"/>
<stop offset="0.494792" stop-color="#00F4F4"/>
<stop offset="0.8233" stop-color="#00A5FE"/>
</linearGradient>
</defs>
</svg>
