<svg width="72" height="72" viewBox="0 0 72 72" fill="none" xmlns="http://www.w3.org/2000/svg">
<circle cx="36" cy="36" r="36" fill="#ED1A3B"/>
<path d="M49.904 34.6855L52.9089 29.9625C53.1675 30.0465 53.4398 30.0938 53.7188 30.0938C55.1664 30.0938 56.3438 28.9164 56.3438 27.4688C56.3438 26.0211 55.1664 24.8438 53.7188 24.8438C52.2711 24.8438 51.0938 26.0211 51.0938 27.4688C51.0938 28.1493 51.351 28.7858 51.7992 29.2629L48.7647 34.0312H40.2958L34.826 25.523L38.3212 20.7172C38.6224 20.8367 38.9446 20.9062 39.2812 20.9062C40.7289 20.9062 41.9062 19.7289 41.9062 18.2812C41.9062 16.8336 40.7289 15.6562 39.2812 15.6562C37.8336 15.6562 36.6562 16.8336 36.6562 18.2812C36.6562 18.9014 36.8774 19.4927 37.2567 19.9501L33.6972 24.8438H27.3756C27.0822 23.7143 26.0637 22.875 24.8438 22.875C23.3961 22.875 22.2188 24.0523 22.2188 25.5C22.2188 26.1733 22.4727 26.8053 22.9177 27.2824L20.1188 31.6366C19.7434 31.4902 19.3457 31.4062 18.9375 31.4062C17.1282 31.4062 15.6562 32.8782 15.6562 34.6875C15.6562 36.4968 17.1282 37.9688 18.9375 37.9688C19.3463 37.9688 19.7447 37.8848 20.1194 37.7391L24.049 43.852L20.5538 48.6577C20.2526 48.5383 19.9304 48.4688 19.5938 48.4688C18.1461 48.4688 16.9688 49.6461 16.9688 51.0938C16.9688 52.5414 18.1461 53.7188 19.5938 53.7188C21.0414 53.7188 22.2188 52.5414 22.2188 51.0938C22.2188 50.4736 21.9976 49.8823 21.6183 49.4249L25.1778 44.5312H33.6729L38.3914 51.8708C38.1302 52.2107 37.9688 52.6261 37.9688 53.0625C37.9688 54.1479 38.8521 55.0312 39.9375 55.0312C40.7919 55.0312 41.5138 54.4807 41.7855 53.7188H45.91C46.2152 55.2143 47.5402 56.3438 49.125 56.3438C50.9343 56.3438 52.4062 54.8718 52.4062 53.0625C52.4062 52.1634 52.0394 51.328 51.4114 50.719L55.8109 43.875L49.904 34.6855ZM53.7188 26.1562C54.4426 26.1562 55.0312 26.7449 55.0312 27.4688C55.0312 28.1926 54.4426 28.7812 53.7188 28.7812C53.4641 28.7812 53.2226 28.7117 53.0126 28.5745C52.6333 28.3343 52.4062 27.9209 52.4062 27.4688C52.4062 26.7449 52.9949 26.1562 53.7188 26.1562ZM39.2812 16.9688C40.0051 16.9688 40.5938 17.5574 40.5938 18.2812C40.5938 19.0051 40.0051 19.5938 39.2812 19.5938C38.9991 19.5938 38.7372 19.5078 38.5049 19.3339C38.1696 19.0957 37.9688 18.7026 37.9688 18.2812C37.9688 17.5574 38.5574 16.9688 39.2812 16.9688ZM27.3756 26.1562H33.6729L39.1572 34.6875L33.6729 43.2188H25.2021L21.2239 37.0303C21.8526 36.4207 22.2188 35.5853 22.2188 34.6875C22.2188 33.7884 21.8519 32.953 21.2239 32.344L24.0247 27.9865C24.2892 28.0751 24.5642 28.125 24.8438 28.125C26.0637 28.125 27.0822 27.2857 27.3756 26.1562ZM24.8438 24.1875C25.5676 24.1875 26.1562 24.7762 26.1562 25.5C26.1562 26.2238 25.5676 26.8125 24.8438 26.8125C24.5924 26.8125 24.3542 26.7416 24.1337 26.6005C23.7563 26.3597 23.5312 25.9489 23.5312 25.5C23.5312 24.7762 24.1199 24.1875 24.8438 24.1875ZM16.9688 34.6875C16.9688 33.6021 17.8521 32.7188 18.9375 32.7188C19.3148 32.7188 19.6817 32.827 20.0013 33.0344C20.5676 33.3973 20.9062 34.0155 20.9062 34.6875C20.9062 35.3595 20.5676 35.9777 19.9973 36.3419C19.6817 36.548 19.3148 36.6562 18.9375 36.6562C17.8521 36.6562 16.9688 35.7729 16.9688 34.6875ZM19.5938 52.4062C18.8699 52.4062 18.2812 51.8176 18.2812 51.0938C18.2812 50.3699 18.8699 49.7812 19.5938 49.7812C19.8759 49.7812 20.1378 49.8672 20.3701 50.0411C20.7054 50.2793 20.9062 50.6724 20.9062 51.0938C20.9062 51.8176 20.3176 52.4062 19.5938 52.4062ZM39.9375 53.7188C39.5753 53.7188 39.2812 53.4248 39.2812 53.0625C39.2812 52.8413 39.3961 52.6313 39.5963 52.5034C39.6921 52.4391 39.8069 52.4062 39.9375 52.4062C40.2997 52.4062 40.5938 52.7002 40.5938 53.0625C40.5938 53.4248 40.2997 53.7188 39.9375 53.7188ZM45.91 52.4062H41.7855C41.5138 51.6443 40.7919 51.0938 39.9375 51.0938C39.7826 51.0938 39.633 51.1161 39.4873 51.1495L34.8115 43.875L40.2958 35.3438H48.7667L54.251 43.875L50.3062 50.0116C49.9309 49.8652 49.5332 49.7812 49.125 49.7812C47.5408 49.7812 46.2152 50.9107 45.91 52.4062ZM49.125 55.0312C48.0396 55.0312 47.1562 54.1479 47.1562 53.0625C47.1562 51.9771 48.0396 51.0938 49.125 51.0938C49.5023 51.0938 49.8692 51.202 50.1888 51.4094C50.7551 51.7723 51.0938 52.3905 51.0938 53.0625C51.0938 54.1479 50.2104 55.0312 49.125 55.0312Z" fill="white"/>
<path d="M24.8438 31.4062H30.0938V32.7188H24.8438V31.4062Z" fill="white"/>
<path d="M31.4062 31.4062H34.0312V32.7188H31.4062V31.4062Z" fill="white"/>
<path d="M24.8438 34.0312H34.0312V35.3438H24.8438V34.0312Z" fill="white"/>
<path d="M32.7188 36.6562H34.0312V37.9688H32.7188V36.6562Z" fill="white"/>
<path d="M30.0938 36.6562H31.4062V37.9688H30.0938V36.6562Z" fill="white"/>
<path d="M24.8438 36.6562H28.7812V37.9688H24.8438V36.6562Z" fill="white"/>
<path d="M39.9375 40.5938H45.1875V41.9062H39.9375V40.5938Z" fill="white"/>
<path d="M46.5 40.5938H49.125V41.9062H46.5V40.5938Z" fill="white"/>
<path d="M39.9375 43.2188H49.125V44.5312H39.9375V43.2188Z" fill="white"/>
<path d="M47.8125 45.8438H49.125V47.1562H47.8125V45.8438Z" fill="white"/>
<path d="M45.1875 45.8438H46.5V47.1562H45.1875V45.8438Z" fill="white"/>
<path d="M39.9375 45.8438H43.875V47.1562H39.9375V45.8438Z" fill="white"/>
</svg>
