<svg width="72" height="72" viewBox="0 0 72 72" fill="none" xmlns="http://www.w3.org/2000/svg">
<circle cx="36" cy="36" r="36" fill="#ED1A3B"/>
<circle cx="36" cy="36" r="36" fill="#ED1A3B"/>
<path d="M36 30.9375C33.2089 30.9375 30.9375 33.2089 30.9375 36C30.9375 38.7911 33.2089 41.0625 36 41.0625C38.7911 41.0625 41.0625 38.7911 41.0625 36C41.0625 33.2089 38.7911 30.9375 36 30.9375ZM36 39.9375C33.8288 39.9375 32.0625 38.1712 32.0625 36C32.0625 33.8288 33.8288 32.0625 36 32.0625C38.1712 32.0625 39.9375 33.8288 39.9375 36C39.9375 38.1712 38.1712 39.9375 36 39.9375Z" fill="white"/>
<path d="M48.375 27.5625H52.875C53.1855 27.5625 53.4375 27.3105 53.4375 27V22.5C53.4375 22.1895 53.1855 21.9375 52.875 21.9375H48.375C48.0645 21.9375 47.8125 22.1895 47.8125 22.5V24.1875H46.125C45.8145 24.1875 45.5625 24.4395 45.5625 24.75V35.4375H45V34.875C45 34.5932 44.7913 34.3547 44.5117 34.3176L43.0689 34.1252C42.903 33.4974 42.6527 32.8961 42.3219 32.3297L43.2084 31.1709C43.3794 30.9471 43.3586 30.6309 43.1595 30.4318L41.5682 28.8405C41.3691 28.6408 41.0524 28.62 40.8291 28.7916L39.6703 29.6781C39.1039 29.3479 38.5026 29.0976 37.8748 28.9311L37.6824 27.4882C37.6453 27.2087 37.4068 27 37.125 27H34.875C34.5932 27 34.3547 27.2087 34.3176 27.4882L34.1252 28.9311C33.4974 29.097 32.8961 29.3473 32.3297 29.6781L31.1709 28.7916C30.9471 28.6206 30.6309 28.6414 30.4318 28.8405L28.8405 30.4318C28.6414 30.6309 28.62 30.9476 28.7916 31.1709L29.6781 32.3297C29.3479 32.8961 29.0976 33.4974 28.9311 34.1252L27.4882 34.3176C27.2087 34.3547 27 34.5932 27 34.875V35.4375H26.4375V24.75C26.4375 24.4395 26.1855 24.1875 25.875 24.1875H24.1875V22.5C24.1875 22.1895 23.9355 21.9375 23.625 21.9375H19.125C18.8145 21.9375 18.5625 22.1895 18.5625 22.5V27C18.5625 27.3105 18.8145 27.5625 19.125 27.5625H23.625C23.9355 27.5625 24.1875 27.3105 24.1875 27V25.3125H25.3125V35.4375H24.1875V33.75C24.1875 33.4395 23.9355 33.1875 23.625 33.1875H19.125C18.8145 33.1875 18.5625 33.4395 18.5625 33.75V38.25C18.5625 38.5605 18.8145 38.8125 19.125 38.8125H23.625C23.9355 38.8125 24.1875 38.5605 24.1875 38.25V36.5625H25.3125V46.6875H24.1875V45C24.1875 44.6895 23.9355 44.4375 23.625 44.4375H19.125C18.8145 44.4375 18.5625 44.6895 18.5625 45V49.5C18.5625 49.8105 18.8145 50.0625 19.125 50.0625H23.625C23.9355 50.0625 24.1875 49.8105 24.1875 49.5V47.8125H25.875C26.1855 47.8125 26.4375 47.5605 26.4375 47.25V36.5625H27V37.125C27 37.4068 27.2087 37.6453 27.4882 37.6824L28.9311 37.8748C29.097 38.5026 29.3473 39.1039 29.6781 39.6703L28.7916 40.8291C28.6206 41.0529 28.6414 41.3691 28.8405 41.5682L30.4318 43.1595C30.6309 43.3586 30.9465 43.3794 31.1709 43.2084L32.3297 42.3219C32.8961 42.6521 33.4974 42.9024 34.1252 43.0689L34.3176 44.5117C34.3547 44.7913 34.5932 45 34.875 45H37.125C37.4068 45 37.6453 44.7913 37.6824 44.5117L37.8748 43.0689C38.5026 42.903 39.1039 42.6527 39.6703 42.3219L40.8291 43.2084C41.0529 43.38 41.3696 43.3592 41.5682 43.1595L43.1595 41.5682C43.3586 41.3691 43.38 41.0524 43.2084 40.8291L42.3219 39.6703C42.6521 39.1039 42.9024 38.5026 43.0689 37.8748L44.5117 37.6824C44.7913 37.6453 45 37.4068 45 37.125V36.5625H45.5625V47.25C45.5625 47.5605 45.8145 47.8125 46.125 47.8125H47.8125V49.5C47.8125 49.8105 48.0645 50.0625 48.375 50.0625H52.875C53.1855 50.0625 53.4375 49.8105 53.4375 49.5V45C53.4375 44.6895 53.1855 44.4375 52.875 44.4375H48.375C48.0645 44.4375 47.8125 44.6895 47.8125 45V46.6875H46.6875V36.5625H47.8125V38.25C47.8125 38.5605 48.0645 38.8125 48.375 38.8125H52.875C53.1855 38.8125 53.4375 38.5605 53.4375 38.25V33.75C53.4375 33.4395 53.1855 33.1875 52.875 33.1875H48.375C48.0645 33.1875 47.8125 33.4395 47.8125 33.75V35.4375H46.6875V25.3125H47.8125V27C47.8125 27.3105 48.0645 27.5625 48.375 27.5625ZM48.9375 23.0625H52.3125V26.4375H48.9375V23.0625ZM23.0625 26.4375H19.6875V23.0625H23.0625V26.4375ZM23.0625 37.6875H19.6875V34.3125H23.0625V37.6875ZM23.0625 48.9375H19.6875V45.5625H23.0625V48.9375ZM43.875 36.6328L42.5362 36.8111C42.2994 36.8426 42.1082 37.0209 42.0598 37.2555C41.9034 38.016 41.6036 38.736 41.1699 39.3947C41.0383 39.5944 41.0479 39.8554 41.193 40.0455L42.0159 41.1216L41.1216 42.0159L40.0455 41.193C39.8554 41.0479 39.5938 41.0383 39.3947 41.1699C38.736 41.6036 38.016 41.9034 37.2555 42.0598C37.0209 42.1082 36.8432 42.2994 36.8111 42.5362L36.6328 43.875H35.3678L35.1894 42.5362C35.1579 42.2994 34.9796 42.1082 34.7451 42.0598C33.9846 41.9034 33.2646 41.6036 32.6059 41.1699C32.4067 41.0389 32.1458 41.0479 31.9551 41.193L30.879 42.0159L29.9846 41.1216L30.8076 40.0455C30.9527 39.8554 30.9622 39.5944 30.8306 39.3947C30.3969 38.736 30.0971 38.016 29.9408 37.2555C29.8924 37.0209 29.7011 36.8432 29.4643 36.8111L28.125 36.6328V35.3678L29.4637 35.1894C29.7006 35.1579 29.8918 34.9796 29.9402 34.7451C30.0966 33.9846 30.3964 33.2646 30.8301 32.6059C30.9617 32.4062 30.9521 32.1452 30.807 31.9551L29.9841 30.879L30.8784 29.9846L31.9545 30.8076C32.1441 30.9527 32.4056 30.9617 32.6053 30.8306C33.264 30.3969 33.984 30.0971 34.7445 29.9408C34.9791 29.8924 35.1568 29.7011 35.1889 29.4643L35.3672 28.125H36.6322L36.8106 29.4637C36.8421 29.7006 37.0204 29.8918 37.2549 29.9402C38.0154 30.0966 38.7354 30.3964 39.3941 30.8301C39.5944 30.9617 39.8554 30.9527 40.0449 30.807L41.121 29.9841L42.0154 30.8784L41.1924 31.9545C41.0473 32.1446 41.0377 32.4056 41.1694 32.6053C41.6031 33.264 41.9029 33.984 42.0592 34.7445C42.1076 34.9791 42.2989 35.1568 42.5357 35.1889L43.875 35.3672V36.6328ZM48.9375 45.5625H52.3125V48.9375H48.9375V45.5625ZM48.9375 34.3125H52.3125V37.6875H48.9375V34.3125Z" fill="white"/>
</svg>
