<svg width="72" height="72" viewBox="0 0 72 72" fill="none" xmlns="http://www.w3.org/2000/svg">
<circle cx="36" cy="36" r="36" fill="#ED1A3B"/>
<circle cx="36" cy="36" r="36" fill="#ED1A3B"/>
<path d="M48.4096 36.5859H50.1516C50.4242 37.9348 51.6186 38.9535 53.0466 38.9535C54.6751 38.9535 56 37.6286 56 36C56 34.3714 54.6751 33.0465 53.0465 33.0465C51.6185 33.0465 50.4241 34.0652 50.1516 35.4141H48.4095C48.2702 32.4295 47.0734 29.7166 45.1853 27.6433L48.3231 24.5055C48.9408 24.9553 49.7002 25.2216 50.5211 25.2216C52.5848 25.2216 54.2637 23.5427 54.2637 21.4789C54.2637 19.4152 52.5848 17.7363 50.5211 17.7363C48.4573 17.7363 46.7784 19.4152 46.7784 21.4789C46.7784 22.2998 47.0447 23.0592 47.4945 23.6769L44.3567 26.8146C42.2834 24.9266 39.5705 23.7297 36.5859 23.5905V21.8484C37.9348 21.5759 38.9535 20.3815 38.9535 18.9535C38.9535 17.3249 37.6286 16 36 16C34.3714 16 33.0465 17.3249 33.0465 18.9535C33.0465 20.3815 34.0652 21.5759 35.4141 21.8484V23.5904C32.4295 23.7297 29.7166 24.9266 27.6433 26.8145L24.5057 23.677C24.9555 23.0593 25.2219 22.2998 25.2219 21.4789C25.2219 20.2327 24.6046 19.0721 23.5707 18.3745C23.3023 18.1935 22.9381 18.2641 22.7573 18.5324C22.5762 18.8007 22.647 19.1648 22.9152 19.3459C23.6258 19.8253 24.0499 20.6227 24.0499 21.4789C24.0499 22.8966 22.8965 24.05 21.4788 24.05C20.0612 24.05 18.9078 22.8966 18.9078 21.4789C18.9078 20.3341 19.6762 19.3165 20.7763 19.0044C21.0877 18.916 21.2684 18.592 21.1801 18.2807C21.0917 17.9694 20.7676 17.7888 20.4565 17.877C18.8546 18.3315 17.7359 19.8127 17.7359 21.4789C17.7359 23.5428 19.415 25.2219 21.4789 25.2219C22.2998 25.2219 23.0594 24.9555 23.677 24.5057L26.8146 27.6432C24.9266 29.7166 23.7297 32.4294 23.5904 35.414H21.8484C21.5759 34.0652 20.3815 33.0464 18.9535 33.0464C17.3249 33.0465 16 34.3714 16 36C16 37.6286 17.3249 38.9535 18.9535 38.9535C20.3815 38.9535 21.5759 37.9348 21.8484 36.5859H23.5905C23.7298 39.5705 24.9266 42.2834 26.8147 44.3567L23.6769 47.4945C23.0592 47.0447 22.2998 46.7784 21.4789 46.7784C19.4152 46.7784 17.7363 48.4573 17.7363 50.5211C17.7363 52.5848 19.4152 54.2637 21.4789 54.2637C23.5427 54.2637 25.2216 52.5848 25.2216 50.5211C25.2216 49.7002 24.9553 48.9408 24.5055 48.3231L27.6433 45.1854C29.7166 47.0734 32.4295 48.2703 35.4141 48.4095V50.1515C34.0652 50.4241 33.0465 51.6184 33.0465 53.0464C33.0465 54.6751 34.3714 56 36 56C37.6286 56 38.9535 54.6751 38.9535 53.0465C38.9535 51.6185 37.9348 50.4241 36.5859 50.1516V48.4096C39.5705 48.2703 42.2834 47.0734 44.3567 45.1855L47.4943 48.323C47.0445 48.9407 46.7781 49.7002 46.7781 50.5211C46.7781 52.5849 48.4572 54.2641 50.5211 54.2641C52.585 54.2641 54.2641 52.585 54.2641 50.5211C54.2641 50.1159 54.1995 49.717 54.0723 49.335C53.9698 49.028 53.6379 48.8621 53.3312 48.9644C53.0241 49.0667 52.8582 49.3985 52.9605 49.7055C53.0479 49.9677 53.0923 50.2421 53.0923 50.521C53.0923 51.9387 51.9388 53.0921 50.5212 53.0921C49.1035 53.0921 47.9501 51.9387 47.9501 50.521C47.9501 49.1033 49.1035 47.9499 50.5212 47.9499C50.8456 47.9499 51.162 48.0096 51.4616 48.1273C51.7624 48.2457 52.1028 48.0975 52.2212 47.7963C52.3396 47.4952 52.1914 47.1551 51.8902 47.0366C51.4536 46.8651 50.993 46.778 50.5213 46.778C49.7003 46.778 48.9408 47.0444 48.3231 47.4942L45.1855 44.3567C47.0734 42.2834 48.2703 39.5705 48.4096 36.5859ZM53.0465 34.2184C54.0289 34.2184 54.8281 35.0176 54.8281 36C54.8281 36.9824 54.0289 37.7816 53.0465 37.7816C52.0641 37.7816 51.2648 36.9824 51.2648 36C51.2648 35.0176 52.0641 34.2184 53.0465 34.2184ZM50.5211 18.9081C51.9387 18.9081 53.0919 20.0614 53.0919 21.4789C53.0919 22.8965 51.9386 24.0498 50.5211 24.0498C49.1036 24.0498 47.9503 22.8965 47.9503 21.4789C47.9503 20.0613 49.1036 18.9081 50.5211 18.9081ZM34.2184 18.9535C34.2184 17.9711 35.0177 17.1719 36 17.1719C36.9823 17.1719 37.7816 17.9711 37.7816 18.9535C37.7816 19.9359 36.9823 20.7352 36 20.7352C35.0177 20.7352 34.2184 19.9359 34.2184 18.9535ZM18.9535 37.7816C17.9711 37.7816 17.1719 36.9824 17.1719 36C17.1719 35.0176 17.9711 34.2184 18.9535 34.2184C19.9359 34.2184 20.7351 35.0176 20.7351 36C20.7351 36.9824 19.9359 37.7816 18.9535 37.7816ZM36 24.7481C42.2043 24.7481 47.2519 29.7957 47.2519 36C47.2519 42.2043 42.2043 47.2519 36 47.2519C29.7957 47.2519 24.7481 42.2044 24.7481 36C24.7481 29.7956 29.7957 24.7481 36 24.7481ZM21.4789 53.0919C20.0613 53.0919 18.9081 51.9386 18.9081 50.5211C18.9081 49.1035 20.0614 47.9502 21.4789 47.9502C22.8964 47.9502 24.0497 49.1035 24.0497 50.5211C24.0497 51.9387 22.8964 53.0919 21.4789 53.0919ZM37.7816 53.0465C37.7816 54.0289 36.9823 54.8281 36 54.8281C35.0177 54.8281 34.2184 54.0289 34.2184 53.0465C34.2184 52.0641 35.0177 51.2648 36 51.2648C36.9823 51.2648 37.7816 52.0641 37.7816 53.0465Z" fill="white"/>
<path d="M29.3709 43.2149H32.6799C32.6817 43.2149 32.6834 43.2151 32.6852 43.2151C32.687 43.2151 32.6888 43.2149 32.6906 43.2149H34.6327C34.9563 43.2149 35.2186 42.9525 35.2186 42.6289C35.2186 42.3053 34.9563 42.043 34.6327 42.043H33.2712V41.0508C33.2712 40.7272 33.0089 40.4649 32.6852 40.4649C32.3616 40.4649 32.0993 40.7272 32.0993 41.0508V42.043H29.9569V39.1571C29.9569 37.7394 31.1099 36.586 32.5271 36.586H39.4724C40.8897 36.586 42.0427 37.7394 42.0427 39.1571V42.043H39.9002V41.0508C39.9002 40.7272 39.638 40.4649 39.3143 40.4649C38.9906 40.4649 38.7284 40.7272 38.7284 41.0508V42.043H37.367C37.0434 42.043 36.7811 42.3053 36.7811 42.6289C36.7811 42.9525 37.0434 43.2149 37.367 43.2149H39.3092C39.3109 43.2149 39.3127 43.2151 39.3145 43.2151C39.3163 43.2151 39.318 43.2149 39.3198 43.2149H42.6288C42.9524 43.2149 43.2147 42.9525 43.2147 42.6289V39.1571C43.2147 37.0931 41.536 35.4141 39.4726 35.4141H39.0376C39.9546 34.5842 40.5318 33.3853 40.5318 32.0541C40.5318 29.5552 38.4988 27.5222 35.9999 27.5222C33.501 27.5222 31.468 29.5552 31.468 32.0541C31.468 33.3853 32.0452 34.5842 32.9623 35.4141H32.5273C30.4638 35.4141 28.7852 37.0931 28.7852 39.1571V42.6289C28.785 42.9525 29.0473 43.2149 29.3709 43.2149ZM32.6398 32.0541C32.6398 30.2014 34.1471 28.6941 35.9999 28.6941C37.8526 28.6941 39.3599 30.2014 39.3599 32.0541C39.3599 33.9068 37.8526 35.4141 35.9999 35.4141C34.1471 35.4141 32.6398 33.9068 32.6398 32.0541Z" fill="white"/>
</svg>
