<svg width="72" height="72" viewBox="0 0 72 72" fill="none" xmlns="http://www.w3.org/2000/svg">
<circle cx="36" cy="36" r="36" fill="#ED1A3B"/>
<circle cx="36" cy="36" r="36" fill="#ED1A3B"/>
<path d="M50.3797 39.6666H47.621C47.095 39.6666 46.667 39.2386 46.667 38.7126V29.2873C46.667 28.7613 47.095 28.3333 47.621 28.3333H50.3797C50.9057 28.3333 51.3337 28.7613 51.3337 29.2873V38.7126C51.3337 39.2386 50.9057 39.6666 50.3797 39.6666ZM48.0003 38.3333H50.0003V29.6666H48.0003V38.3333Z" fill="white"/>
<path d="M44.3797 39.6668H41.621C41.095 39.6668 40.667 39.2388 40.667 38.7128V34.6208C40.667 34.0947 41.095 33.6667 41.621 33.6667H44.3797C44.9057 33.6667 45.3337 34.0947 45.3337 34.6208V38.7128C45.3337 39.2388 44.9057 39.6668 44.3797 39.6668ZM42.0003 38.3334H44.0003V35.0001H42.0003V38.3334Z" fill="white"/>
<path d="M32.3787 39.6665H29.62C29.094 39.6665 28.666 39.2385 28.666 38.7125V36.6205C28.666 36.0945 29.094 35.6665 29.62 35.6665H32.3787C32.9047 35.6665 33.3327 36.0945 33.3327 36.6205V38.7125C33.3327 39.2385 32.9047 39.6665 32.3787 39.6665ZM29.9993 38.3332H31.9994V36.9998H29.9993V38.3332Z" fill="white"/>
<path d="M38.3787 39.6667H35.62C35.094 39.6667 34.666 39.2387 34.666 38.7127V31.954C34.666 31.428 35.094 31 35.62 31H38.3787C38.9047 31 39.3327 31.428 39.3327 31.954V38.7127C39.3327 39.2387 38.9047 39.6667 38.3787 39.6667ZM35.9993 38.3333H37.9993V32.3333H35.9993V38.3333Z" fill="white"/>
<path d="M29.3338 33.6666C29.1632 33.6666 28.9925 33.6013 28.8625 33.4713C28.6018 33.2106 28.6018 32.7893 28.8625 32.5286L36.1958 25.1953C36.4205 24.9706 36.7725 24.9359 37.0372 25.1119L42.5345 28.7766L48.1518 21.9113C48.3852 21.6253 48.8052 21.5846 49.0898 21.8173C49.3745 22.0506 49.4165 22.4699 49.1838 22.7553L43.1838 30.0886C42.9665 30.3546 42.5838 30.4113 42.2978 30.2213L36.7525 26.5246L29.8058 33.4713C29.6752 33.6013 29.5045 33.6666 29.3338 33.6666Z" fill="white"/>
<path d="M48.666 23.0001H45.3327C44.9647 23.0001 44.666 22.7014 44.666 22.3334C44.666 21.9654 44.9647 21.6667 45.3327 21.6667H48.666C49.034 21.6667 49.3327 21.9654 49.3327 22.3334C49.3327 22.7014 49.034 23.0001 48.666 23.0001Z" fill="white"/>
<path d="M48.6667 26.3334C48.2987 26.3334 48 26.0347 48 25.6667V22.3334C48 21.9654 48.2987 21.6667 48.6667 21.6667C49.0347 21.6667 49.3333 21.9654 49.3333 22.3334V25.6667C49.3333 26.0347 49.0347 26.3334 48.6667 26.3334Z" fill="white"/>
<path d="M26 36.9998H20.6667C20.2987 36.9998 20 36.7012 20 36.3332C20 35.9652 20.2987 35.6665 20.6667 35.6665H26C26.368 35.6665 26.6667 35.9652 26.6667 36.3332C26.6667 36.7012 26.368 36.9998 26 36.9998Z" fill="white"/>
<path d="M23.3333 39.6666H20.6667C20.2987 39.6666 20 39.3679 20 38.9999C20 38.6319 20.2987 38.3333 20.6667 38.3333H23.3333C23.7013 38.3333 24 38.6319 24 38.9999C24 39.3679 23.7013 39.6666 23.3333 39.6666Z" fill="white"/>
<path d="M26 30.3333H20.6667C20.2987 30.3333 20 30.0347 20 29.6667C20 29.2987 20.2987 29 20.6667 29H26C26.368 29 26.6667 29.2987 26.6667 29.6667C26.6667 30.0347 26.368 30.3333 26 30.3333Z" fill="white"/>
<path d="M23.3333 33.0001H20.6667C20.2987 33.0001 20 32.7014 20 32.3334C20 31.9654 20.2987 31.6667 20.6667 31.6667H23.3333C23.7013 31.6667 24 31.9654 24 32.3334C24 32.7014 23.7013 33.0001 23.3333 33.0001Z" fill="white"/>
<path d="M26 23.6666H20.6667C20.2987 23.6666 20 23.3679 20 22.9999C20 22.6319 20.2987 22.3333 20.6667 22.3333H26C26.368 22.3333 26.6667 22.6319 26.6667 22.9999C26.6667 23.3679 26.368 23.6666 26 23.6666Z" fill="white"/>
<path d="M23.3333 26.3333H20.6667C20.2987 26.3333 20 26.0347 20 25.6667C20 25.2987 20.2987 25 20.6667 25H23.3333C23.7013 25 24 25.2987 24 25.6667C24 26.0347 23.7013 26.3333 23.3333 26.3333Z" fill="white"/>
<path d="M41.3333 20.3335H30.6667C30.2987 20.3335 30 20.0348 30 19.6668V17.0002C30 16.6322 30.2987 16.3335 30.6667 16.3335H41.3333C41.7013 16.3335 42 16.6322 42 17.0002V19.6668C42 20.0348 41.7013 20.3335 41.3333 20.3335ZM31.3333 19.0002H40.6667V17.6668H31.3333V19.0002Z" fill="white"/>
<path d="M42.666 45.6667H29.3327C28.9647 45.6667 28.666 45.3681 28.666 45.0001V42.3334C28.666 41.9654 28.9647 41.6667 29.3327 41.6667H42.666C43.034 41.6667 43.3327 41.9654 43.3327 42.3334V45.0001C43.3327 45.3681 43.034 45.6667 42.666 45.6667ZM29.9993 44.3334H41.9994V43.0001H29.9993V44.3334Z" fill="white"/>
<path d="M55.3333 44.6667H42.6667C42.2987 44.6667 42 44.368 42 44V43.3333H30V44C30 44.368 29.7013 44.6667 29.3333 44.6667H16.6667C16.2987 44.6667 16 44.368 16 44V18.6667C16 18.2987 16.2987 18 16.6667 18H30.6667C31.0347 18 31.3333 18.2987 31.3333 18.6667V19.3333H40.6667V18.6667C40.6667 18.2987 40.9653 18 41.3333 18H55.3333C55.7013 18 56 18.2987 56 18.6667V44C56 44.368 55.7013 44.6667 55.3333 44.6667ZM43.3333 43.3333H54.6667V19.3333H42V20C42 20.368 41.7013 20.6667 41.3333 20.6667H30.6667C30.2987 20.6667 30 20.368 30 20V19.3333H17.3333V43.3333H28.6667V42.6667C28.6667 42.2987 28.9653 42 29.3333 42H42.6667C43.0347 42 43.3333 42.2987 43.3333 42.6667V43.3333Z" fill="white"/>
<path d="M35.9997 50.3333C35.6317 50.3333 35.333 50.0346 35.333 49.6666V44.9999C35.333 44.6319 35.6317 44.3333 35.9997 44.3333C36.3677 44.3333 36.6663 44.6319 36.6663 44.9999V49.6666C36.6663 50.0346 36.3677 50.3333 35.9997 50.3333Z" fill="white"/>
<path d="M36.0003 55.6667C34.1623 55.6667 32.667 54.1713 32.667 52.3333C32.667 50.4953 34.1623 49 36.0003 49C37.8383 49 39.3337 50.4953 39.3337 52.3333C39.3337 54.1713 37.8383 55.6667 36.0003 55.6667ZM36.0003 50.3333C34.8977 50.3333 34.0003 51.2307 34.0003 52.3333C34.0003 53.436 34.8977 54.3333 36.0003 54.3333C37.103 54.3333 38.0003 53.436 38.0003 52.3333C38.0003 51.2307 37.103 50.3333 36.0003 50.3333Z" fill="white"/>
</svg>
