<svg width="72" height="72" viewBox="0 0 72 72" fill="none" xmlns="http://www.w3.org/2000/svg">
<circle cx="36" cy="36" r="36" fill="#ED1A3B"/>
<g clip-path="url(#clip0)">
<path d="M41.0719 45.7223C41.033 45.0784 40.7506 44.4628 40.2769 43.9891L36.8584 40.57C37.4107 40.3952 37.909 40.0945 38.3149 39.6887L38.4018 39.6017C39.9083 38.0952 39.7875 35.5233 38.1325 33.8682C37.345 33.0808 36.3263 32.6119 35.2642 32.5477C34.1604 32.481 33.1434 32.8544 32.399 33.5989L32.3121 33.6858C31.906 34.0918 31.6052 34.5903 31.4305 35.1427L28.0116 31.7237C27.0042 30.7163 25.4257 30.6554 24.4928 31.5881L21.3942 34.6868C21.015 35.066 20.8574 35.6171 20.9724 36.161C21.0975 36.7524 21.5099 37.236 22.0758 37.4546C22.433 37.5926 22.7569 37.8053 23.0383 38.0867L23.1365 38.1849C23.6126 38.661 23.8956 39.2662 23.9331 39.889C23.9683 40.4707 23.781 40.9978 23.4059 41.3729C23.0308 41.748 22.5035 41.9358 21.922 41.9C21.2992 41.8625 20.6939 41.5795 20.2179 41.1034L20.1197 41.0052C19.8383 40.7238 19.6256 40.3999 19.4876 40.0428C19.2689 39.4769 18.7854 39.0644 18.1939 38.9393C17.65 38.8243 17.0989 38.982 16.7196 39.3611L13.6245 42.4564C12.6919 43.3892 12.7526 44.9676 13.7601 45.9751L17.1791 49.3941C16.6266 49.5689 16.1281 49.8697 15.7221 50.2756L15.6351 50.3626C14.1287 51.8691 14.2496 54.441 15.9046 56.0961C16.7832 56.9747 17.9199 57.421 19.0187 57.4209C19.9898 57.4209 20.9313 57.0722 21.638 56.3654L21.725 56.2785C22.131 55.8725 22.4317 55.3741 22.6065 54.8215L26.0254 58.2405C26.4992 58.7142 27.1148 58.9965 27.7587 59.0355C27.808 59.0384 27.8573 59.0399 27.9063 59.0399C28.5279 59.0399 29.1182 58.8023 29.5443 58.3761L32.4915 55.4289C32.7205 55.9856 33.0575 56.4885 33.4939 56.9251L33.5921 57.0233C35.2471 58.6782 37.8191 58.7991 39.3256 57.2927C40.8321 55.7862 40.7112 53.2142 39.0562 51.5592L38.958 51.461C38.5215 51.0245 38.0186 50.6876 37.4618 50.4586L40.4125 47.5079C40.8723 47.048 41.1126 46.3973 41.0719 45.7223ZM39.1398 46.2351L36.0412 49.3337C35.6621 49.7129 35.5044 50.264 35.6194 50.8078C35.7444 51.3993 36.1569 51.8829 36.7228 52.1016C37.08 52.2397 37.4039 52.4523 37.6853 52.7338L37.7835 52.832C38.7367 53.7852 38.8576 55.2152 38.0529 56.0199C37.2483 56.8246 35.818 56.7037 34.865 55.7505L34.7668 55.6524C34.4854 55.3709 34.2726 55.047 34.1346 54.6899C33.916 54.124 33.4323 53.7115 32.8408 53.5865C32.2969 53.4715 31.7458 53.6293 31.3667 54.0083L28.2716 57.1035C28.1471 57.2281 27.9831 57.2463 27.8674 57.2389C27.6658 57.2267 27.4585 57.1279 27.2984 56.9679L25.9269 55.5964L28.9136 52.6096C29.265 52.2582 29.265 51.6883 28.9136 51.3368C28.5622 50.9852 27.9923 50.9853 27.6407 51.3368L24.654 54.3235L23.7221 53.3916C23.3812 53.0507 22.9323 52.8663 22.4799 52.8663C22.3235 52.8663 22.1665 52.8885 22.0135 52.9337C21.4602 53.0976 21.058 53.5331 20.9376 54.0988C20.862 54.454 20.6987 54.7591 20.4521 55.0057L20.3651 55.0926C19.5605 55.8973 18.1302 55.7765 17.1772 54.8233C16.224 53.8701 16.1031 52.4401 16.9077 51.6354L16.9947 51.5484C17.2413 51.3018 17.5464 51.1384 17.9017 51.0628C18.4674 50.9425 18.9029 50.5402 19.0668 49.9868C19.243 49.3916 19.0675 48.737 18.609 48.2785L15.0329 44.7022C14.8728 44.5421 14.7741 44.3347 14.7618 44.1332C14.7548 44.0175 14.7727 43.8536 14.8972 43.7289L17.8444 40.7817C18.0734 41.3384 18.4104 41.8413 18.8468 42.2779L18.9449 42.3761C20.6 44.0311 23.172 44.1519 24.6786 42.6455C26.185 41.139 26.0642 38.5671 24.4091 36.912L24.3109 36.8138C23.8744 36.3773 23.3715 36.0404 22.8147 35.8114L25.7654 32.8607C25.9926 32.6337 26.4382 32.6958 26.7387 32.9963L30.3149 36.5725C30.7734 37.0311 31.428 37.2065 32.0233 37.0303C32.5766 36.8665 32.9788 36.4309 33.0992 35.8652C33.1747 35.51 33.3381 35.2049 33.5848 34.9583L33.6718 34.8713C34.0469 34.4963 34.5738 34.3091 35.1557 34.3442C35.7785 34.3817 36.3838 34.6647 36.8598 35.1408C37.813 36.094 37.9338 37.5241 37.1291 38.3286L37.0422 38.4157C36.7956 38.6623 36.4905 38.8256 36.1354 38.9012C35.5696 39.0216 35.134 39.4238 34.9701 39.9772C34.7939 40.5723 34.9693 41.227 35.428 41.6856L39.0042 45.2619C39.1642 45.4219 39.263 45.6293 39.2752 45.8308C39.2822 45.9465 39.2644 46.1105 39.1398 46.2351Z" fill="white"/>
<path d="M31.2218 49.0283C31.0544 48.861 30.8222 48.7646 30.5855 48.7646C30.3488 48.7646 30.1166 48.861 29.9492 49.0283C29.7818 49.1957 29.6855 49.4279 29.6855 49.6646C29.6855 49.9013 29.7818 50.1335 29.9492 50.3009C30.1166 50.4683 30.3479 50.5646 30.5855 50.5646C30.8222 50.5646 31.0544 50.4683 31.2218 50.3009C31.3892 50.1335 31.4855 49.9013 31.4855 49.6646C31.4855 49.4279 31.3892 49.1957 31.2218 49.0283Z" fill="white"/>
<path d="M50.3332 24.3894C50.1658 24.222 49.9336 24.1257 49.6969 24.1257C49.4602 24.1257 49.228 24.222 49.0606 24.3894C48.8932 24.5568 48.7969 24.789 48.7969 25.0257C48.7969 25.2624 48.8932 25.4946 49.0606 25.662C49.228 25.8294 49.4602 25.9257 49.6969 25.9257C49.9336 25.9257 50.1658 25.8294 50.3332 25.662C50.5006 25.4946 50.5969 25.2624 50.5969 25.0257C50.5969 24.789 50.5006 24.5568 50.3332 24.3894Z" fill="white"/>
<path d="M57.0738 33.6447C56.5848 33.1557 55.9932 32.7817 55.3573 32.5585L58.3744 29.5413C58.8342 29.0816 59.0746 28.4307 59.0338 27.7557C58.9949 27.1118 58.7126 26.4962 58.2388 26.0224L54.8874 22.6705C55.3599 22.49 55.7896 22.2132 56.144 21.8587L56.231 21.7716C57.7374 20.2651 57.6166 17.6932 55.9615 16.0381C54.3066 14.3832 51.7346 14.2623 50.228 15.7688L50.141 15.8558C49.7865 16.2104 49.5095 16.6401 49.3291 17.1128L45.9735 13.7573C44.9659 12.7497 43.3875 12.6889 42.4546 13.6216L39.4375 16.6388C39.2143 16.0028 38.8402 15.4113 38.3513 14.9223L38.2531 14.8241C36.5981 13.1691 34.0261 13.0483 32.5196 14.5547C31.0131 16.0613 31.1339 18.6333 32.7888 20.2881L32.8872 20.3865C33.3761 20.8753 33.9677 21.2494 34.6037 21.4727L31.5864 24.4898C30.6537 25.4226 30.7145 27.001 31.7223 28.0088L35.3017 31.5855C35.7605 32.0441 36.4153 32.2195 37.0102 32.0433C37.5635 31.8794 37.9657 31.4438 38.0861 30.8782C38.1616 30.5231 38.325 30.218 38.5717 29.9714L38.6587 29.8843C39.0338 29.5092 39.5618 29.3217 40.1426 29.3571C40.7654 29.3947 41.3706 29.6777 41.8467 30.1538C42.3228 30.6299 42.6057 31.235 42.6433 31.8578C42.6785 32.4397 42.4912 32.9667 42.1161 33.3418L42.0291 33.4288C41.7825 33.6754 41.4774 33.8387 41.1223 33.9143C40.5565 34.0347 40.121 34.4369 39.9571 34.9902C39.7809 35.5853 39.9562 36.2397 40.4147 36.6984L43.9876 40.2741C44.5169 40.8034 45.2037 41.0714 45.8718 41.0714C46.4754 41.0714 47.0637 40.8525 47.5065 40.4097L50.5237 37.3926C50.7469 38.0284 51.1209 38.6201 51.6098 39.1089L51.7081 39.2072C53.3632 40.8622 55.9351 40.983 57.4416 39.4766C58.948 37.9701 58.8272 35.3981 57.1722 33.7431L57.0738 33.6447ZM56.1685 38.2035C55.3639 39.0082 53.9337 38.8874 52.9806 37.9342L52.8824 37.836C52.5688 37.5225 52.3338 37.1435 52.2029 36.7401C52.0125 36.154 51.5219 35.7005 50.9223 35.5565C50.3626 35.4221 49.7943 35.5758 49.4023 35.9679L46.2335 39.1367C46.1088 39.2612 45.9447 39.2792 45.8292 39.272C45.6277 39.2599 45.4203 39.1611 45.2605 39.0012L41.8446 35.5828C42.3971 35.408 42.8956 35.1072 43.3016 34.7013L43.3886 34.6143C44.133 33.8698 44.5064 32.8522 44.4398 31.7491C44.3756 30.6869 43.9067 29.6681 43.1193 28.8808C42.3319 28.0935 41.3133 27.6244 40.251 27.5603C39.1474 27.494 38.1302 27.867 37.3858 28.6114L37.2988 28.6984C36.8928 29.1045 36.5921 29.603 36.4174 30.1554L32.995 26.7357C32.8349 26.5757 32.7362 26.3682 32.7239 26.1667C32.7169 26.0511 32.7348 25.887 32.8593 25.7624L36.0282 22.5936C36.4202 22.2016 36.574 21.6333 36.4396 21.0735C36.2955 20.4739 35.842 19.9833 35.256 19.793C34.8526 19.662 34.4736 19.427 34.1603 19.1136L34.0619 19.0152C33.1087 18.062 32.9878 16.632 33.7925 15.8273C34.597 15.0227 36.0273 15.1434 36.9804 16.0967L37.0786 16.1949C37.3921 16.5084 37.6271 16.8874 37.7582 17.2908C37.9485 17.8769 38.4392 18.3304 39.0388 18.4743C39.5985 18.6087 40.1668 18.4549 40.5588 18.0629L43.7275 14.8941C43.9547 14.6672 44.4003 14.7293 44.7008 15.0298L48.1976 18.5267C48.6409 18.97 49.2772 19.1508 49.8579 18.9981C50.3969 18.8566 50.8081 18.4523 50.9575 17.9165C51.0427 17.6112 51.1962 17.3461 51.4139 17.1285L51.5009 17.0414C52.3054 16.2367 53.7357 16.3575 54.6888 17.3108C55.642 18.264 55.7628 19.694 54.9581 20.4987L54.8711 20.5857C54.6535 20.8034 54.3883 20.957 54.0832 21.0421C53.5474 21.1916 53.143 21.6026 53.0015 22.1416C52.8491 22.7225 53.0297 23.3587 53.473 23.802L56.9659 27.295C57.1261 27.455 57.2248 27.6625 57.237 27.864C57.244 27.9797 57.2261 28.1437 57.1016 28.2683L55.6573 29.7126L52.6747 26.7299C52.3231 26.3785 51.7533 26.3785 51.4019 26.7299C51.0504 27.0814 51.0503 27.6512 51.4019 28.0027L54.3845 30.9854L53.9327 31.4372C53.5407 31.8292 53.3869 32.3975 53.5213 32.9572C53.6653 33.5568 54.1188 34.0474 54.7048 34.2378C55.1083 34.3688 55.4872 34.6038 55.8007 34.9174L55.8989 35.0156C56.8524 35.9689 56.9731 37.399 56.1685 38.2035Z" fill="white"/>
</g>
<defs>
<clipPath id="clip0">
<rect width="46.08" height="46.08" fill="white" transform="translate(12.96 12.96)"/>
</clipPath>
</defs>
</svg>
