<svg width="72" height="72" viewBox="0 0 72 72" fill="none" xmlns="http://www.w3.org/2000/svg">
<circle cx="36" cy="36" r="36" fill="#ED1A3B"/>
<g clip-path="url(#clip0)">
<path d="M24.0459 19.2971C23.0492 19.2971 22.2383 20.108 22.2383 21.1047C22.2383 22.1015 23.0492 22.9123 24.0459 22.9123C25.0426 22.9123 25.8535 22.1014 25.8535 21.1047C25.8535 20.108 25.0426 19.2971 24.0459 19.2971ZM24.0459 21.7829C23.6719 21.7829 23.3677 21.4786 23.3677 21.1046C23.3677 20.7307 23.6719 20.4264 24.0459 20.4264C24.4199 20.4264 24.7241 20.7307 24.7241 21.1046C24.7241 21.4787 24.4199 21.7829 24.0459 21.7829Z" fill="white"/>
<path d="M28.2304 19.2971C27.2338 19.2971 26.4229 20.108 26.4229 21.1047C26.4229 22.1015 27.2338 22.9123 28.2304 22.9123C29.2271 22.9123 30.038 22.1014 30.038 21.1047C30.038 20.108 29.2271 19.2971 28.2304 19.2971ZM28.2304 21.7829C27.8565 21.7829 27.5522 21.4786 27.5522 21.1046C27.5522 20.7307 27.8565 20.4264 28.2304 20.4264C28.6044 20.4264 28.9087 20.7307 28.9087 21.1046C28.9087 21.4787 28.6044 21.7829 28.2304 21.7829Z" fill="white"/>
<path d="M32.415 19.2971C31.4183 19.2972 30.6074 20.108 30.6074 21.1047C30.6074 22.1015 31.4183 22.9123 32.415 22.9123C33.4118 22.9123 34.2227 22.1014 34.2227 21.1047C34.2226 20.108 33.4117 19.2971 32.415 19.2971ZM32.4149 21.7829C32.041 21.7829 31.7367 21.4786 31.7367 21.1046C31.7367 20.7307 32.041 20.4264 32.4149 20.4264C32.7889 20.4264 33.0932 20.7307 33.0932 21.1046C33.0932 21.4787 32.7889 21.7829 32.4149 21.7829Z" fill="white"/>
<path d="M54.9393 25.0138C54.7586 24.7597 54.4059 24.7001 54.1517 24.8809C53.8975 25.0617 53.8381 25.4143 54.0187 25.6683C54.8139 26.7862 55.2341 28.1049 55.2341 29.4819C55.2341 33.1145 52.2787 36.0699 48.6461 36.0699C45.0135 36.0699 42.0581 33.1145 42.0581 29.4819C42.0581 25.8493 45.0135 22.8939 48.6461 22.8939C50.1484 22.8939 51.5631 23.3862 52.7372 24.3178C52.9815 24.5115 53.3367 24.4706 53.5306 24.2263C53.7244 23.982 53.6834 23.6268 53.4391 23.4329C52.0633 22.3414 50.4059 21.7644 48.6461 21.7644C44.3907 21.7644 40.9287 25.2264 40.9287 29.4818C40.9287 33.7372 44.3907 37.1992 48.6461 37.1992C52.9015 37.1992 56.3635 33.7372 56.3635 29.4818C56.3636 27.8691 55.8711 26.324 54.9393 25.0138Z" fill="white"/>
<path d="M48.7413 38.4121C48.4294 38.4121 48.1766 38.665 48.1766 38.9768V52.5222C48.1766 53.5414 47.3469 54.3706 46.3273 54.3706H22.6136C21.5944 54.3706 20.7652 53.5414 20.7652 52.5222V24.8316H41.4177C41.7296 24.8316 41.9824 24.5787 41.9824 24.2668C41.9824 23.955 41.7296 23.7021 41.4177 23.7021H20.7652V20.4778C20.7652 19.4586 21.5944 18.6294 22.6136 18.6294H46.3274C47.347 18.6294 48.1766 19.4586 48.1766 20.4778C48.1766 20.7897 48.4294 21.0425 48.7414 21.0425C49.0533 21.0425 49.3061 20.7897 49.3061 20.4778C49.306 18.8359 47.9698 17.5 46.3274 17.5H22.6136C20.9717 17.5 19.6357 18.8359 19.6357 20.4778V52.5222C19.6357 54.1642 20.9716 55.5 22.6136 55.5H46.3274C47.9698 55.5 49.306 54.1641 49.306 52.5222V38.9768C49.306 38.665 49.0532 38.4121 48.7413 38.4121Z" fill="white"/>
<path d="M38.71 28.135H26.1741C25.8622 28.135 25.6094 28.3879 25.6094 28.6997C25.6094 29.0116 25.8622 29.2645 26.1741 29.2645H38.71C39.0218 29.2645 39.2747 29.0116 39.2747 28.6997C39.2747 28.3879 39.0219 28.135 38.71 28.135Z" fill="white"/>
<path d="M24.2056 28.5894C24.101 28.0898 23.4109 27.9716 23.1594 28.4239C22.913 28.8669 23.3537 29.3988 23.8352 29.2331C24.0972 29.1431 24.2623 28.8627 24.2056 28.5894Z" fill="white"/>
<path d="M38.71 34.4448H26.1741C25.8622 34.4448 25.6094 34.6977 25.6094 35.0096C25.6094 35.3214 25.8622 35.5743 26.1741 35.5743H38.71C39.0219 35.5743 39.2747 35.3214 39.2747 35.0096C39.2747 34.6977 39.0219 34.4448 38.71 34.4448Z" fill="white"/>
<path d="M24.0515 34.61C23.7 34.2692 23.0865 34.5123 23.0869 35.0098C23.0871 35.2567 23.2551 35.4801 23.491 35.5507C23.7153 35.6179 23.9664 35.5342 24.1055 35.3459C24.2703 35.1229 24.2464 34.8064 24.0515 34.61Z" fill="white"/>
<path d="M43.7916 37.5999H40.2532C39.9413 37.5999 39.6885 37.8527 39.6885 38.1646C39.6885 38.4765 39.9413 38.7293 40.2532 38.7293H43.7916C44.1035 38.7293 44.3563 38.4765 44.3563 38.1646C44.3563 37.8527 44.1035 37.5999 43.7916 37.5999Z" fill="white"/>
<path d="M38.3712 37.5999H31.7835C31.4715 37.5999 31.2188 37.8527 31.2188 38.1646C31.2188 38.4765 31.4715 38.7293 31.7835 38.7293H38.3712C38.6832 38.7293 38.9359 38.4765 38.9359 38.1646C38.9359 37.8527 38.6831 37.5999 38.3712 37.5999Z" fill="white"/>
<path d="M29.901 37.5999H26.1741C25.8622 37.5999 25.6094 37.8527 25.6094 38.1646C25.6094 38.4765 25.8622 38.7293 26.1741 38.7293H29.901C30.2129 38.7293 30.4657 38.4765 30.4657 38.1646C30.4657 37.8527 30.2129 37.5999 29.901 37.5999Z" fill="white"/>
<path d="M24.0513 37.7655C23.6917 37.4058 23.0564 37.6917 23.0881 38.1996C23.1024 38.4296 23.2608 38.6314 23.4797 38.7019C23.7185 38.7788 23.9877 38.6834 24.1245 38.4731C24.2684 38.252 24.2383 37.9524 24.0513 37.7655Z" fill="white"/>
<path d="M35.3219 40.7549H26.1741C25.8622 40.7549 25.6094 41.0077 25.6094 41.3196C25.6094 41.6315 25.8622 41.8843 26.1741 41.8843H35.3219C35.6338 41.8843 35.8866 41.6315 35.8866 41.3196C35.8866 41.0077 35.6338 40.7549 35.3219 40.7549Z" fill="white"/>
<path d="M24.2058 41.2094C24.101 40.7093 23.4146 40.5927 23.1611 41.0416C23.0356 41.2639 23.0766 41.5496 23.2611 41.7267C23.43 41.8887 23.6875 41.9289 23.8983 41.8275C24.1254 41.7181 24.2572 41.4572 24.2058 41.2094Z" fill="white"/>
<path d="M40.969 43.9097H39.2376C38.9256 43.9097 38.6729 44.1625 38.6729 44.4744C38.6729 44.7863 38.9256 45.0391 39.2376 45.0391H40.969C41.281 45.0391 41.5338 44.7863 41.5338 44.4744C41.5338 44.1625 41.281 43.9097 40.969 43.9097Z" fill="white"/>
<path d="M37.3546 43.9097H32.3479C32.036 43.9097 31.7832 44.1625 31.7832 44.4744C31.7832 44.7863 32.036 45.0391 32.3479 45.0391H37.3546C37.6664 45.0391 37.9193 44.7863 37.9193 44.4744C37.9193 44.1625 37.6665 43.9097 37.3546 43.9097Z" fill="white"/>
<path d="M30.4657 43.9097H26.1741C25.8622 43.9097 25.6094 44.1625 25.6094 44.4744C25.6094 44.7863 25.8622 45.0391 26.1741 45.0391H30.4657C30.7776 45.0391 31.0304 44.7863 31.0304 44.4744C31.0304 44.1625 30.7776 43.9097 30.4657 43.9097Z" fill="white"/>
<path d="M24.0513 44.0751C23.6918 43.7155 23.0566 44.0022 23.088 44.5093C23.1024 44.7396 23.2604 44.9411 23.4797 45.0116C23.7185 45.0882 23.9877 44.9939 24.1245 44.7831C24.2683 44.5617 24.2384 44.2622 24.0513 44.0751Z" fill="white"/>
<path d="M43.566 47.0647H35.51C35.1981 47.0647 34.9453 47.3176 34.9453 47.6294C34.9453 47.9413 35.1981 48.1942 35.51 48.1942H43.5659C43.8778 48.1942 44.1306 47.9413 44.1306 47.6294C44.1306 47.3175 43.8779 47.0647 43.566 47.0647Z" fill="white"/>
<path d="M33.6278 47.0647H26.1741C25.8622 47.0647 25.6094 47.3176 25.6094 47.6294C25.6094 47.9413 25.8622 48.1942 26.1741 48.1942H33.6278C33.9397 48.1942 34.1926 47.9413 34.1926 47.6294C34.1926 47.3175 33.9398 47.0647 33.6278 47.0647Z" fill="white"/>
<path d="M24.2061 47.5191C24.1035 47.0297 23.4346 46.9014 23.171 47.3345C22.9071 47.7681 23.33 48.3186 23.8161 48.1695C24.0883 48.086 24.2644 47.8002 24.2061 47.5191Z" fill="white"/>
<path d="M29.901 50.2197H26.1741C25.8622 50.2197 25.6094 50.4726 25.6094 50.7845C25.6094 51.0963 25.8622 51.3492 26.1741 51.3492H29.901C30.2129 51.3492 30.4657 51.0963 30.4657 50.7845C30.4657 50.4726 30.2129 50.2197 29.901 50.2197Z" fill="white"/>
<path d="M24.1732 50.5685C23.9818 50.1143 23.3214 50.1128 23.1303 50.5685C23.0341 50.798 23.1059 51.0743 23.3021 51.2279C23.478 51.3654 23.7238 51.3872 23.9202 51.281C24.1703 51.1461 24.2843 50.8312 24.1732 50.5685Z" fill="white"/>
<path d="M28.9975 31.2898H26.1741C25.8622 31.2898 25.6094 31.5427 25.6094 31.8545C25.6094 32.1664 25.8622 32.4193 26.1741 32.4193H28.9975C29.3094 32.4193 29.5622 32.1664 29.5622 31.8545C29.5622 31.5427 29.3094 31.2898 28.9975 31.2898Z" fill="white"/>
<path d="M36.4504 31.2898H31.0296C30.7176 31.2898 30.4648 31.5427 30.4648 31.8545C30.4648 32.1664 30.7176 32.4193 31.0296 32.4193H36.4504C36.7624 32.4193 37.0152 32.1664 37.0152 31.8545C37.0152 31.5427 36.7625 31.2898 36.4504 31.2898Z" fill="white"/>
<path d="M24.2054 31.7441C24.1017 31.2494 23.4225 31.1266 23.1648 31.5691C22.907 32.0115 23.3495 32.5561 23.8351 32.3886C24.0968 32.2983 24.2621 32.0173 24.2054 31.7441Z" fill="white"/>
<path d="M51.9585 25.7636C51.6825 25.6183 51.341 25.7243 51.1957 26.0004L48.1723 31.7448L46.0043 29.4863C45.7882 29.2614 45.4309 29.2541 45.2058 29.47C44.9809 29.686 44.9735 30.0435 45.1896 30.2684L47.9 33.0918C48.0073 33.2035 48.1548 33.2654 48.3074 33.2654C48.3336 33.2654 48.3599 33.2636 48.3863 33.2598C48.5661 33.2344 48.7226 33.1243 48.8071 32.9637L52.1952 26.5263C52.3405 26.2503 52.2344 25.9088 51.9585 25.7636Z" fill="white"/>
</g>
<defs>
<clipPath id="clip0">
<rect width="38" height="38" fill="white" transform="translate(19 17.5)"/>
</clipPath>
</defs>
</svg>
