<svg width="72" height="72" viewBox="0 0 72 72" fill="none" xmlns="http://www.w3.org/2000/svg">
<circle cx="36" cy="36" r="36" fill="#ED1A3B"/>
<path d="M41.9375 36.5938H30.0625C29.7347 36.5938 29.4688 36.3283 29.4688 36V22.9375C29.4688 22.6092 29.7347 22.3438 30.0625 22.3438H41.9375C42.2652 22.3438 42.5312 22.6092 42.5312 22.9375V36C42.5312 36.3283 42.2652 36.5938 41.9375 36.5938ZM33.0312 35.4062H33.625V33.0312H34.8125V35.4062H37.1875V33.0312H38.375V35.4062H38.9688V32.4375C38.9688 32.1097 38.7022 31.8438 38.375 31.8438H33.625C33.2978 31.8438 33.0312 32.1097 33.0312 32.4375V35.4062ZM41.3438 23.5312H30.6562V35.4062H31.8438V32.4375C31.8438 31.4554 32.6429 30.6562 33.625 30.6562H36H38.375C39.3571 30.6562 40.1562 31.4554 40.1562 32.4375V35.4062H41.3438V23.5312Z" fill="white"/>
<path d="M33.625 28.2812V27.0938C33.625 25.7839 34.6902 24.7188 36 24.7188C37.3098 24.7188 38.375 25.7839 38.375 27.0938V28.2812C38.375 29.5911 37.3098 30.6562 36 30.6562C34.6902 30.6562 33.625 29.5911 33.625 28.2812ZM34.8125 28.2812C34.8125 28.9362 35.3451 29.4688 36 29.4688C36.6549 29.4688 37.1875 28.9362 37.1875 28.2812V27.0938C37.1875 26.4388 36.6549 25.9062 36 25.9062C35.3451 25.9062 34.8125 26.4388 34.8125 27.0938V28.2812Z" fill="white"/>
<path d="M18.1875 17.5938H34.8125C35.1402 17.5938 35.4062 17.8592 35.4062 18.1875V19.9688H36.5938V18.1875C36.5938 17.8592 36.8598 17.5938 37.1875 17.5938H53.8125C54.1402 17.5938 54.4062 17.8592 54.4062 18.1875V43.125C54.4062 43.4533 54.1402 43.7188 53.8125 43.7188H44.9062V44.3125C44.9062 44.6408 44.6403 44.9062 44.3125 44.9062H40.1562V45.6092C40.3427 45.5427 40.541 45.5 40.75 45.5C41.7321 45.5 42.5312 46.2992 42.5312 47.2812V48.5709C42.5312 49.813 42.0479 50.9803 41.1698 51.8573C40.5161 52.511 40.1562 53.3797 40.1562 54.3041V54.4062H38.9688V54.3041C38.9688 53.062 39.4521 51.8947 40.3302 51.0177C40.9839 50.364 41.3438 49.4953 41.3438 48.5709V47.2812C41.3438 46.9535 41.0772 46.6875 40.75 46.6875C40.4228 46.6875 40.1562 46.9535 40.1562 47.2812V48.4688H38.9688V47.2812V40.1562C38.9688 39.8285 38.7022 39.5625 38.375 39.5625C38.0478 39.5625 37.7812 39.8285 37.7812 40.1562V44.9062V47.2812H36.5938V44.9062C36.5938 44.5785 36.3272 44.3125 36 44.3125C35.6728 44.3125 35.4062 44.5785 35.4062 44.9062V47.2812H34.2188V44.9062C34.2188 44.5785 33.9522 44.3125 33.625 44.3125C33.2978 44.3125 33.0312 44.5785 33.0312 44.9062V47.2812H31.8438V44.9062C31.8438 44.5785 31.5772 44.3125 31.25 44.3125C30.9228 44.3125 30.6562 44.5785 30.6562 44.9062V48.9224C30.6562 49.6996 30.8397 50.4774 31.1877 51.1721C31.6169 52.0307 31.8438 52.9925 31.8438 53.9526V54.4062H30.6562V53.9526C30.6562 53.1754 30.4728 52.3976 30.1248 51.7029C29.6956 50.8443 29.4688 49.8825 29.4688 48.9224V44.9062H27.6875C27.3598 44.9062 27.0938 44.6408 27.0938 44.3125V43.7188H18.1875C17.8597 43.7188 17.5938 43.4533 17.5938 43.125V18.1875C17.5938 17.8592 17.8597 17.5938 18.1875 17.5938ZM53.2188 42.5312V18.7812H37.7812V19.9688H44.3125C44.6403 19.9688 44.9062 20.2342 44.9062 20.5625V22.4287C45.0992 22.3788 45.2969 22.3438 45.5 22.3438C46.8098 22.3438 47.875 23.4089 47.875 24.7188V25.9062C47.875 27.2161 46.8098 28.2812 45.5 28.2812C45.2969 28.2812 45.0992 28.2462 44.9062 28.1963V28.2812H45.5H47.875C48.8571 28.2812 49.6562 29.0804 49.6562 30.0625V33.0312H50.8438V21.1562H46.0938V19.9688H51.4375C51.7652 19.9688 52.0312 20.2342 52.0312 20.5625V33.625C52.0312 33.9533 51.7652 34.2188 51.4375 34.2188H44.9062V35.4062H51.4375C51.7652 35.4062 52.0312 35.6717 52.0312 36V40.75C52.0312 41.0783 51.7652 41.3438 51.4375 41.3438H44.9062V42.5312H53.2188ZM44.9062 26.9323C45.0856 27.0362 45.2892 27.0938 45.5 27.0938C46.1549 27.0938 46.6875 26.5612 46.6875 25.9062V24.7188C46.6875 24.0638 46.1549 23.5312 45.5 23.5312C45.2892 23.5312 45.0856 23.5888 44.9062 23.6922V26.9323ZM47.875 30.6562V33.0312H48.4688V30.0625C48.4688 29.7347 48.2022 29.4688 47.875 29.4688H44.9062V33.0312H46.6875V30.6562H47.875ZM44.9062 38.9688V40.1562H50.8438V36.5938H44.9062V37.7812H50.25V38.9688H44.9062ZM28.2812 43.7188H29.9319C30.2578 43.3572 30.7257 43.125 31.25 43.125C31.7078 43.125 32.1216 43.3037 32.4375 43.5881C32.7534 43.3031 33.1672 43.125 33.625 43.125C34.0828 43.125 34.4966 43.3037 34.8125 43.5881C35.1284 43.3031 35.5422 43.125 36 43.125C36.209 43.125 36.4073 43.1677 36.5938 43.2342V40.1562C36.5938 39.1742 37.3929 38.375 38.375 38.375C39.3571 38.375 40.1562 39.1742 40.1562 40.1562V43.7188H43.7188V21.1562H28.2812V43.7188ZM27.0938 23.6922C26.9144 23.5888 26.7108 23.5312 26.5 23.5312C25.8451 23.5312 25.3125 24.0638 25.3125 24.7188V25.9062C25.3125 26.5612 25.8451 27.0938 26.5 27.0938C26.7108 27.0938 26.9144 27.0362 27.0938 26.9323V23.6922ZM23.5312 33.0312H24.125V30.6562H25.3125V33.0312H27.0938V29.4688H24.125C23.7978 29.4688 23.5312 29.7347 23.5312 30.0625V33.0312ZM27.0938 38.9688H21.75V37.7812H27.0938V36.5938H21.1562V40.1562H27.0938V38.9688ZM18.7812 42.5312H27.0938V41.3438H20.5625C20.2347 41.3438 19.9688 41.0783 19.9688 40.75V36C19.9688 35.6717 20.2347 35.4062 20.5625 35.4062H27.0938V34.2188H20.5625C20.2347 34.2188 19.9688 33.9533 19.9688 33.625V20.5625C19.9688 20.2342 20.2347 19.9688 20.5625 19.9688H25.9062V21.1562H21.1562V33.0312H22.3438V30.0625C22.3438 29.0804 23.1429 28.2812 24.125 28.2812H26.5H27.0938V28.1963C26.9008 28.2462 26.7031 28.2812 26.5 28.2812C25.1902 28.2812 24.125 27.2161 24.125 25.9062V24.7188C24.125 23.4089 25.1902 22.3438 26.5 22.3438C26.7031 22.3438 26.9008 22.3788 27.0938 22.4287V20.5625C27.0938 20.2342 27.3598 19.9688 27.6875 19.9688H34.2188V18.7812H18.7812V42.5312Z" fill="white"/>
</svg>
