<svg width="72" height="72" viewBox="0 0 72 72" fill="none" xmlns="http://www.w3.org/2000/svg">
<circle cx="36" cy="36" r="36" fill="#ED1A3B"/>
<g clip-path="url(#clip0)">
<path d="M16.1787 22.8435C16.1787 21.2577 16.4491 19.7015 16.9827 18.2178C17.1687 17.7007 17.7419 17.4171 18.2605 17.5864C18.9972 17.8268 19.924 17.393 20.9049 16.9336C21.8392 16.496 22.8984 16 24.0136 16C25.1287 16 26.188 16.496 27.1224 16.9335C28.1032 17.3928 29.0297 17.8267 29.7668 17.5863C30.2855 17.4173 30.8587 17.7007 31.0445 18.2179C31.578 19.7013 31.8485 21.2576 31.8485 22.8435C31.8485 23.0752 31.8407 23.3045 31.8291 23.5323C33.8157 22.723 35.9867 22.2754 38.2606 22.2754C47.6915 22.2754 55.3641 29.948 55.3641 39.3789C55.3641 41.5353 54.9612 43.5988 54.2294 45.5007L55.4675 46.7388C55.9379 47.2092 55.9379 47.9747 55.4675 48.4452L46.2662 57.6465C46.0383 57.8745 45.7352 58 45.4129 58C45.0906 58 44.7876 57.8745 44.5596 57.6465L42.7863 55.8733C41.3442 56.2696 39.8269 56.4824 38.2607 56.4824C36.6944 56.4824 35.1771 56.2696 33.735 55.8733L31.9617 57.6464C31.7339 57.8744 31.4307 57.9999 31.1084 57.9999C30.7861 57.9999 30.4831 57.8744 30.2552 57.6464L26.7314 54.1227C26.4911 53.8824 26.4911 53.4929 26.7314 53.2527C26.9718 53.0124 27.3613 53.0124 27.6015 53.2527L31.1084 56.7596L34.3174 53.5506L25.1496 44.3829L21.9407 47.5919L25.5714 51.2225C25.8117 51.4628 25.8117 51.8523 25.5714 52.0925C25.3311 52.3328 24.9416 52.3328 24.7013 52.0925L21.0539 48.4451C20.826 48.2171 20.7004 47.9141 20.7004 47.5918C20.7004 47.2694 20.8259 46.9664 21.0539 46.7385L22.2919 45.5005C21.5602 43.5987 21.1572 41.5352 21.1572 39.3787C21.1572 37.303 21.5309 35.3135 22.2113 33.4713C18.3079 30.9838 16.1787 27.259 16.1787 22.8435ZM45.4128 56.7597L54.5806 47.592L51.3717 44.3831L42.2039 53.5508L45.4128 56.7597ZM39.0724 32.7973H37.8581L36.7119 33.9434C36.4867 34.1688 36.3664 34.4684 36.3735 34.787C36.3804 35.1054 36.5143 35.3998 36.7503 35.6159C37.1997 36.0271 37.9339 35.9931 38.3869 35.5398L42.4539 31.4729C42.9048 31.0219 42.9048 30.2882 42.4539 29.8372C42.2842 29.6676 42.0745 29.5627 41.8549 29.521C41.8565 29.55 41.8594 29.5786 41.8594 29.6079V30.0103C41.8594 31.5471 40.6091 32.7973 39.0724 32.7973ZM40.6289 30.0103V29.6079C40.6289 29.4126 40.4699 29.2537 40.2747 29.2537H37.111C36.698 29.2537 36.3255 29.473 36.1204 29.8136L37.8738 31.567H39.0724C39.9307 31.5668 40.6289 30.8686 40.6289 30.0103ZM38.7535 36.9134C38.5327 37.1342 38.4124 37.4279 38.4148 37.7402C38.4173 38.0526 38.5422 38.3444 38.7665 38.5618C39.2173 38.9987 39.9453 38.993 40.3891 38.5491L44.9596 33.9786H44.9597C45.1781 33.7602 45.2985 33.4697 45.2985 33.1608C45.2985 32.8518 45.1781 32.5614 44.9596 32.3429C44.7412 32.1245 44.4507 32.0042 44.1417 32.0042C43.8328 32.0042 43.5423 32.1245 43.324 32.3429L38.7535 36.9134ZM42.0773 38.6011C41.8564 38.822 41.7362 39.1157 41.7386 39.428C41.741 39.7404 41.8659 40.0321 42.0903 40.2496C42.5411 40.6866 43.2691 40.6807 43.713 40.2369L46.6985 37.2513L47.4654 36.4844C47.6838 36.266 47.8041 35.9755 47.8041 35.6666C47.8041 35.3577 47.6838 35.0672 47.4654 34.8487C47.2399 34.6232 46.9437 34.5105 46.6475 34.5105C46.3514 34.5105 46.0553 34.6231 45.8299 34.8485L45.8296 34.8487L42.0773 38.6011ZM47.5694 38.1205L45.5699 40.1201C45.3493 40.3409 45.2291 40.6344 45.2316 40.9464C45.2341 41.2588 45.359 41.5506 45.5833 41.768C46.0342 42.2049 46.7621 42.1992 47.2059 41.7553L49.2043 39.7569C49.6552 39.3059 49.6552 38.5722 49.2044 38.1212C48.9789 37.8957 48.6827 37.783 48.3864 37.783C48.0906 37.7832 47.7948 37.8956 47.5694 38.1205ZM46.3877 43.3203C45.7877 43.3203 45.1872 43.0978 44.7269 42.6516C44.3965 42.3315 44.1713 41.9329 44.0672 41.4968C43.7052 41.6996 43.3002 41.8018 42.8948 41.8018C42.2947 41.8018 41.6943 41.5792 41.234 41.1331C40.8847 40.7946 40.6524 40.3687 40.5571 39.9032C40.2451 40.0434 39.9082 40.1141 39.571 40.1141C38.971 40.1141 38.3705 39.8915 37.9101 39.4454C37.4472 38.9966 37.1894 38.3945 37.1844 37.7498C37.1828 37.5364 37.2094 37.3273 37.2617 37.1264C36.7754 37.0754 36.3041 36.8756 35.9195 36.5235C35.4335 36.0785 35.1578 35.4715 35.1433 34.8143C35.1289 34.1567 35.377 33.5384 35.842 33.0735L36.7411 32.1743L34.7772 30.2104C34.326 29.7596 33.5923 29.7595 33.1415 30.2104C32.6911 30.6609 32.6906 31.3935 33.1399 31.8446C33.1404 31.8451 33.1408 31.8456 33.1414 31.8461C33.3817 32.0864 33.3817 32.476 33.1413 32.7162C32.9012 32.9564 32.5116 32.9564 32.2713 32.7162C31.8205 32.2652 31.0866 32.2652 30.6358 32.7162C30.1853 33.1666 30.1849 33.8992 30.6342 34.3503C30.6347 34.3508 30.6352 34.3513 30.6357 34.3519H30.6358C30.876 34.5921 30.876 34.9817 30.6358 35.2219C30.3955 35.4622 30.0059 35.4622 29.7658 35.2219C29.5472 35.0034 29.2568 34.8831 28.9478 34.8831C28.6389 34.8831 28.3484 35.0034 28.1301 35.2218C27.679 35.6728 27.679 36.4066 28.1301 36.8575C28.3703 37.0978 28.3703 37.4873 28.1301 37.7275C27.8898 37.9678 27.5002 37.9678 27.26 37.7275C27.0362 37.5038 26.7411 37.3833 26.4226 37.389C26.1065 37.3942 25.8131 37.5248 25.5964 37.7564C25.1756 38.2062 25.2028 38.9418 25.6571 39.3961L30.0714 43.8103C30.3117 44.0506 30.3117 44.4402 30.0714 44.6803C29.8311 44.9206 29.4416 44.9206 29.2013 44.6803L28.1245 43.6039L27.1175 44.6109L33.6467 51.14L37.1776 47.609C36.6754 47.4331 36.1407 47.3487 35.601 47.3688L34.4302 47.4121C33.3988 47.4509 32.3811 47.1994 31.484 46.6868C31.1889 46.5182 31.0864 46.1424 31.255 45.8474C31.4236 45.5523 31.7996 45.4499 32.0944 45.6184C32.792 46.017 33.5848 46.2122 34.3847 46.1823L35.5555 46.1391C37.086 46.0817 38.5852 46.6712 39.6682 47.7541L42.9642 51.0501L49.2907 44.7237L47.5742 43.0073C47.2088 43.2156 46.7985 43.3203 46.3877 43.3203ZM38.2606 55.252C39.4668 55.252 40.641 55.1141 41.7707 54.8577L41.317 54.404C41.0891 54.1761 40.9635 53.873 40.9635 53.5507C40.9635 53.2283 41.089 52.9253 41.317 52.6974L42.0941 51.9203L38.798 48.6242C38.6474 48.4735 38.4859 48.3358 38.3162 48.2104L34.5167 52.0099L35.2042 52.6974C35.6745 53.1679 35.6745 53.9334 35.2041 54.4039L34.7504 54.8576C35.8802 55.1141 37.0544 55.252 38.2606 55.252ZM22.3875 39.3789C22.3875 41.1857 22.6915 42.9227 23.2503 44.5422L24.2962 43.4962C24.5241 43.2683 24.8272 43.1427 25.1495 43.1427C25.4718 43.1427 25.7749 43.2683 26.0028 43.4962L26.2474 43.7408L27.2544 42.7339L24.7867 40.2662C23.8685 39.348 23.8284 37.845 24.6975 36.916C25.1439 36.4386 25.7493 36.1697 26.4017 36.1588C26.4562 36.1578 26.5106 36.1588 26.5646 36.1615C26.5318 35.5103 26.7634 34.8481 27.2596 34.3518C27.7105 33.9009 28.3099 33.6526 28.9475 33.6526C28.9887 33.6526 29.0297 33.6537 29.0705 33.6558C29.0376 33.0046 29.2691 32.3423 29.7654 31.8461C30.262 31.3494 30.9242 31.1182 31.5763 31.1512C31.543 30.4996 31.7746 29.8369 32.2712 29.3403C33.0635 28.5481 34.2785 28.4307 35.1966 28.9874C35.6371 28.3954 36.339 28.0232 37.1108 28.0232H40.2745C40.6141 28.0232 40.9282 28.1315 41.1865 28.314C41.9373 28.1708 42.7437 28.387 43.3239 28.9671C43.8202 29.4634 44.0516 30.1256 44.0186 30.7769C44.0595 30.7748 44.1005 30.7737 44.1416 30.7737C44.7793 30.7737 45.3788 31.022 45.8295 31.4728C46.2804 31.9237 46.5288 32.5231 46.5288 33.1608C46.5288 33.202 46.5276 33.243 46.5256 33.2838C47.1767 33.2508 47.839 33.4823 48.3352 33.9786C48.7862 34.4295 49.0344 35.029 49.0344 35.6666C49.0344 35.9918 48.9694 36.307 48.8463 36.5977C49.2965 36.6855 49.7262 36.9033 50.0742 37.2513C51.0049 38.182 51.0049 39.6964 50.0742 40.6271L48.504 42.1973L50.1605 43.8539L50.5182 43.4962C50.7461 43.2683 51.0492 43.1427 51.3715 43.1427C51.6938 43.1427 51.9968 43.2683 52.2247 43.4962L53.2707 44.5422C53.8293 42.9227 54.1333 41.1857 54.1333 39.3789C54.1333 30.6265 47.0127 23.5059 38.2603 23.5059C35.9139 23.5059 33.6858 24.0193 31.6798 24.9371C31.0345 28.8892 28.5368 32.1443 24.483 34.2378C24.3359 34.3137 24.1746 34.3518 24.0132 34.3518C23.852 34.3518 23.6906 34.3138 23.5437 34.2378C23.458 34.1935 23.3745 34.1477 23.2902 34.1024C22.7066 35.754 22.3875 37.5298 22.3875 39.3789ZM24.0136 33.095C26.0496 32.027 27.6515 30.6501 28.776 29.0011C29.9983 27.2084 30.6181 25.1367 30.6181 22.8435C30.6181 21.4634 30.3933 20.1085 29.9493 18.8126C28.817 19.0858 27.6912 18.5586 26.6007 18.0479C25.7424 17.646 24.855 17.2305 24.0136 17.2305C23.1722 17.2305 22.2848 17.646 21.4266 18.0479C20.336 18.5587 19.2101 19.0859 18.0779 18.8126C17.634 20.1084 17.4091 21.4635 17.4091 22.8435C17.4091 25.1367 18.029 27.2084 19.2513 29.0011C20.3757 30.65 21.9776 32.027 24.0136 33.095Z" fill="white"/>
<path d="M19.7682 23.6419C19.4439 23.5404 19.2634 23.1952 19.3649 22.8709C20.0041 20.8287 21.8723 19.4565 24.0138 19.4565C26.6996 19.4565 28.8848 21.6416 28.8848 24.3274C28.8848 27.0132 26.6996 29.1982 24.0138 29.1982C22.021 29.1982 20.2491 28.0045 19.4996 26.157C19.3719 25.8422 19.5236 25.4834 19.8385 25.3557C20.1535 25.2278 20.5122 25.3796 20.64 25.6944C21.2002 27.0754 22.5245 27.9677 24.0139 27.9677C26.0213 27.9677 27.6544 26.3346 27.6544 24.3273C27.6544 22.32 26.0213 20.6869 24.0139 20.6869C22.4132 20.6869 21.0169 21.7123 20.5392 23.2384C20.4377 23.5628 20.0922 23.7433 19.7682 23.6419Z" fill="white"/>
<path d="M22.4021 22.8313L24.302 24.7313L25.6265 23.4068C25.8668 23.1665 26.2563 23.1665 26.4966 23.4068C26.7368 23.647 26.7368 24.0366 26.4966 24.2768L24.7371 26.0363C24.6169 26.1564 24.4594 26.2165 24.302 26.2165C24.1446 26.2165 23.9871 26.1565 23.8669 26.0363L21.5319 23.7013C21.2917 23.4611 21.2917 23.0715 21.5319 22.8313C21.7723 22.5911 22.1618 22.5911 22.4021 22.8313Z" fill="white"/>
</g>
<defs>
<clipPath id="clip0">
<rect width="42" height="42" fill="white" transform="matrix(-1 0 0 1 57 16)"/>
</clipPath>
</defs>
</svg>
