<svg width="72" height="72" viewBox="0 0 72 72" fill="none" xmlns="http://www.w3.org/2000/svg">
<circle cx="36" cy="36" r="36" fill="#ED1A3B"/>
<g clip-path="url(#clip0)">
<path d="M53.6148 34.3135C52.0468 33.5296 49.107 33.5205 48.9826 33.5205C48.6098 33.5205 48.3076 33.8227 48.3076 34.1955C48.3076 34.5683 48.6098 34.8705 48.9826 34.8705C49.7412 34.8706 51.9438 34.9874 53.0111 35.521C53.108 35.5695 53.211 35.5924 53.3124 35.5924C53.56 35.5924 53.7984 35.4556 53.9167 35.2192C54.0835 34.8857 53.9483 34.4803 53.6148 34.3135Z" fill="white"/>
<path d="M56.98 43.9237L54.1923 43.1272C54.072 43.0928 53.9879 42.9814 53.9879 42.8562V41.9257C54.2147 41.7685 54.4311 41.5927 54.6333 41.3964C55.6134 40.4453 56.1531 39.1695 56.1531 37.804V36.52L56.4227 35.981C56.7185 35.3893 56.8748 34.7268 56.8748 34.0653V30.5868C56.8748 30.214 56.5726 29.9118 56.1998 29.9118H49.7043C47.3423 29.9118 45.4206 31.8334 45.4206 34.1954V34.2356C45.4206 34.7857 45.5507 35.3366 45.7966 35.8285L46.1423 36.5199V37.6224C46.1423 39.3697 47.0034 40.9374 48.3076 41.8808L48.3077 42.856C48.3077 43.0064 48.3077 43.0687 47.7504 43.228L46.3901 43.6166L42.4552 42.1858C42.4693 42.0001 42.4067 41.8113 42.2713 41.669L41.0139 40.348V38.1304C41.1468 38.0209 41.2778 37.9084 41.4048 37.7894C42.9911 36.3026 43.9008 34.2034 43.9008 32.0302V30.2592C44.3798 29.2169 44.6225 28.1139 44.6225 26.978V19.7609C44.6225 19.3882 44.3203 19.0859 43.9475 19.0859H33.8433C30.2874 19.0859 27.3945 21.9789 27.3945 25.5347V26.9782C27.3945 28.1141 27.6373 29.2171 28.1162 30.2593V31.7831C28.1162 34.3064 29.2382 36.5796 31.0032 38.0783V40.3481L29.7458 41.6691C29.6103 41.8114 29.5477 42.0002 29.5618 42.1859L25.4088 43.696C25.1078 43.8054 24.8282 43.9537 24.5743 44.1332L23.9221 43.8071C25.8634 42.9621 26.4784 41.7737 26.5079 41.7146C26.603 41.5246 26.603 41.3009 26.5079 41.1109C26.0213 40.1377 25.9624 38.3538 25.915 36.9204C25.8993 36.4432 25.8843 35.9924 25.8558 35.591C25.6257 32.3534 23.1643 29.9118 20.1304 29.9118C17.0965 29.9118 14.6351 32.3533 14.4051 35.591C14.3766 35.9925 14.3616 36.4433 14.3459 36.9206C14.2985 38.3539 14.2395 40.1376 13.753 41.1108C13.6579 41.3008 13.6579 41.5246 13.753 41.7145C13.7825 41.7736 14.3962 42.9596 16.3414 43.8056L14.5299 44.7113C13.5615 45.1958 12.96 46.1692 12.96 47.2518V52.2386C12.96 52.6114 13.2622 52.9136 13.635 52.9136C14.0077 52.9136 14.31 52.6114 14.31 52.2386V47.2518C14.31 46.6837 14.6256 46.173 15.1336 45.9189L17.3893 44.7911L18.1739 45.5368C18.7226 46.0581 19.4264 46.3187 20.1304 46.3187C20.8343 46.3187 21.5385 46.0579 22.087 45.5368L22.8715 44.7912L23.607 45.1589C23.2606 45.7131 23.0641 46.3629 23.0641 47.0435V52.2388C23.0641 52.6116 23.3663 52.9138 23.7391 52.9138C24.1119 52.9138 24.4141 52.6116 24.4141 52.2388V47.0435C24.4141 46.1169 24.9992 45.2815 25.8701 44.9648L30.2488 43.3726L32.0716 46.1069C32.3046 46.4565 32.678 46.6807 33.096 46.7221C33.1426 46.7266 33.189 46.7289 33.2353 46.7289C33.6041 46.7289 33.9573 46.5837 34.2214 46.3198L35.3334 45.2077V52.2389C35.3334 52.6117 35.6356 52.9139 36.0084 52.9139C36.3812 52.9139 36.6834 52.6117 36.6834 52.2389V45.2077L37.7955 46.3198C38.0594 46.5838 38.4127 46.729 38.7816 46.729C38.8278 46.729 38.8742 46.7267 38.9207 46.7221C39.3389 46.6807 39.7123 46.4566 39.9453 46.107L41.7682 43.3728L46.1467 44.965C47.0176 45.2817 47.6028 46.1171 47.6028 47.0437V52.239C47.6028 52.6117 47.905 52.914 48.2778 52.914C48.6505 52.914 48.9528 52.6117 48.9528 52.239V47.0437C48.9528 46.1052 48.5799 45.225 47.9544 44.574L48.1212 44.5264C48.2894 44.4784 48.5189 44.4126 48.7493 44.2996L50.4727 46.023V52.239C50.4727 52.6117 50.7749 52.914 51.1477 52.914C51.5205 52.914 51.8227 52.6117 51.8227 52.239V46.023L53.5341 44.3116C53.6251 44.3578 53.7207 44.3969 53.8213 44.4256L56.6092 45.2221C57.2455 45.4039 57.69 45.9931 57.69 46.655V52.239C57.69 52.6117 57.9922 52.914 58.365 52.914C58.7377 52.914 59.04 52.6117 59.04 52.239V46.655C59.04 45.3934 58.1929 44.2703 56.98 43.9237ZM17.2903 42.7315C16.0277 42.2771 15.3944 41.6714 15.124 41.3407C15.3083 40.8588 15.4279 40.3069 15.5088 39.7244C15.881 40.6169 16.5044 41.3788 17.2903 41.9224V42.7315ZM21.1572 44.5583C20.5814 45.1053 19.6795 45.1052 19.104 44.5582L18.4762 43.9617C18.5822 43.7632 18.6404 43.5382 18.6404 43.3025V42.583C19.1113 42.7302 19.6119 42.8096 20.1306 42.8096C20.6488 42.8096 21.1491 42.7298 21.6208 42.5835L21.6207 43.3024C21.6207 43.5382 21.6788 43.7633 21.7848 43.9618L21.1572 44.5583ZM20.1308 41.4596C18.1152 41.4596 16.4755 39.8198 16.4755 37.8042C16.4755 37.4314 16.1732 37.1292 15.8005 37.1292C15.7627 37.1292 15.7258 37.1331 15.6897 37.1391C15.6916 37.0811 15.6935 37.0229 15.6955 36.9654C15.7105 36.5013 15.725 36.0629 15.7518 35.6869C15.838 34.474 16.3226 33.3564 17.1164 32.5398C17.9173 31.7157 18.9878 31.2619 20.1306 31.2619C21.2734 31.2619 22.3438 31.7157 23.1448 32.5398C23.9386 33.3564 24.4233 34.474 24.5095 35.6869C24.5361 36.0628 24.5507 36.5011 24.566 36.9652C24.5674 37.005 24.5687 37.0454 24.5701 37.0856C23.8357 35.9541 22.7015 35.1202 21.236 34.6494C19.8821 34.2144 18.7177 34.2413 18.6686 34.2426C18.4918 34.2475 18.3241 34.3215 18.2014 34.4488L16.9835 35.7118C16.7248 35.9802 16.7325 36.4075 17.0009 36.6663C17.2693 36.925 17.6966 36.9172 17.9553 36.6489L18.9687 35.598C19.8415 35.6406 22.6492 35.9671 23.7412 38.3717C23.4664 40.1436 21.9434 41.4596 20.1308 41.4596ZM22.9706 42.7337L22.9707 41.9287C23.7559 41.388 24.3802 40.6275 24.7528 39.7282C24.8337 40.3095 24.9531 40.8601 25.1371 41.3409C24.8682 41.6685 24.2319 42.2796 22.9706 42.7337ZM29.4662 31.783V30.1083C29.4662 30.0067 29.4433 29.9064 29.3991 29.8148C28.9648 28.9154 28.7445 27.961 28.7445 26.9782V25.5348C28.7445 22.7233 31.0319 20.436 33.8433 20.436H43.2725V26.9783C43.2725 27.9611 43.0523 28.9155 42.6179 29.8149C42.5737 29.9065 42.5508 30.0068 42.5508 30.1084V32.0304C42.5508 33.8584 41.8159 35.5539 40.4816 36.8046C40.315 36.9607 40.1421 37.107 39.9634 37.2433C39.9594 37.246 39.9556 37.249 39.9518 37.2518C38.7018 38.2009 37.1707 38.6621 35.5717 38.5585C32.1481 38.3368 29.4662 35.3607 29.4662 31.783ZM33.2668 45.365C33.2622 45.3697 33.2513 45.3808 33.2292 45.3784C33.2073 45.3763 33.1986 45.3634 33.1949 45.3578L31.0957 42.2089L31.7712 41.4991L34.9559 43.6759L33.2668 45.365ZM36.0085 42.7602L32.3532 40.2616V39.0016C33.299 39.5129 34.358 39.8326 35.4844 39.9055C35.6623 39.9171 35.8391 39.9227 36.0154 39.9227C37.3061 39.9227 38.5483 39.6142 39.6639 39.0286V40.2616L36.0085 42.7602ZM38.8221 45.358C38.8184 45.3636 38.8098 45.3765 38.7878 45.3786C38.7658 45.3814 38.755 45.3698 38.7502 45.3652L37.0612 43.6762L40.2458 41.4993L40.9214 42.2091L38.8221 45.358ZM51.1477 44.7885L49.6159 43.2568C49.6426 43.1354 49.6577 43.0024 49.6576 42.8558L49.6576 42.571C50.0826 42.7105 50.5306 42.7933 50.9942 42.8071C51.0463 42.8088 51.0978 42.8095 51.1497 42.8095C51.6619 42.8095 52.162 42.7321 52.6379 42.5844V42.8562C52.6379 42.9908 52.6548 43.1228 52.6867 43.2496L51.1477 44.7885ZM53.6932 40.4276C52.9777 41.1219 52.0326 41.4886 51.0348 41.4578C49.0815 41.3992 47.4923 39.6787 47.4923 37.6226V36.3607C47.4923 36.2559 47.4679 36.1525 47.4211 36.0589L47.0041 35.2249C46.8514 34.9194 46.7706 34.5774 46.7706 34.2357V34.1955C46.7706 32.5778 48.0867 31.2619 49.7043 31.2619H55.5248V34.0654C55.5248 34.5184 55.4177 34.9721 55.2151 35.3774L54.8744 36.0589C54.8275 36.1526 54.8031 36.2559 54.8031 36.3607V37.8041C54.8031 38.8013 54.4089 39.733 53.6932 40.4276Z" fill="white"/>
<path d="M55.4777 47.2332C55.105 47.2332 54.8027 47.5354 54.8027 47.9082V52.2385C54.8027 52.6113 55.105 52.9135 55.4777 52.9135C55.8505 52.9135 56.1527 52.6113 56.1527 52.2385V47.9082C56.1527 47.5355 55.8505 47.2332 55.4777 47.2332Z" fill="white"/>
<path d="M16.5217 48.1255C16.1489 48.1255 15.8467 48.4277 15.8467 48.8005V52.2386C15.8467 52.6114 16.1489 52.9136 16.5217 52.9136C16.8945 52.9136 17.1967 52.6114 17.1967 52.2386V48.8005C17.1967 48.4278 16.8945 48.1255 16.5217 48.1255Z" fill="white"/>
<path d="M41.5377 27.2228C38.9848 24.6698 33.6434 25.1579 31.4652 25.4862C30.7791 25.5896 30.2812 26.1702 30.2812 26.8667V28.4218C30.2812 28.7945 30.5835 29.0968 30.9563 29.0968C31.329 29.0968 31.6313 28.7945 31.6313 28.4218V26.8666C31.6313 26.8437 31.6464 26.8241 31.6665 26.821C32.5366 26.6899 34.263 26.4876 36.0518 26.6068C38.1567 26.7469 39.6813 27.2753 40.5832 28.1773C40.8468 28.4409 41.2742 28.4409 41.5377 28.1773C41.8014 27.9137 41.8014 27.4863 41.5377 27.2228Z" fill="white"/>
<path d="M28.0695 48.6768C27.6968 48.6768 27.3945 48.979 27.3945 49.3518V52.2387C27.3945 52.6115 27.6968 52.9137 28.0695 52.9137C28.4423 52.9137 28.7445 52.6115 28.7445 52.2387V49.3518C28.7445 48.9791 28.4423 48.6768 28.0695 48.6768Z" fill="white"/>
<path d="M43.9475 48.6768C43.5747 48.6768 43.2725 48.979 43.2725 49.3518V52.2387C43.2725 52.6115 43.5747 52.9137 43.9475 52.9137C44.3202 52.9137 44.6225 52.6115 44.6225 52.2387V49.3518C44.6225 48.9791 44.3202 48.6768 43.9475 48.6768Z" fill="white"/>
</g>
<defs>
<clipPath id="clip0">
<rect width="46.08" height="46.08" fill="white" transform="translate(12.96 12.96)"/>
</clipPath>
</defs>
</svg>
