<svg width="72" height="72" viewBox="0 0 72 72" fill="none" xmlns="http://www.w3.org/2000/svg">
<circle cx="36" cy="36" r="36" fill="#ED1A3B"/>
<g clip-path="url(#clip0)">
<path d="M31.8926 51.2566L31.7572 51.8766L31.8877 51.256C31.522 51.1884 31.167 51.4115 31.0949 51.7543C31.0228 52.0974 31.2608 52.43 31.6268 52.4975C31.6279 52.4979 31.6381 52.4995 31.6391 52.4998C31.682 52.5074 31.7245 52.5114 31.7667 52.5114C32.0842 52.5114 32.3672 52.3004 32.4287 51.9972C32.499 51.6538 32.2589 51.3222 31.8926 51.2566Z" fill="white"/>
<path d="M37.0523 51.46L37.1195 52.0896L37.0502 51.4604C36.6793 51.496 36.4096 51.8068 36.448 52.1545C36.4835 52.4801 36.7767 52.7227 37.1184 52.7227C37.1416 52.7227 37.1652 52.7214 37.1884 52.7194L37.207 52.7174C37.5761 52.6769 37.838 52.3648 37.7969 52.0187C37.7554 51.673 37.4214 51.4238 37.0523 51.46Z" fill="white"/>
<path d="M34.4699 51.5398C34.4699 51.5398 34.4604 51.5395 34.46 51.5395C34.0881 51.5237 33.7773 51.7946 33.7604 52.1436C33.7439 52.4927 34.0364 52.7883 34.4087 52.8041C34.4193 52.8048 34.4295 52.8048 34.44 52.8048C34.7986 52.8048 35.0974 52.5401 35.1136 52.2006C35.1305 51.8516 34.8425 51.5556 34.4699 51.5398Z" fill="white"/>
<path d="M29.3984 50.6137L29.39 50.6107C29.0391 50.4927 28.6566 50.6647 28.5308 50.9937C28.4045 51.3226 28.5909 51.6865 28.9417 51.8048C29.0173 51.8302 29.0943 51.842 29.1699 51.842C29.4466 51.842 29.7064 51.6815 29.8052 51.4231C29.9314 51.0942 29.7493 50.7317 29.3984 50.6137Z" fill="white"/>
<path d="M39.5999 51.0169L39.7662 51.6303L39.5978 51.0176C39.2367 51.1046 39.0194 51.4497 39.1122 51.7882C39.1906 52.0736 39.4649 52.2635 39.7655 52.2635C39.8214 52.2635 39.878 52.2569 39.9346 52.243C39.9374 52.2424 39.9493 52.2394 39.9525 52.2387C40.3107 52.1471 40.5203 51.802 40.4246 51.4655C40.329 51.1293 39.9595 50.9293 39.5999 51.0169Z" fill="white"/>
<path d="M42.0416 50.2191L42.3091 50.7998L42.0395 50.2197C41.6977 50.3595 41.5413 50.7322 41.69 51.0526C41.8008 51.2909 42.049 51.433 42.3095 51.433C42.3991 51.433 42.4909 51.4158 42.5784 51.3802C42.5812 51.3789 42.5921 51.3746 42.5949 51.3733C42.9335 51.2299 43.0829 50.8581 42.9317 50.5401C42.7806 50.2217 42.3819 50.079 42.0416 50.2191Z" fill="white"/>
<path d="M26.8213 21.372C26.9296 21.372 27.0396 21.3476 27.1412 21.2968C27.4703 21.1324 27.5944 20.7491 27.4189 20.4406C27.2435 20.1324 26.835 20.0154 26.5059 20.1802L26.4978 20.1841C26.1691 20.3486 26.0486 20.7299 26.224 21.0384C26.3449 21.2514 26.5798 21.372 26.8213 21.372Z" fill="white"/>
<path d="M19.0129 28.4401C19.1131 28.4892 19.2203 28.5126 19.3262 28.5126C19.5691 28.5126 19.8039 28.3893 19.9245 28.1735L19.9365 28.1514C20.101 27.8376 19.9632 27.4582 19.6285 27.3043C19.2963 27.1507 18.8948 27.2773 18.7282 27.5868C18.5559 27.8959 18.6832 28.2779 19.0129 28.4401Z" fill="white"/>
<path d="M18.0624 30.8208C18.1342 30.8435 18.2069 30.8544 18.279 30.8544C18.5603 30.8544 18.8229 30.688 18.9181 30.4243L18.9269 30.3992C19.0366 30.0654 18.8366 29.711 18.4801 29.6085C18.1268 29.5064 17.7517 29.6903 17.6388 30.0199C17.5203 30.3505 17.7098 30.709 18.0624 30.8208Z" fill="white"/>
<path d="M20.3443 26.2262C20.4642 26.308 20.6031 26.3475 20.7409 26.3475C20.9494 26.3475 21.1554 26.2569 21.2872 26.0868L21.296 26.0756C21.5126 25.7915 21.4419 25.3973 21.1396 25.1943C20.8369 24.9909 20.415 25.0562 20.1977 25.3396L20.7416 25.7147L20.1956 25.3423C19.9762 25.6251 20.043 26.0209 20.3443 26.2262Z" fill="white"/>
<path d="M24.5287 22.739C24.6704 22.739 24.8131 22.6971 24.9351 22.6101C25.2361 22.4038 25.3011 22.0079 25.081 21.7258C24.8606 21.4437 24.4384 21.3827 24.1378 21.589L24.1209 21.6006C23.8242 21.8118 23.7651 22.2097 23.9905 22.4882C24.1234 22.6523 24.3248 22.739 24.5287 22.739Z" fill="white"/>
<path d="M17.4605 40.4177C17.5498 40.6896 17.8163 40.8639 18.1045 40.8639C18.1703 40.8639 18.2374 40.8547 18.3035 40.8356C18.6579 40.7337 18.8579 40.3817 18.7518 40.0489C18.6502 39.7166 18.2828 39.5215 17.9252 39.6128C17.5656 39.7048 17.3536 40.0528 17.4517 40.39C17.4538 40.3966 17.4584 40.4111 17.4605 40.4177Z" fill="white"/>
<path d="M22.4895 24.4066C22.665 24.4066 22.8404 24.343 22.9729 24.2165C23.2363 23.9693 23.2363 23.5685 22.9729 23.3216C22.7093 23.0744 22.2818 23.0744 22.0181 23.3216L22.0068 23.3322C21.746 23.5817 21.7513 23.9818 22.0174 24.2263C22.1485 24.347 22.319 24.4066 22.4895 24.4066Z" fill="white"/>
<path d="M18.2059 37.6587C18.1584 37.3149 17.8234 37.071 17.4564 37.1119C17.0865 37.1534 16.8222 37.4682 16.8661 37.8152L16.87 37.8406C16.9192 38.155 17.2071 38.3805 17.5365 38.3805C17.5689 38.3805 17.6019 38.3782 17.6353 38.3736C18.0027 38.3235 18.2576 38.0031 18.2059 37.6587Z" fill="white"/>
<path d="M17.358 35.8464C17.365 35.8464 17.3717 35.8467 17.3784 35.8467C17.7419 35.8467 18.0421 35.5755 18.0527 35.2323L18.0534 35.2053C18.0534 34.8556 17.751 34.5725 17.3784 34.5725C17.0082 34.5725 16.7079 34.8513 16.7034 35.1971C16.6935 35.5458 16.9864 35.8362 17.358 35.8464Z" fill="white"/>
<path d="M17.5064 33.3085C17.5468 33.3151 17.5865 33.3184 17.6262 33.3184C17.9469 33.3184 18.2313 33.1031 18.29 32.7969C18.2918 32.7877 18.2932 32.7785 18.2946 32.7693C18.3491 32.4235 18.0942 32.1018 17.725 32.0511C17.3605 32.0003 17.0191 32.2353 16.9604 32.5761C16.8964 32.9196 17.1404 33.2468 17.5064 33.3085Z" fill="white"/>
<path d="M49.3475 26.4261C49.4782 26.604 49.6885 26.6993 49.9029 26.6993C50.0348 26.6993 50.1684 26.663 50.2851 26.5876C50.592 26.3898 50.6697 25.9956 50.4588 25.7076L49.8977 26.0596L50.4566 25.7046C50.2471 25.4152 49.8273 25.3397 49.519 25.5358C49.2103 25.732 49.1298 26.1255 49.339 26.4149L49.3475 26.4261Z" fill="white"/>
<path d="M52.7939 32.794C52.4233 32.8329 52.1568 33.1464 52.1987 33.4938L52.2022 33.5211C52.2503 33.8365 52.5393 34.0643 52.8698 34.0643C52.9014 34.0643 52.9338 34.0623 52.9661 34.058C53.3321 34.0089 53.5873 33.6928 53.5399 33.3501C53.4973 33.0037 53.1619 32.7552 52.7939 32.794Z" fill="white"/>
<path d="M51.6545 31.0083L51.6573 31.0165C51.7438 31.2924 52.0128 31.471 52.3046 31.471C52.3675 31.471 52.4315 31.4628 52.4951 31.445C52.853 31.3464 53.0576 30.9948 52.9525 30.6592L52.9497 30.651C52.8446 30.3155 52.4695 30.1237 52.1116 30.2225C51.754 30.3211 51.5494 30.6728 51.6545 31.0083Z" fill="white"/>
<path d="M50.7017 28.6421C50.8195 28.8666 51.0603 28.9974 51.3106 28.9974C51.4101 28.9974 51.5114 28.9767 51.6066 28.9325C51.941 28.7783 52.0798 28.4012 51.9149 28.0874L51.3032 28.3547L51.9142 28.0861C51.756 27.7697 51.3542 27.6336 51.0167 27.7819C50.6792 27.9302 50.5337 28.307 50.6919 28.6234L50.7017 28.6421Z" fill="white"/>
<path d="M47.6467 24.4498C47.7789 24.5764 47.9536 24.6397 48.1287 24.6397C48.2992 24.6397 48.4697 24.5797 48.6012 24.4587C48.8656 24.2161 48.8715 23.8196 48.6167 23.5698C48.3639 23.3144 47.9378 23.2989 47.6643 23.5355C47.3904 23.7725 47.3735 24.173 47.6263 24.4297L47.6467 24.4498Z" fill="white"/>
<path d="M53.0134 35.4362C52.6425 35.4273 52.3321 35.6999 52.3191 36.0476C52.3022 36.394 52.5859 36.689 52.9558 36.7085C52.9688 36.7091 52.9811 36.7095 52.9941 36.7095C53.3495 36.7095 53.6473 36.4488 53.6673 36.1116L53.6684 36.0855C53.6789 35.7365 53.3857 35.4465 53.0134 35.4362Z" fill="white"/>
<path d="M43.3311 21.3426L43.3473 21.3508C43.4478 21.4009 43.5558 21.4246 43.6619 21.4246C43.902 21.4246 44.1344 21.3033 44.2564 21.0908C44.4322 20.7839 44.3084 20.4003 43.9822 20.2342L43.6556 20.7879L43.9801 20.2328C43.6531 20.0647 43.2429 20.1771 43.0636 20.4837C42.8846 20.7898 43.0042 21.1748 43.3311 21.3426Z" fill="white"/>
<path d="M45.6127 22.7304L45.6233 22.738C45.7452 22.8247 45.8883 22.8665 46.0307 22.8665C46.2346 22.8665 46.4361 22.7802 46.569 22.616C46.7943 22.3375 46.7359 21.9407 46.4392 21.7294L46.4347 21.7265C46.139 21.5136 45.7154 21.5656 45.4883 21.8428C45.2611 22.12 45.317 22.5175 45.6127 22.7304Z" fill="white"/>
<path d="M58.6234 45.0166L55.4547 42.0408C55.1851 41.7876 54.8268 41.6482 54.4454 41.6482C54.0643 41.6482 53.7057 41.7876 53.4364 42.0408L53.3629 42.1096L53.1548 41.9145C52.8978 41.6729 52.6988 41.3918 52.5638 41.0856C52.5519 41.0451 52.5361 41.0055 52.5157 40.9683C52.4123 40.696 52.3585 40.4063 52.3585 40.1087V39.2669C52.42 39.2973 52.4872 39.3193 52.5593 39.3309C52.5979 39.3371 52.6363 39.3401 52.6742 39.3401C52.9945 39.3401 53.2779 39.1259 53.3373 38.8213C53.4093 38.4792 53.1727 38.1467 52.8075 38.0781C52.6468 38.0481 52.4879 38.0741 52.3543 38.142C52.3128 37.2429 51.9208 36.4031 51.2388 35.7624L48.1647 32.8755C47.475 32.2279 46.5577 31.8713 45.5821 31.8713C44.827 31.8713 44.1077 32.0858 43.5009 32.483L43.1747 32.1755V24.9377C43.1747 24.0653 42.8368 23.2235 42.2237 22.5679C41.7874 22.1019 41.5473 21.5034 41.5473 20.8824V20.3521H41.5937C42.3805 20.3521 43.0207 19.7519 43.0207 19.014V14.8044C43.0207 14.0665 42.3805 13.4663 41.5937 13.4663H28.9849C28.1981 13.4663 27.5579 14.0665 27.5579 14.8044V19.014C27.5579 19.7519 28.1981 20.3521 28.9849 20.3521H29.0889V20.6296C29.0889 21.3119 28.8059 21.9532 28.2923 22.4354L26.9314 23.7136C26.2093 24.3919 25.8117 25.2933 25.8117 26.2524V30.335C25.8117 30.8897 25.9537 31.4135 26.2037 31.8775C25.3086 31.926 24.4743 32.2757 23.8352 32.8755L20.7611 35.7624C20.039 36.4407 19.6414 37.3425 19.6414 38.3012V40.1087C19.6414 40.791 19.3588 41.4323 18.8451 41.9145L18.6395 42.1077C18.6384 42.1083 18.6377 42.109 18.637 42.1096L18.5639 42.0408C18.2942 41.7876 17.936 41.6482 17.5545 41.6482C17.1734 41.6482 16.8148 41.7876 16.5455 42.0408L13.3766 45.0166C12.8211 45.5384 12.8211 46.3874 13.3766 46.9091L14.4618 47.9279C14.7252 48.1754 15.1527 48.1757 15.4163 47.9289C15.68 47.6817 15.6807 47.2812 15.417 47.0337L14.3321 46.0146C14.3015 45.986 14.3015 45.9395 14.3321 45.9108L17.5011 42.9349C17.5306 42.9073 17.5788 42.9069 17.6083 42.9349L18.1592 43.4524H18.1596L25.682 50.5168L26.5246 51.3085C26.5552 51.3372 26.5552 51.3836 26.5246 51.4123L23.356 54.3882C23.3261 54.4162 23.278 54.4162 23.2484 54.3882L17.3281 48.8283C17.0648 48.5808 16.6373 48.5805 16.3736 48.8273C16.1096 49.0745 16.1093 49.475 16.3726 49.7225L22.2932 55.2824C22.5625 55.5355 22.9211 55.6749 23.3026 55.6749C23.6837 55.6749 24.0419 55.5355 24.3116 55.2824L27.4802 52.3065C28.0357 51.7851 28.0357 50.9361 27.4802 50.4143L27.4457 50.382L27.8455 50.0066C28.3123 49.5679 28.9325 49.3043 29.5917 49.2644C30.5195 49.208 31.3924 48.8369 32.0495 48.2196L34.9604 45.4846C35.7999 45.278 36.4535 44.6369 36.631 43.8341C36.9302 43.9675 37.2645 44.0427 37.6175 44.0427C38.887 44.0427 39.9199 43.0734 39.9199 41.8816V40.379C40.2103 40.5032 40.5327 40.5731 40.8723 40.5731C42.1418 40.5731 43.1743 39.6038 43.1743 38.412V33.9698L45.2506 35.9259C45.3825 36.0501 45.5558 36.1121 45.7291 36.1121C45.9014 36.1121 46.0736 36.0508 46.2055 35.9279C46.4695 35.6813 46.4705 35.2809 46.2076 35.033L44.4765 33.4022C44.8115 33.2292 45.1891 33.1369 45.5821 33.1369C46.1967 33.1369 46.7747 33.3617 47.2092 33.77L50.2832 36.6566C50.7508 37.0959 51.0085 37.68 51.0085 38.3012V40.1087C51.0085 41.1288 51.4314 42.0876 52.1993 42.8087L52.4088 43.0055L51.4297 43.925L45.508 49.4862L45.1779 49.1761C45.1743 49.1731 45.1712 49.1698 45.1677 49.1668L45.1096 49.1121C44.4107 48.4559 43.4823 48.0614 42.4958 48.0014C41.8957 47.9648 41.3311 47.7249 40.9039 47.3241L38.6859 45.2559C38.4215 45.0094 37.994 45.0104 37.7311 45.2582C37.4684 45.5061 37.4695 45.9069 37.7339 46.1531L39.9505 48.2196C40.6075 48.8369 41.4805 49.208 42.4086 49.2644C43.0674 49.3043 43.6876 49.5679 44.1545 50.0063L44.1871 50.0369C44.2047 50.0557 44.2234 50.0732 44.243 50.0897L44.5542 50.3817L44.5197 50.4143C43.9643 50.9361 43.9643 51.7848 44.5197 52.3065L47.6884 55.2824C47.958 55.5355 48.3162 55.6749 48.6977 55.6749C49.0788 55.6749 49.4374 55.5355 49.707 55.2824L58.6234 46.9088C59.1788 46.3871 59.1788 45.5384 58.6234 45.0166ZM52.811 38.7241L52.7983 38.7221L52.6753 38.6987L52.811 38.7241ZM31.0939 47.3254C30.6689 47.7249 30.1043 47.9648 29.5045 48.0014C28.5177 48.0614 27.5892 48.4559 26.8903 49.1121L26.492 49.4862L26.1334 49.1494C26.1288 49.1451 26.1242 49.1405 26.1196 49.1365L19.5911 43.0055L19.8007 42.8087C20.5685 42.0876 20.9914 41.1288 20.9914 40.1087V38.3012C20.9914 37.68 21.2488 37.0959 21.7167 36.6566L24.7907 33.77C25.2253 33.3617 25.8032 33.1369 26.4178 33.1369C26.8119 33.1369 27.1909 33.2298 27.527 33.4042L25.793 35.0324C25.5297 35.2796 25.5301 35.6803 25.7938 35.9272C25.9256 36.0505 26.0982 36.1121 26.2708 36.1121C26.4438 36.1121 26.6168 36.0501 26.7486 35.9265L28.8196 33.9813V41.8816C28.8196 43.0734 29.8525 44.0427 31.122 44.0427C31.4799 44.0427 31.8188 43.9656 32.1212 43.8285C32.2583 44.4557 32.6858 44.9843 33.2652 45.2856L31.0939 47.3254ZM41.8246 38.4123C41.8246 38.906 41.3972 39.3078 40.8723 39.3078C40.347 39.3078 39.9199 38.906 39.9199 38.4123V31.3535C39.9199 31.0041 39.6179 30.7207 39.2449 30.7207C38.8719 30.7207 38.5699 31.0041 38.5699 31.3535V41.8819C38.5699 42.3756 38.1427 42.7771 37.6175 42.7771C37.1461 42.7771 36.7548 42.4534 36.6792 42.0299V31.3462C36.6792 30.9965 36.3772 30.7134 36.0042 30.7134C35.8843 30.7134 35.7714 30.7431 35.6737 30.7945C35.4603 30.901 35.3151 31.1112 35.3151 31.3535V41.8816C35.3151 41.962 35.32 42.0408 35.3292 42.1189V43.3941C35.3292 43.8878 34.902 44.2896 34.3768 44.2896C33.8519 44.2896 33.4248 43.8878 33.4248 43.3941V31.3386C33.4248 30.9893 33.1224 30.7058 32.7498 30.7058C32.3768 30.7058 32.0744 30.9893 32.0744 31.3386V41.8816C32.0744 42.3753 31.6473 42.7771 31.1224 42.7771C30.5971 42.7771 30.17 42.3753 30.17 41.8816V30.1103C30.17 29.7606 29.8677 29.4771 29.495 29.4771C29.122 29.4771 28.82 29.7606 28.82 30.1103V32.2875C28.7634 32.3047 28.7086 32.3287 28.6576 32.3604C27.7846 32.0529 27.1617 31.2612 27.1617 30.335V26.2524C27.1617 25.6311 27.4194 25.0471 27.887 24.6078L29.2479 23.3296C30.016 22.6085 30.4389 21.6497 30.4389 20.6296V20.3521H31.796C32.169 20.3521 32.471 20.0687 32.471 19.7193C32.471 19.3696 32.169 19.0865 31.796 19.0865H28.9849C28.9423 19.0865 28.9079 19.0538 28.9079 19.014V14.8044C28.9079 14.7646 28.9423 14.7319 28.9849 14.7319H41.5933C41.6362 14.7319 41.6707 14.7646 41.6707 14.8044V19.014C41.6707 19.0542 41.6362 19.0865 41.5933 19.0865H34.965C34.5923 19.0865 34.29 19.3696 34.29 19.7193C34.29 20.0687 34.5923 20.3521 34.965 20.3521H40.1973V20.8824C40.1973 21.8105 40.5562 22.7054 41.2084 23.4028C41.6056 23.8273 41.8246 24.3724 41.8246 24.9377V38.4123ZM57.6678 46.0146L48.7515 54.3882C48.7367 54.4024 48.7188 54.4093 48.6977 54.4093C48.677 54.4093 48.659 54.4024 48.6439 54.3882L45.4753 51.4123C45.4447 51.3836 45.4447 51.3372 45.4753 51.3085L45.9854 50.8293L45.9857 50.8289L51.1618 45.9682L54.3916 42.9349C54.4211 42.9069 54.4693 42.9069 54.4988 42.9349L57.6678 45.9108C57.6984 45.9395 57.6984 45.986 57.6678 46.0146Z" fill="white"/>
<path d="M31.1209 16.2341C30.7247 16.2341 30.4023 16.537 30.4023 16.9091C30.4023 17.2816 30.7247 17.5841 31.1209 17.5841C31.5175 17.5841 31.8399 17.2816 31.8399 16.9091C31.8399 16.537 31.5175 16.2341 31.1209 16.2341Z" fill="white"/>
<path d="M54.6662 45.0806C54.2696 45.0806 53.9473 45.3835 53.9473 45.7556C53.9473 46.1277 54.2696 46.4306 54.6662 46.4306C55.0624 46.4306 55.3848 46.1277 55.3848 45.7556C55.3848 45.3835 55.0624 45.0806 54.6662 45.0806Z" fill="white"/>
<path d="M24.209 51.5363C24.209 51.1642 23.8866 50.8613 23.4904 50.8613C23.0939 50.8613 22.7715 51.1642 22.7715 51.5363C22.7715 51.9084 23.0939 52.2113 23.4904 52.2113C23.8866 52.2113 24.209 51.9084 24.209 51.5363Z" fill="white"/>
</g>
<defs>
<clipPath id="clip0">
<rect width="46.08" height="43.2" fill="white" transform="translate(12.96 12.96)"/>
</clipPath>
</defs>
</svg>
