<svg width="60" height="59" viewBox="0 0 60 59" fill="none" xmlns="http://www.w3.org/2000/svg">
<g filter="url(#filter0_d)">
<ellipse cx="28.8198" cy="27.5" rx="17.8198" ry="17.5" fill="white"/>
<path d="M46.1397 27.5C46.1397 36.8803 38.3939 44.5 28.8198 44.5C19.2458 44.5 11.5 36.8803 11.5 27.5C11.5 18.1197 19.2458 10.5 28.8198 10.5C38.3939 10.5 46.1397 18.1197 46.1397 27.5Z" stroke="#DFDDDD"/>
</g>
<path d="M21.183 30C22.3078 30 23.2196 29.1046 23.2196 28C23.2196 26.8954 22.3078 26 21.183 26C20.0583 26 19.1465 26.8954 19.1465 28C19.1465 29.1046 20.0583 30 21.183 30Z" fill="#ED1A3B"/>
<path d="M29.3285 30C30.4533 30 31.3651 29.1046 31.3651 28C31.3651 26.8954 30.4533 26 29.3285 26C28.2038 26 27.292 26.8954 27.292 28C27.292 29.1046 28.2038 30 29.3285 30Z" fill="#ED1A3B"/>
<path d="M37.475 30C38.5998 30 39.5116 29.1046 39.5116 28C39.5116 26.8954 38.5998 26 37.475 26C36.3503 26 35.4385 26.8954 35.4385 28C35.4385 29.1046 36.3503 30 37.475 30Z" fill="#ED1A3B"/>
<defs>
<filter id="filter0_d" x="0" y="0" width="59.6397" height="59" filterUnits="userSpaceOnUse" color-interpolation-filters="sRGB">
<feFlood flood-opacity="0" result="BackgroundImageFix"/>
<feColorMatrix in="SourceAlpha" type="matrix" values="0 0 0 0 0 0 0 0 0 0 0 0 0 0 0 0 0 0 127 0"/>
<feOffset dx="1" dy="2"/>
<feGaussianBlur stdDeviation="6"/>
<feColorMatrix type="matrix" values="0 0 0 0 0 0 0 0 0 0 0 0 0 0 0 0 0 0 0.1 0"/>
<feBlend mode="normal" in2="BackgroundImageFix" result="effect1_dropShadow"/>
<feBlend mode="normal" in="SourceGraphic" in2="effect1_dropShadow" result="shape"/>
</filter>
</defs>
</svg>
