<svg width="23" height="22" viewBox="0 0 23 22" fill="none" xmlns="http://www.w3.org/2000/svg">
<path d="M12.641 9.67112L12.6498 1.57963C12.6498 1.22488 12.5089 0.884652 12.258 0.633787C12.0071 0.382922 11.6669 0.241974 11.3121 0.241949C10.9574 0.241924 10.6172 0.382823 10.3663 0.633652C10.1155 0.884481 9.97462 1.22469 9.97464 1.57944L9.98464 9.67093L1.89315 9.66094C1.5384 9.66091 1.19819 9.80181 0.94736 10.0526C0.696531 10.3035 0.555631 10.6437 0.555656 10.9984C0.555681 11.3532 0.69663 11.6934 0.947495 11.9443C1.19836 12.1951 1.53859 12.3361 1.89334 12.3361L9.98483 12.3273L9.97598 20.4188C9.97527 20.5946 10.0094 20.7689 10.0764 20.9315C10.1433 21.0941 10.2419 21.2419 10.3662 21.3662C10.4906 21.4906 10.6383 21.5891 10.8009 21.6561C10.9635 21.723 11.1378 21.7572 11.3137 21.7564C11.4895 21.7572 11.6638 21.7231 11.8264 21.6561C11.989 21.5892 12.1367 21.4907 12.2611 21.3663C12.3854 21.242 12.4839 21.0943 12.5509 20.9317C12.6178 20.7691 12.6519 20.5948 12.6512 20.4189L12.6412 12.3275L20.7327 12.3375C20.9085 12.3382 21.0828 12.3041 21.2454 12.2371C21.408 12.1702 21.5557 12.0717 21.6801 11.9474C21.8044 11.823 21.9029 11.6753 21.9698 11.5127C22.0368 11.3501 22.0709 11.1758 22.0702 11C22.0709 10.8241 22.0367 10.6498 21.9698 10.4872C21.9028 10.3246 21.8043 10.1769 21.6799 10.0525C21.5556 9.92814 21.4078 9.82964 21.2452 9.76266C21.0826 9.69568 20.9083 9.66157 20.7325 9.66228L12.641 9.67112Z" fill="#ED1A3B"/>
</svg>
