<svg width="390" height="410" viewBox="0 0 390 410" fill="none" xmlns="http://www.w3.org/2000/svg">
<path d="M359.191 36.5216L358.891 36.8365C358.846 36.8834 358.846 36.8834 358.846 36.8835L358.847 36.8839L358.849 36.8857L358.856 36.893L358.887 36.922L359.007 37.0367L359.478 37.4859L361.281 39.2068L367.856 45.4821L388.904 65.5684V66.1422V66.9317V67.7228V68.5157V69.3102V70.1064V70.9042V71.7037V72.5048V73.3074V74.1117V74.9176V75.7251V76.534V77.3446V78.1567V78.9703V79.7854V80.602V81.4201V82.2396V83.0606V83.8831V84.7069V85.5322V86.3589V87.187V88.0165V88.8473V89.6795V90.5131V91.3479V92.1841V93.0216V93.8604V94.7004V95.5417V96.3843V97.2281V98.0731V98.9194V99.7668V100.615V101.465V102.316V103.168V104.022V104.876V105.732V106.588V107.446V108.305V109.164V110.025V110.887V111.75V112.614V113.479V114.345V115.212V116.08V116.948V117.818V118.689V119.56V120.433V121.306V122.18V123.055V123.931V124.808V125.686V126.564V127.443V128.323V129.204V130.085V130.968V131.85V132.734V133.618V134.504V135.389V136.276V137.163V138.05V138.939V139.828V140.717V141.607V142.498V143.389V144.281V145.174V146.066V146.96V147.854V148.748V149.643V150.538V151.434V152.33V153.227V154.124V155.021V155.919V156.817V157.716V158.615V159.514V160.414V161.314V162.214V163.114V164.015V164.916V165.817V166.719V167.62V168.522V169.424V170.327V171.229V172.132V173.035V173.937V174.84V175.744V176.647V177.55V178.453V179.357V180.26V181.164V182.067V182.971V183.874V184.778V185.681V186.585V187.488V188.391V189.294V190.197V191.1V192.003V192.906V193.808V194.711V195.613V196.515V197.417V198.319V199.22V200.121V201.022V201.923V202.823V203.723V204.623V205.522V206.421V207.32V208.219V209.117V210.014V210.912V211.809V212.705V213.601V214.497V215.392V216.287V217.181V218.075V218.968V219.861V220.753V221.644V222.535V223.426V224.316V225.205V226.094V226.982V227.869V228.756V229.642V230.528V231.413V232.297V233.18V234.063V234.945V235.826V236.706V237.586V238.465V239.343V240.22V241.097V241.972V242.847V243.721V244.594V245.466V246.337V247.208V248.077V248.946V249.813V250.68V251.545V252.41V253.273V254.136V254.998V255.858V256.717V257.576V258.433V259.289V260.144V260.998V261.851V262.703V263.554V264.403V265.251V266.098V266.944V267.789V268.632V269.474V270.315V271.155V271.993V272.83V273.666V274.5V275.333V276.165V276.995V277.824V278.652V279.478V280.303V281.126V281.948V282.768V283.587V284.405V285.221V286.036V286.849V287.66V288.47V289.279V290.086V290.891V291.695V292.497V293.297V294.096V294.893V295.689V296.483V297.275V298.066V298.854V299.642V300.427V301.211V301.993V302.773V303.551V304.328V305.102V305.875V306.647V307.416V308.183V308.949V309.712V310.474V311.234V311.992V312.748V313.502V314.254V315.005V315.753V316.499V317.243V317.985V318.725V319.463V320.199V320.933V321.665V322.395V323.123V323.848V324.572V325.293V326.012V326.729V327.444V328.156V328.866V329.574V330.28V330.984V331.685V332.384V333.081V333.776V334.468V335.158V335.845V336.53V337.213V337.893V338.571V339.247V339.92V340.591V341.259V341.925V342.588V343.249V343.908V344.564V345.217V345.868V346.516V347.162V347.805V348.446V349.084V349.719V350.352V350.982V351.61V352.235V352.857V353.477V354.093V354.707V355.319V355.928V356.533V357.137V357.737V358.335V358.929V359.521V360.111V360.697V361.28V361.861V362.439V363.014V363.586V364.155V364.721V365.284V365.844V366.401V366.956V367.507V368.055V368.601V369.143V369.682V370.218V370.751V371.281V371.808V372.332V372.853V373.37V373.885V374.396V374.904V375.409V375.911V376.41V376.905V377.397V377.886V378.371V378.854V379.333V379.809V380.281V380.75V381.216V381.678V382.137V382.593V383.045V383.494V383.94V384.382V384.821V385.256V385.688V386.116V386.541V386.962V387.38V387.794V388.205V388.612V389.016V389.416V389.812V390.205V390.594V390.98V391.362V391.74V392.115V392.486V392.853V393.217V393.577V393.933V394.285V394.634V394.979V395.32V395.658V395.991V396.321V396.647V396.969V397.287V397.601V397.912V398.218V398.521V398.82V399.114V399.405V399.692V399.975V400.254V400.529V400.8V401.067V401.33V401.589V401.843V402.094V402.341V402.583V402.822V403.056V403.286V403.512V403.734V403.952V404.165V404.374V404.58V404.78V404.977V405.169V405.358V405.541V405.721V405.896V406.067V406.234V406.396V406.554V406.707V406.857V407.001V407.142V407.278V407.409V407.536V407.659V407.777V407.891V408V408.105V408.205V408.301V408.392V408.478V408.56V408.638V408.711V408.743H0.5V0.5H0.564917H0.637166H0.71369H0.794476H0.879514H0.96879H1.06229H1.16001H1.26194H1.36805H1.47834H1.59281H1.71142H1.83418H1.96108H2.09209H2.22721H2.36643H2.50974H2.65711H2.80855H2.96404H3.12356H3.28711H3.45467H3.62623H3.80178H3.98131H4.16481H4.35226H4.54365H4.73897H4.93821H5.14136H5.3484H5.55932H5.77412H5.99277H6.21527H6.4416H6.67176H6.90573H7.1435H7.38505H7.63039H7.87948H8.13233H8.38891H8.64923H8.91326H9.181H9.45242H9.72753H10.0063H10.2887H10.5748H10.8645H11.1579H11.4548H11.7553H12.0595H12.3672H12.6784H12.9932H13.3116H13.6335H13.9588H14.2877H14.6201H14.956H15.2953H15.6381H15.9843H16.334H16.687H17.0435H17.4034H17.7666H18.1333H18.5033H18.8766H19.2533H19.6333H20.0166H20.4032H20.7931H21.1863H21.5827H21.9824H22.3853H22.7915H23.2009H23.6134H24.0292H24.4482H24.8703H25.2956H25.724H26.1556H26.5903H27.0281H27.469H27.9129H28.36H28.8101H29.2633H29.7195H30.1787H30.641H31.1062H31.5745H32.0457H32.5199H32.997H33.4771H33.9601H34.4461H34.9349H35.4267H35.9213H36.4188H36.9192H37.4224H37.9284H38.4373H38.949H39.4635H39.9807H40.5008H41.0236H41.5492H42.0775H42.6085H43.1423H43.6788H44.2179H44.7598H45.3043H45.8514H46.4013H46.9537H47.5088H48.0665H48.6268H49.1896H49.7551H50.3231H50.8936H51.4667H52.0424H52.6205H53.2012H53.7843H54.3699H54.958H55.5486H56.1416H56.737H57.3348H57.9351H58.5377H59.1428H59.7502H60.3599H60.972H61.5865H62.2033H62.8224H63.4438H64.0675H64.6934H65.3217H65.9521H66.5849H67.2198H67.857H68.4964H69.138H69.7817H70.4277H71.0758H71.726H72.3784H73.0329H73.6895H74.3482H75.009H75.6719H76.3368H77.0038H77.6728H78.3439H79.017H79.692H80.3691H81.0482H81.7292H82.4122H83.0971H83.784H84.4727H85.1634H85.856H86.5505H87.2468H87.9451H88.6451H89.347H90.0507H90.7563H91.4636H92.1728H92.8837H93.5963H94.3108H95.027H95.7449H96.4645H97.1858H97.9089H98.6336H99.36H100.088H100.818H101.549H102.282H103.017H103.753H104.491H105.23H105.971H106.713H107.457H108.203H108.95H109.698H110.448H111.2H111.953H112.707H113.463H114.221H114.979H115.739H116.501H117.264H118.028H118.794H119.561H120.329H121.099H121.87H122.642H123.416H124.191H124.967H125.745H126.523H127.303H128.084H128.867H129.65H130.435H131.221H132.008H132.796H133.585H134.376H135.167H135.96H136.754H137.548H138.344H139.141H139.939H140.738H141.538H142.339H143.141H143.945H144.749H145.553H146.359H147.166H147.974H148.783H149.592H150.403H151.214H152.026H152.839H153.653H154.468H155.283H156.1H156.917H157.735H158.553H159.373H160.193H161.014H161.836H162.658H163.481H164.305H165.129H165.954H166.78H167.606H168.433H169.261H170.089H170.918H171.747H172.577H173.408H174.239H175.07H175.902H176.735H177.568H178.402H179.236H180.07H180.905H181.74H182.576H183.412H184.249H185.086H185.923H186.761H187.599H188.438H189.277H190.116H190.955H191.795H192.635H193.475H194.315H195.156H195.997H196.838H197.68H198.521H199.363H200.205H201.047H201.889H202.732H203.574H204.417H205.26H206.103H206.946H207.789H208.632H209.475H210.318H211.161H212.004H212.847H213.69H214.534H215.377H216.22H217.063H217.906H218.748H219.591H220.434H221.276H222.118H222.961H223.803H224.644H225.486H226.328H227.169H228.01H228.851H229.691H230.532H231.372H232.212H233.051H233.89H234.729H235.568H236.406H237.244H238.081H238.918H239.755H240.592H241.428H242.263H243.098H243.933H244.767H245.601H246.434H247.267H248.099H248.931H249.762H250.593H251.423H252.252H253.081H253.91H254.738H255.565H256.391H257.217H258.043H258.867H259.691H260.515H261.337H262.159H262.98H263.801H264.62H265.439H266.258H267.075H267.892H268.707H269.522H270.337H271.15H271.962H272.774H273.585H274.395H275.204H276.012H276.819H277.625H278.431H279.235H280.038H280.841H281.642H282.443H283.242H284.04H284.838H285.634H286.429H287.223H288.016H288.808H289.599H290.389H291.177H291.965H292.751H293.536H294.32H295.103H295.885H296.665H297.444H298.222H298.998H299.774H300.548H301.321H302.092H302.862H303.631H304.399H305.165H305.93H306.693H307.455H308.216H308.975H309.733H310.489H311.244H311.998H312.75H313.501H314.25H314.997H315.743H316.488H317.231H317.972H318.712H319.451H320.187H320.722L344.747 23.428L354.755 32.9789L357.753 35.8396L358.564 36.6139L358.775 36.8149L358.828 36.8661L358.842 36.879L358.845 36.8822L358.846 36.883C358.846 36.8832 358.846 36.8833 359.191 36.5216Z" fill="#F1F4F9" stroke="#C8DCFF"/>
</svg>
