<svg width="125" height="125" viewBox="0 0 125 125" fill="none" xmlns="http://www.w3.org/2000/svg">
<g clip-path="url(#clip0)">
<path d="M9.96836 124.038H113.705C116.858 124.038 119.423 121.456 119.423 118.282V115.362C119.423 113.892 118.231 112.696 116.766 112.696H114.498C114.954 111.776 115.211 110.751 115.211 109.686V71.7714C115.211 67.993 112.138 64.9189 108.359 64.9189H84.8409C83.8372 64.9189 83.024 65.7324 83.024 66.7359C83.024 67.7393 83.8372 68.5529 84.8409 68.5529H108.359C110.134 68.5529 111.577 69.9965 111.577 71.7714V109.686C111.577 111.018 110.73 112.224 109.488 112.696H53.9282C52.6466 112.205 51.836 110.975 51.836 109.686C51.836 105.969 51.836 75.4608 51.836 71.7714C51.836 69.9968 53.2799 68.5529 55.0545 68.5529H76.3617C77.3654 68.5529 78.1787 67.7393 78.1787 66.7359C78.1787 65.7324 77.3654 64.9189 76.3617 64.9189H62.9843L62.9804 60.2483C67.1423 57.202 70.0248 52.5123 70.6689 47.142C75.3967 46.7275 78.9147 42.9586 78.9147 38.5658C78.9147 35.5576 77.3886 32.7748 75.0137 31.1576C75.2662 30.5529 75.4067 29.8904 75.4067 29.1951V25.634C75.4067 24.6305 74.5934 23.817 73.5897 23.817C72.586 23.817 71.7727 24.6305 71.7727 25.634V29.1955C71.7727 29.9853 71.1431 30.6869 70.2283 30.6719C67.7276 30.6353 65.8205 28.5627 65.8205 26.2028C65.8205 25.2185 65.1533 24.3638 64.1981 24.1242C63.2239 23.8807 62.243 24.3454 61.7907 25.1902C59.9819 28.5734 56.479 30.6753 52.6491 30.6753H31.847C30.1047 30.6753 28.5358 29.2595 28.5358 27.364V13.9966C28.5358 8.28254 33.1843 3.63397 38.8984 3.63397H57.2267C61.483 3.63397 62.2033 5.5137 62.6127 7.60808C63.097 10.0847 65.4162 11.8019 68.012 11.6023C69.8351 11.4623 71.7722 13.0416 71.7722 15.2464V17.1548C71.7722 18.1582 72.5855 18.9717 73.5892 18.9717C74.5929 18.9717 75.4062 18.1582 75.4062 17.1548V15.2464C75.4062 10.868 71.6097 7.681 67.7332 7.97898C66.9642 8.04003 66.3116 7.58869 66.1788 6.9106C65.2696 2.26057 62.3414 0 57.2264 0H38.8981C31.1806 0 24.9015 6.27877 24.9015 13.9966V27.3638C24.9015 29.2665 25.6712 30.9927 26.915 32.2483C25.1571 33.9071 24.081 36.2122 24.081 38.5891C24.081 42.9651 27.5873 46.7406 32.3255 47.1442C32.9522 52.4183 35.731 57.1357 40.0007 60.227V64.9184C35.1442 66.8151 20.5185 72.5275 15.6139 74.4428C15.6037 74.4467 15.5935 74.4508 15.5833 74.4549C10.4861 76.5527 5 82.564 5 90.8046V119.069C4.99976 121.809 7.22859 124.038 9.96836 124.038ZM70.8102 34.2831C71.3788 34.2233 71.951 34.0595 72.4222 33.8412C74.1139 34.7017 75.2804 36.5776 75.2804 38.5661C75.2804 41.0503 73.3058 43.0514 70.8102 43.4649V34.2831ZM32.185 43.4693C29.6885 43.0652 27.7147 41.0665 27.7147 38.5891C27.7147 36.8506 28.786 35.1029 30.3806 34.1518C31.1658 34.3211 31.7087 34.309 32.185 34.309V43.4693ZM115.789 116.33V118.282C115.789 119.452 114.854 120.405 113.705 120.405H49.7082C48.5589 120.405 47.6238 119.452 47.6238 118.282V116.33H115.789ZM55.0545 64.9189C51.8605 64.9189 49.1704 67.1155 48.4143 70.0772L43.6201 65.283C43.6393 64.9812 43.6344 65.5345 43.6344 62.2952C46.2543 63.4268 48.9989 63.9229 51.7471 63.9229C54.4481 63.9229 57.0178 63.3548 59.3482 62.3373L59.3503 64.9189H55.0545ZM35.819 44.8601V34.309H52.6488C56.6653 34.309 60.3974 32.5945 62.9979 29.7363C63.8509 31.4903 65.3202 32.8884 67.1203 33.6573C67.1392 33.6653 67.1573 33.6745 67.1762 33.6825V44.8604C67.1762 50.0979 64.5113 54.9306 60.1842 57.7685C49.7758 64.3602 35.819 57.2922 35.819 44.8601ZM41.4509 68.2534L48.2018 75.0041V78.4758L46.389 80.2886C46.1535 80.5244 45.7571 80.5244 45.5216 80.2886L35.7233 70.4905L41.4509 68.2534ZM8.63373 90.8049C8.63373 83.8005 13.6026 79.2069 16.9516 77.8214L32.0273 71.9337L42.9517 82.8581C44.3745 84.2809 46.5585 84.4822 48.2018 83.4553V109.686C48.2018 110.688 48.4414 111.75 48.91 112.696H46.6477C45.1822 112.696 43.9898 113.892 43.9898 115.362V118.282C43.9898 119.035 44.1407 119.768 44.3925 120.405H23.9243C23.9243 117.334 23.9243 97.9306 23.9243 93.352C23.9243 92.3486 23.111 91.535 22.1073 91.535C21.1036 91.535 20.2903 92.3486 20.2903 93.352V97.8136H8.63373V90.8049ZM8.63373 101.448H20.2903V105.97H8.63373V101.448ZM8.63373 109.604H20.2903V120.405H9.96836C9.2326 120.405 8.63373 119.806 8.63373 119.07V109.604Z" fill="#0054A6"/>
<path d="M61.4143 81.7813C60.3437 82.3176 59.6787 83.3948 59.6787 84.5923C59.6787 85.7898 60.3437 86.8669 61.4145 87.4035L65.6091 89.5051V99.4646C65.6091 101.148 66.5154 102.682 67.9746 103.469C75.8441 107.712 85.375 107.703 93.2277 103.469C93.7023 103.213 94.1173 102.877 94.4631 102.483L94.3424 102.943C93.721 105.314 95.5072 107.631 97.9601 107.631H101.454C103.904 107.631 105.693 105.316 105.072 102.943C105.072 102.943 105.072 102.943 105.072 102.943L104.295 99.9811C103.918 98.5423 102.87 97.4194 101.524 96.8867V84.5923C101.524 83.3948 100.859 82.3176 99.7883 81.781L82.7597 73.249C81.4084 72.5718 79.7949 72.5721 78.4436 73.249L61.4143 81.7813ZM99.7066 100.181C100.298 100.177 100.674 100.502 100.78 100.902L101.556 103.865C101.574 103.933 101.524 103.997 101.453 103.997H97.9599C97.8899 103.997 97.8393 103.933 97.8574 103.865L98.6339 100.902C98.7395 100.5 99.1061 100.177 99.7066 100.181ZM95.5932 89.5051L97.8896 88.3544V96.8845C96.9257 97.2663 96.1143 97.9527 95.5932 98.843V89.5051ZM91.9593 99.4646C91.9593 99.8045 91.7802 100.121 91.5031 100.27C84.7112 103.932 76.4771 103.925 69.6993 100.27C69.4221 100.121 69.2431 99.8045 69.2431 99.4646V91.3258L78.4431 95.9353C79.7661 96.5986 81.3808 96.626 82.7593 95.9353L91.9593 91.3258V99.4646ZM81.1315 76.4982L93.6595 82.7753H80.6012C79.5975 82.7753 78.7842 83.5888 78.7842 84.5923C78.7842 85.5957 79.5975 86.4092 80.6012 86.4092H93.66C92.3907 87.0452 82.541 91.9804 81.1315 92.6866C80.7993 92.853 80.4028 92.853 80.0706 92.6866L63.9159 84.5923L80.0706 76.4982C80.4028 76.3318 80.7993 76.3318 81.1315 76.4982Z" fill="#0054A6"/>
</g>
<defs>
<clipPath id="clip0">
<rect width="124.038" height="124.038" fill="white" transform="translate(0.192383)"/>
</clipPath>
</defs>
</svg>
