<svg width="125" height="125" viewBox="0 0 125 125" fill="none" xmlns="http://www.w3.org/2000/svg">
<path d="M14.5479 14.5758V122.855C14.5479 124.005 15.4802 124.937 16.6304 124.937H95.7574C96.9067 124.937 97.839 124.005 97.839 122.855V35.3992C97.839 35.3529 97.8167 35.3135 97.8124 35.268C97.8022 35.0853 97.7661 34.9052 97.7061 34.7328C97.6829 34.6659 97.6666 34.6016 97.6375 34.5364C97.5363 34.3099 97.3956 34.1032 97.2206 33.9265L76.398 13.104C76.2214 12.9281 76.0138 12.7875 75.7856 12.6871C75.723 12.6605 75.6596 12.6382 75.5944 12.6185C75.4203 12.5585 75.2393 12.5224 75.0549 12.5104C75.0197 12.5164 74.9785 12.4941 74.9348 12.4941H16.6304C15.4802 12.4941 14.5479 13.4256 14.5479 14.5758ZM90.7303 33.3167H77.0165V19.6028L90.7303 33.3167ZM18.712 16.6583H72.8523V35.3992C72.8523 36.5486 73.7846 37.4809 74.9339 37.4809H93.6749V120.773H18.712V16.6583Z" fill="#0054A6"/>
<path d="M102.004 108.279V112.443H108.251C109.401 112.443 110.333 111.511 110.333 110.361V2.08252C110.333 0.932329 109.401 0 108.251 0H29.1235C27.9733 0 27.041 0.932329 27.041 2.08252V8.3292H31.206V4.16417H106.168V108.279H102.004Z" fill="#0054A6"/>
<path d="M31.2061 41.6465H81.1804V45.8107H31.2061V41.6465Z" fill="#0054A6"/>
<path d="M31.2061 29.1514H47.8645V33.3164H31.2061V29.1514Z" fill="#0054A6"/>
<path d="M31.2061 54.1396H64.5229V58.3047H31.2061V54.1396Z" fill="#0054A6"/>
<path d="M68.6865 54.1396H81.1799V58.3047H68.6865V54.1396Z" fill="#0054A6"/>
<path d="M31.2061 66.6328H81.1804V70.7978H31.2061V66.6328Z" fill="#0054A6"/>
<path d="M31.2061 91.6211H81.1804V95.7861H31.2061V91.6211Z" fill="#0054A6"/>
<path d="M49.9463 79.127H81.1806V83.2912H49.9463V79.127Z" fill="#0054A6"/>
<path d="M31.2061 79.127H45.7819V83.2912H31.2061V79.127Z" fill="#0054A6"/>
<path d="M31.2061 104.114H39.5353V108.278H31.2061V104.114Z" fill="#0054A6"/>
<path d="M43.6992 104.114H81.1802V108.278H43.6992V104.114Z" fill="#0054A6"/>
</svg>
