<svg width="29" height="30" viewBox="0 0 29 30" fill="none" xmlns="http://www.w3.org/2000/svg">
<path d="M14.1667 26.3334C17.1725 26.3334 20.0551 25.1393 22.1805 23.0139C24.306 20.8885 25.5 18.0058 25.5 15C25.5 11.9943 24.306 9.11158 22.1805 6.98616C20.0551 4.86075 17.1725 3.66671 14.1667 3.66671C11.1609 3.66671 8.2782 4.86075 6.15279 6.98616C4.02738 9.11158 2.83333 11.9943 2.83333 15C2.83333 18.0058 4.02738 20.8885 6.15279 23.0139C8.2782 25.1393 11.1609 26.3334 14.1667 26.3334ZM14.1667 29.1667C6.34242 29.1667 0 22.8243 0 15C0 7.17579 6.34242 0.833374 14.1667 0.833374C21.9909 0.833374 28.3333 7.17579 28.3333 15C28.3333 22.8243 21.9909 29.1667 14.1667 29.1667ZM9.76083 16.6575L6.222 15.554C5.457 15.3202 5.45275 14.7932 6.39342 14.415L20.1818 9.08829C20.9823 8.76246 21.4356 9.17471 21.1763 10.2075L18.8289 21.2858C18.6646 22.0749 18.19 22.2633 17.5313 21.8992L13.9173 19.2245L12.2329 20.8509C12.0601 21.018 11.9198 21.1611 11.6535 21.1965C11.3886 21.2334 11.1704 21.154 11.0103 20.7149L9.77783 16.6476L9.76083 16.659V16.6575Z" fill="white"/>
</svg>
