<svg width="34" height="38" viewBox="0 0 34 38" fill="none" xmlns="http://www.w3.org/2000/svg">
<path d="M16.3032 11.0118C17.0564 11 17.8053 11.007 18.5533 11C18.5987 11.893 18.9155 12.8026 19.5604 13.4339C20.2039 14.081 21.1143 14.3772 22 14.4774V16.8265C21.17 16.7989 20.336 16.6239 19.5828 16.2617C19.2548 16.1111 18.9492 15.9173 18.65 15.7191C18.6461 17.4237 18.6569 19.1261 18.6392 20.8237C18.5943 21.6393 18.3289 22.4509 17.861 23.1229C17.1082 24.2416 15.8016 24.971 14.4596 24.9937C13.6365 25.0414 12.8142 24.8139 12.1128 24.3948C10.9504 23.7 10.1324 22.4281 10.0133 21.063C9.99829 20.7739 9.99598 20.4843 10.0064 20.195C10.11 19.085 10.6517 18.0231 11.4925 17.3008C12.4456 16.4594 13.7807 16.0586 15.0307 16.2958C15.0424 17.1599 15.0083 18.0231 15.0083 18.8872C14.4372 18.7 13.7699 18.7525 13.2709 19.1038C12.9058 19.3476 12.63 19.7062 12.4857 20.1245C12.3666 20.4203 12.4007 20.7489 12.4076 21.063C12.5444 22.0203 13.4526 22.8249 14.4221 22.7379C15.0648 22.7309 15.6808 22.3529 16.0157 21.7994C16.1241 21.6056 16.2453 21.4074 16.2518 21.1794C16.3084 20.1359 16.2859 19.0968 16.2928 18.0533C16.2976 15.7016 16.2859 13.3565 16.3036 11.0123L16.3032 11.0118Z" fill="white"/>
<path fill-rule="evenodd" clip-rule="evenodd" d="M16 28.8889C22.0138 28.8889 26.8889 24.0138 26.8889 18C26.8889 11.9862 22.0138 7.11111 16 7.11111C9.98623 7.11111 5.11111 11.9862 5.11111 18C5.11111 24.0138 9.98623 28.8889 16 28.8889ZM16 32C23.732 32 30 25.732 30 18C30 10.268 23.732 4 16 4C8.26801 4 2 10.268 2 18C2 25.732 8.26801 32 16 32Z" fill="white"/>
</svg>
