<svg width="28" height="28" viewBox="0 0 28 28" fill="none" xmlns="http://www.w3.org/2000/svg">
<g clip-path="url(#clip0)">
<path d="M18.4758 9.52378C17.3498 8.39783 15.8528 7.77777 14.2605 7.77777C12.6682 7.77777 11.1712 8.39783 10.0452 9.52378C8.91929 10.6497 8.29926 12.1467 8.29926 13.739C8.29926 14.7477 8.55459 15.7389 9.03924 16.6168L7.77734 20.2222L11.3827 18.9603C12.2607 19.4449 13.2519 19.7003 14.2605 19.7003C15.8528 19.7003 17.3498 19.0802 18.4757 17.9543C19.6017 16.8284 20.2218 15.3314 20.2218 13.739C20.2218 12.1467 19.6017 10.6497 18.4758 9.52378ZM17.2075 15.9536L16.5193 16.6418C15.9492 17.2119 14.3316 16.5186 12.9063 15.0933C11.4809 13.668 10.7877 12.0504 11.3578 11.4802L12.046 10.792C12.1885 10.6495 12.4196 10.6495 12.5621 10.792L13.4224 11.6523C13.5649 11.7948 13.5649 12.0259 13.4224 12.1684L12.9062 12.6846C13.4069 13.7416 14.258 14.5926 15.315 15.0933L15.8311 14.5772C15.9736 14.4346 16.2047 14.4346 16.3473 14.5772L17.2075 15.4374C17.3501 15.58 17.3501 15.811 17.2075 15.9536Z" fill="white"/>
</g>
<path fill-rule="evenodd" clip-rule="evenodd" d="M14 24.8889C20.0138 24.8889 24.8889 20.0138 24.8889 14C24.8889 7.98623 20.0138 3.11111 14 3.11111C7.98623 3.11111 3.11111 7.98623 3.11111 14C3.11111 20.0138 7.98623 24.8889 14 24.8889ZM14 28C21.732 28 28 21.732 28 14C28 6.26801 21.732 0 14 0C6.26801 0 0 6.26801 0 14C0 21.732 6.26801 28 14 28Z" fill="white"/>
<defs>
<clipPath id="clip0">
<rect width="12.4444" height="12.4444" fill="white" transform="translate(7.77734 7.77777)"/>
</clipPath>
</defs>
</svg>
