<svg width="134" height="134" viewBox="0 0 134 134" fill="none" xmlns="http://www.w3.org/2000/svg">
<g clip-path="url(#clip0)">
<path d="M127.3 67H125.067V13.4H127.3C131 13.4 134 10.4002 134 6.7C134 2.99982 131 0 127.3 0H6.7C2.99956 0 0 2.99956 0 6.7C0 10.4004 2.99956 13.4 6.7 13.4H8.93325V67H6.7C2.99956 67 0 69.9998 0 73.7C0 77.4002 2.99956 80.4 6.7 80.4H127.3C131 80.4 134 77.4002 134 73.7C134 69.9998 131 67 127.3 67ZM6.7 8.93325C5.4673 8.93168 4.46832 7.9327 4.46675 6.7C4.46832 5.4673 5.4673 4.46832 6.7 4.46675H127.3C128.533 4.46675 129.533 5.46652 129.533 6.7C129.533 7.93348 128.533 8.93325 127.3 8.93325H6.7ZM120.6 13.4V67H13.4V13.4H120.6ZM127.3 75.9332H6.7C5.46652 75.9332 4.46675 74.9335 4.46675 73.7C4.46675 72.4665 5.46652 71.4668 6.7 71.4668H127.3C128.533 71.4683 129.532 72.4673 129.533 73.7C129.532 74.9327 128.533 75.9317 127.3 75.9332Z" fill="#0054A6"/>
<path d="M37.9665 51.2153C39.2 51.2153 40.1997 50.2153 40.1997 48.982V38.0485L46.8997 40.8954V54.2227L46.9047 54.247C46.9073 54.5307 46.9641 54.8113 47.0717 55.0735C47.2253 55.3143 47.3829 55.5522 47.5446 55.7878C47.7506 55.9985 47.9966 56.1662 48.2677 56.2814L59.373 60.9968C64.2546 63.0518 69.7588 63.0497 74.6388 60.9913L85.732 56.2811C86.0031 56.166 86.2492 55.9982 86.4551 55.7875C86.6169 55.5522 86.7744 55.3141 86.9281 55.0733C87.0359 54.8108 87.0924 54.5302 87.095 54.2468L87.0997 54.2224V40.8952L95.9448 37.1364C97.3607 36.4784 98.2665 35.0589 98.2665 33.4974C98.2665 31.936 97.3607 30.5165 95.9448 29.8585L68.3858 18.1479C67.5004 17.7684 66.498 17.7684 65.6126 18.1479L38.0547 29.8585C36.6205 30.4955 35.7063 31.9284 35.733 33.4974V48.9815C35.7333 50.2153 36.733 51.2153 37.9665 51.2153ZM82.633 52.745L72.9057 56.8749C69.1333 58.4644 64.8793 58.4665 61.1053 56.8804L51.366 52.745V42.7937L65.6134 48.8478C66.4988 49.2273 67.5012 49.2273 68.3866 48.8478L82.6327 42.7937V52.745H82.633ZM66.9997 22.4118L93.0866 33.498L84.0075 37.3562L83.9879 37.3646L66.9997 44.5839L50.0116 37.3646L49.992 37.3562L40.9129 33.498L66.9997 22.4118Z" fill="#0054A6"/>
<path d="M129.533 120.601H125.066V117.73C125.009 112.076 121.764 106.938 116.683 104.457C120.241 101.42 121.529 96.4881 119.91 92.0999C118.292 87.7116 114.11 84.7969 109.433 84.7969C104.756 84.7969 100.574 87.7116 98.9559 92.0999C97.3377 96.4881 98.6253 101.42 102.183 104.457C97.1016 106.938 93.8568 112.076 93.7995 117.73V120.601H82.6327V117.73C82.5754 112.076 79.3306 106.938 74.2496 104.457C77.8069 101.42 79.0948 96.4881 77.4763 92.0999C75.8581 87.7116 71.6764 84.7969 66.9992 84.7969C62.322 84.7969 58.1403 87.7116 56.5221 92.0999C54.9039 96.4881 56.1915 101.42 59.7488 104.457C54.6678 106.938 51.423 112.076 51.3657 117.73V120.601H40.2V117.73C40.1427 112.076 36.8979 106.938 31.8169 104.457C35.3742 101.42 36.6621 96.4881 35.0436 92.0999C33.4254 87.7116 29.2437 84.7969 24.5665 84.7969C19.8893 84.7969 15.7076 87.7116 14.0894 92.0999C12.4712 96.4881 13.7588 101.42 17.3161 104.457C12.2351 106.938 8.9903 112.076 8.93298 117.73V120.601H4.46675C2.00084 120.604 0.00235547 122.602 0 125.068V129.535C0.00235547 132.001 2.00084 133.999 4.46675 134.002H129.534C131.999 133.999 133.998 132.001 134 129.535V125.068C133.998 122.602 131.999 120.604 129.533 120.601ZM109.433 89.3346C113.133 89.3346 116.133 92.3341 116.133 96.0346C116.133 99.735 113.134 102.735 109.433 102.735C105.735 102.731 102.737 99.7332 102.733 96.0346C102.733 92.3344 105.733 89.3346 109.433 89.3346ZM98.2668 117.73C98.6146 111.818 103.511 107.201 109.434 107.201C115.356 107.201 120.252 111.818 120.6 117.73V120.601H98.267V117.73H98.2668ZM67 89.3346C70.7002 89.3346 73.7 92.3341 73.7 96.0346C73.7 99.735 70.7002 102.735 67 102.735C63.3014 102.731 60.3039 99.7332 60.3 96.0346C60.3 92.3344 63.2998 89.3346 67 89.3346ZM55.8332 117.73C56.1811 111.818 61.0773 107.201 67 107.201C72.9227 107.201 77.8187 111.818 78.1667 117.73V120.601H55.8335V117.73H55.8332ZM24.5668 89.3346C28.2669 89.3346 31.2668 92.3341 31.2668 96.0346C31.2668 99.735 28.2672 102.735 24.5668 102.735C20.8681 102.731 17.8707 99.7332 17.8668 96.0346C17.8668 92.3344 20.8663 89.3346 24.5668 89.3346ZM13.4 117.73C13.5879 111.744 18.5802 107.037 24.5668 107.201C30.553 107.037 35.5453 111.744 35.7335 117.73V120.601H13.4V117.73ZM4.46675 129.535V125.068H129.534L129.537 129.535H4.46675Z" fill="#0054A6"/>
</g>
<defs>
<clipPath id="clip0">
<rect width="134" height="134" fill="#0054A6"/>
</clipPath>
</defs>
</svg>
