<svg width="148" height="148" viewBox="0 0 148 148" fill="none" xmlns="http://www.w3.org/2000/svg">
<path d="M128.165 67.3906H83.667C82.469 67.3906 81.499 68.3617 81.499 69.5586C81.499 70.7566 82.469 71.7266 83.667 71.7266H128.165C129.363 71.7266 130.333 70.7566 130.333 69.5586C130.333 68.3617 129.361 67.3906 128.165 67.3906Z" fill="white"/>
<path d="M128.165 79.0078H83.667C82.469 79.0078 81.499 79.9778 81.499 81.1758C81.499 82.3727 82.469 83.3438 83.667 83.3438H128.165C129.363 83.3438 130.333 82.3727 130.333 81.1758C130.333 79.9778 129.361 79.0078 128.165 79.0078Z" fill="white"/>
<path d="M128.165 90.625H83.667C82.469 90.625 81.499 91.5961 81.499 92.793C81.499 93.991 82.469 94.9609 83.667 94.9609H128.165C129.363 94.9609 130.333 93.991 130.333 92.793C130.333 91.5961 129.361 90.625 128.165 90.625Z" fill="white"/>
<path d="M128.165 102.242H83.667C82.469 102.242 81.499 103.213 81.499 104.41C81.499 105.607 82.469 106.578 83.667 106.578H128.165C129.363 106.578 130.333 105.607 130.333 104.41C130.333 103.213 129.361 102.242 128.165 102.242Z" fill="white"/>
<path d="M27.4741 41.6027C30.2643 41.2515 33.0397 41.0742 35.7248 41.0742C50.5709 41.0742 60.399 46.248 64.9359 49.3306C65.3086 49.5846 65.7331 49.7066 66.152 49.7066C66.8465 49.7066 67.5285 49.3735 67.9474 48.757C68.6204 47.7667 68.3629 46.4185 67.3726 45.7444C62.4247 42.3818 51.7317 36.7383 35.7248 36.7383C32.8602 36.7383 29.9029 36.928 26.9344 37.3006C25.7465 37.4496 24.9042 38.5336 25.0532 39.7215C25.2023 40.9094 26.2829 41.7517 27.4741 41.6027Z" fill="white"/>
<path d="M27.4741 55.8214C30.2643 55.4702 33.0397 55.293 35.7248 55.293C50.5709 55.293 60.399 60.4656 64.9359 63.5493C65.3086 63.8034 65.7331 63.9242 66.152 63.9242C66.8465 63.9242 67.5285 63.5922 67.9474 62.9757C68.6204 61.9843 68.3629 60.6361 67.3726 59.9631C62.4247 56.5994 51.7317 50.957 35.7248 50.957C32.8602 50.957 29.9029 51.1456 26.9344 51.5182C25.7465 51.6684 24.9042 52.7524 25.0532 53.9402C25.2023 55.1281 26.2829 55.9705 27.4741 55.8214Z" fill="white"/>
<path d="M66.1521 78.1429C66.8465 78.1429 67.5274 77.811 67.9474 77.1933C68.6204 76.2031 68.3629 74.8549 67.3727 74.1819C62.4236 70.8181 51.7317 65.1758 35.7248 65.1758C32.8602 65.1758 29.9018 65.3643 26.9344 65.737C25.7454 65.886 24.9042 66.97 25.0532 68.159C25.2023 69.3469 26.2829 70.1881 27.4741 70.039C30.2643 69.689 33.0397 69.5117 35.7248 69.5117C50.5709 69.5117 60.399 74.6844 64.936 77.7681C65.3086 78.0221 65.732 78.1429 66.1521 78.1429Z" fill="white"/>
<path d="M67.3723 88.3997C63.3976 85.6977 54.8443 80.9778 42.2193 79.7143C41.0258 79.5935 39.9655 80.4641 39.847 81.6553C39.7273 82.8466 40.5967 83.9091 41.788 84.0288C53.4589 85.1963 61.2997 89.5153 64.9355 91.9859C65.3082 92.24 65.7316 92.3608 66.1516 92.3608C66.8461 92.3608 67.5269 92.0288 67.947 91.4112C68.62 90.4209 68.3625 89.0727 67.3723 88.3997Z" fill="white"/>
<path d="M31.7875 79.508C30.192 79.5995 28.5593 79.7497 26.9344 79.954C25.7454 80.1031 24.9042 81.1871 25.0532 82.3749C25.191 83.4713 26.1248 84.273 27.2009 84.273C27.2912 84.273 27.3827 84.2674 27.4741 84.2561C29.003 84.0641 30.5387 83.923 32.0382 83.836C33.2339 83.7672 34.1463 82.7419 34.0774 81.5461C34.0085 80.3515 32.9821 79.4346 31.7875 79.508Z" fill="white"/>
<path d="M127.218 40.9766H84.6132C82.8958 40.9766 81.499 42.3733 81.499 44.0908V55.6036C81.499 57.3199 82.8958 58.7166 84.6132 58.7166H90.4893C91.6873 58.7166 92.6573 57.7456 92.6573 56.5487C92.6573 55.3518 91.6873 54.3807 90.4893 54.3807H85.835V45.3125H125.997V54.3807H100.577C99.3791 54.3807 98.4092 55.3518 98.4092 56.5487C98.4092 57.7456 99.3791 58.7166 100.577 58.7166H127.218C128.936 58.7166 130.333 57.3199 130.333 55.6036V44.0908C130.333 42.3733 128.936 40.9766 127.218 40.9766Z" fill="white"/>
<path d="M144.484 39.5292H139.999V31.6184C139.999 29.2675 138.086 27.3547 135.735 27.3547H74.8061C73.1541 25.984 68.493 22.4588 61.035 19.4699C52.5415 16.0666 38.6157 12.739 20.5121 16.2157C18.588 16.5849 17.1913 18.2753 17.1913 20.2343V27.3547H11.41C9.53001 27.3547 8.00114 28.8847 8.00114 30.7636V39.5292H3.51617C1.57742 39.5292 0 41.1066 0 43.0454V127.21C0 129.149 1.57742 130.727 3.51617 130.727H61.1874C61.5668 130.727 61.9281 130.908 62.154 131.213C63.195 132.611 64.856 133.446 66.5994 133.446H81.4003C83.1426 133.446 84.8047 132.611 85.8457 131.213C86.0716 130.909 86.434 130.727 86.8123 130.727H144.484C146.422 130.727 148 129.149 148 127.21V43.0454C148 41.1066 146.422 39.5292 144.484 39.5292ZM76.1678 31.6907H135.663V118.834H76.1678V31.6907ZM21.5272 20.4365C38.3989 17.2398 51.3333 20.2874 59.2238 23.4151C65.9332 26.0754 70.2409 29.2427 71.8319 30.5265V116.622C66.115 112.74 53.8141 106.207 35.7692 106.207C31.361 106.207 26.6072 106.597 21.5272 107.511V20.4365ZM12.3371 31.6907H17.1913V107.808C17.1913 109.025 17.7276 110.171 18.6637 110.951C19.5975 111.728 20.8158 112.049 22.0094 111.83C38.7275 108.763 51.5422 111.832 59.348 114.947C62.5548 116.228 65.1891 117.604 67.2385 118.833H12.3371V31.6907ZM143.664 126.391H86.8123C85.07 126.391 83.4079 127.226 82.3668 128.624C82.141 128.928 81.7785 129.11 81.4003 129.11H66.5994C66.22 129.11 65.8587 128.928 65.6329 128.625C64.5918 127.226 62.9297 126.391 61.1874 126.391H4.33593V43.8651H8.00114V119.761C8.00114 121.64 9.53114 123.17 11.41 123.17H135.735C138.086 123.17 139.999 121.257 139.999 118.905V43.8651H143.664V126.391Z" fill="white"/>
</svg>
