<svg width="130" height="130" viewBox="0 0 130 130" fill="none" xmlns="http://www.w3.org/2000/svg">
<g clip-path="url(#clip0)">
<path d="M28.1667 112.669H34.6667C35.8633 112.669 36.8333 111.699 36.8333 110.503C36.8333 109.306 35.8633 108.336 34.6667 108.336H28.1667C26.97 108.336 26 109.306 26 110.503C26 111.699 26.97 112.669 28.1667 112.669Z" fill="#0054A6"/>
<path d="M41.166 110.503C41.166 111.699 42.1361 112.669 43.3327 112.669H103.999C105.196 112.669 106.166 111.699 106.166 110.503C106.166 109.306 105.196 108.336 103.999 108.336H43.3327C42.1361 108.336 41.166 109.306 41.166 110.503Z" fill="#0054A6"/>
<path d="M114.833 108.336H112.667C111.47 108.336 110.5 109.306 110.5 110.503C110.5 111.699 111.47 112.669 112.667 112.669H114.833C116.03 112.669 117 111.699 117 110.503C117 109.306 116.03 108.336 114.833 108.336Z" fill="#0054A6"/>
<path d="M108.333 104.001H114.833C116.029 104.001 116.999 103.031 116.999 101.835C116.999 100.638 116.029 99.668 114.833 99.668H108.333C107.136 99.668 106.166 100.638 106.166 101.835C106.166 103.031 107.136 104.001 108.333 104.001Z" fill="#0054A6"/>
<path d="M60.6667 104.001H99.6667C100.863 104.001 101.833 103.031 101.833 101.835C101.833 100.638 100.863 99.668 99.6667 99.668H60.6667C59.47 99.668 58.5 100.638 58.5 101.835C58.5 103.031 59.47 104.001 60.6667 104.001Z" fill="#0054A6"/>
<path d="M28.1667 104.001H52C53.1966 104.001 54.1667 103.031 54.1667 101.835C54.1667 100.638 53.1966 99.668 52 99.668H28.1667C26.97 99.668 26 100.638 26 101.835C26 103.031 26.97 104.001 28.1667 104.001Z" fill="#0054A6"/>
<path d="M125.667 82.3359H23.8334C17.2163 82.3384 10.8979 85.0905 6.38937 89.9339C1.88085 94.7772 -0.412263 101.276 0.0585363 107.877C1.17621 120.507 11.8287 130.147 24.5072 130.003H125.667C128.06 130.003 130 128.063 130 125.669V121.336C130 118.943 128.06 117.003 125.667 117.003V95.3359C128.06 95.3359 130 93.3958 130 91.0026V86.6693C130 84.276 128.06 82.3359 125.667 82.3359ZM121.333 117.003H24.2797C18.7199 117.117 13.9352 113.096 13.091 107.599C12.6839 104.504 13.6297 101.384 15.6865 99.0362C17.7433 96.6881 20.7119 95.3398 23.8334 95.3359H121.333V117.003ZM125.667 91.0026H23.8334C19.4657 91.0021 15.3099 92.8845 12.4298 96.168C9.54968 99.4514 8.22487 103.817 8.79454 108.147C9.91583 115.806 16.54 121.448 24.2797 121.336H125.667V125.669H24.5072C14.1004 125.824 5.32998 117.938 4.38104 107.573C3.99107 102.171 5.86544 96.8503 9.55509 92.8853C13.2447 88.9203 18.4172 86.6685 23.8334 86.6693H125.667V91.0026Z" fill="#0054A6"/>
<path d="M127.116 21.9241L66.471 0.257412C65.5134 -0.0805956 64.4689 -0.0805956 63.5113 0.257412L2.88147 21.9241C1.16305 22.5435 0.0175781 24.174 0.0175781 26.0007C0.0175781 27.8273 1.16305 29.4578 2.88147 30.0772L32.4998 40.6592V58.5018C32.4998 66.9258 61.674 67.1684 64.9998 67.1684C68.3256 67.1684 97.4998 66.9258 97.4998 58.5018V40.6592L104 38.3518V43.3351C104 45.7283 105.94 47.6684 108.333 47.6684H112.666C115.06 47.6684 117 45.7283 117 43.3351V36.8351C116.993 35.8318 116.751 34.844 116.293 33.9512L127.127 30.0772C128.845 29.4578 129.991 27.8273 129.991 26.0007C129.991 24.174 128.845 22.5435 127.127 21.9241H127.116ZM93.1665 53.7351C84.9136 49.9781 67.524 49.8351 64.9998 49.8351C62.4756 49.8351 45.086 49.9781 36.8331 53.7351V30.5257C38.1331 28.8574 48.3511 26.0017 64.9998 26.0017C81.6485 26.0017 91.8665 28.8574 93.1665 30.5257V53.7351ZM64.9998 62.8351C48.9665 62.8351 38.898 60.1874 37.0151 58.5018C38.898 56.8161 48.9708 54.1684 64.9998 54.1684C81.0288 54.1684 91.1016 56.8161 92.9845 58.5018C91.1016 60.1874 81.0331 62.8351 64.9998 62.8351ZM105.016 33.3792L97.4998 36.0594V30.3351C97.4998 21.9111 68.3256 21.6684 64.9998 21.6684C61.674 21.6684 32.4998 21.9111 32.4998 30.3351V36.0573L4.33314 26.0017L65.0301 4.33508L108.333 19.8094V30.7337C106.963 31.2206 105.795 32.1519 105.016 33.3792ZM112.666 43.3351H108.333V36.8351C108.333 35.6385 109.303 34.6684 110.5 34.6684C111.696 34.6684 112.666 35.6385 112.666 36.8351V43.3351ZM112.666 30.6471V21.3586L125.666 26.0017L112.666 30.6471Z" fill="#0054A6"/>
</g>
<defs>
<clipPath id="clip0">
<rect width="130" height="130" fill="white"/>
</clipPath>
</defs>
</svg>
