<svg width="126" height="134" viewBox="0 0 126 134" fill="none" xmlns="http://www.w3.org/2000/svg">
<path d="M13.2598 60.2916H17.7441C19.981 60.2916 21.8007 58.4719 21.8007 56.235V51.751C21.8007 49.5141 19.981 47.6943 17.7441 47.6943H13.2598C11.0229 47.6943 9.20312 49.5141 9.20312 51.751V56.235C9.20312 58.4719 11.0229 60.2916 13.2598 60.2916ZM13.1289 51.7507C13.1289 51.6785 13.1878 51.6199 13.2598 51.6199H17.7441C17.816 51.6199 17.8749 51.6785 17.8749 51.7507V56.2347C17.8749 56.307 17.816 56.3656 17.7441 56.3656H13.2598C13.1878 56.3656 13.1289 56.307 13.1289 56.2347V51.7507Z" fill="white"/>
<path d="M30.6035 60.2916H35.0875C37.3244 60.2916 39.1442 58.4719 39.1442 56.235V51.751C39.1442 49.5141 37.3244 47.6943 35.0875 47.6943H30.6035C28.3666 47.6943 26.5469 49.5141 26.5469 51.751V56.235C26.5469 58.4719 28.3666 60.2916 30.6035 60.2916ZM30.4727 51.7507C30.4727 51.6785 30.5315 51.6199 30.6035 51.6199H35.0875C35.1595 51.6199 35.2184 51.6785 35.2184 51.7507V56.2347C35.2184 56.307 35.1595 56.3656 35.0875 56.3656H30.6035C30.5315 56.3656 30.4727 56.307 30.4727 56.2347V51.7507Z" fill="white"/>
<path d="M47.9473 60.2916H52.4313C54.6682 60.2916 56.4879 58.4719 56.4879 56.235V51.751C56.4879 49.5141 54.6682 47.6943 52.4313 47.6943H47.9473C45.7104 47.6943 43.8906 49.5141 43.8906 51.751V56.235C43.8906 58.4719 45.7104 60.2916 47.9473 60.2916ZM47.8164 51.7507C47.8164 51.6785 47.8753 51.6199 47.9473 51.6199H52.4313C52.5033 51.6199 52.5622 51.6785 52.5622 51.7507V56.2347C52.5622 56.307 52.5033 56.3656 52.4313 56.3656H47.9473C47.8753 56.3656 47.8164 56.307 47.8164 56.2347V51.7507Z" fill="white"/>
<path d="M69.7731 60.2916C72.01 60.2916 73.8297 58.4719 73.8297 56.235V51.751C73.8297 49.5141 72.01 47.6943 69.7731 47.6943H65.2891C63.0521 47.6943 61.2324 49.5141 61.2324 51.751V56.235C61.2324 58.4719 63.0521 60.2916 65.2891 60.2916H69.7731ZM65.1582 56.235V51.751C65.1582 51.6787 65.2171 51.6201 65.2891 51.6201H69.7731C69.845 51.6201 69.9039 51.6787 69.9039 51.751V56.235C69.9039 56.3072 69.845 56.3659 69.7731 56.3659H65.2891C65.2171 56.3659 65.1582 56.3072 65.1582 56.235Z" fill="white"/>
<path d="M87.1129 60.2916C89.3498 60.2916 91.1696 58.4719 91.1696 56.235V51.751C91.1696 49.5141 89.3498 47.6943 87.1129 47.6943H82.6289C80.392 47.6943 78.5723 49.5141 78.5723 51.751V56.235C78.5723 58.4719 80.392 60.2916 82.6289 60.2916H87.1129ZM82.498 56.235V51.751C82.498 51.6787 82.5569 51.6201 82.6289 51.6201H87.1129C87.1849 51.6201 87.2438 51.6787 87.2438 51.751V56.235C87.2438 56.3072 87.1849 56.3659 87.1129 56.3659H82.6289C82.5567 56.3659 82.498 56.3072 82.498 56.235Z" fill="white"/>
<path d="M104.458 60.2916C106.695 60.2916 108.514 58.4719 108.514 56.235V51.751C108.514 49.5141 106.695 47.6943 104.458 47.6943H99.9736C97.7367 47.6943 95.917 49.5141 95.917 51.751V56.235C95.917 58.4719 97.7367 60.2916 99.9736 60.2916H104.458ZM99.8428 56.235V51.751C99.8428 51.6787 99.9017 51.6201 99.9736 51.6201H104.458C104.53 51.6201 104.589 51.6787 104.589 51.751V56.235C104.589 56.3072 104.53 56.3659 104.458 56.3659H99.9736C99.9017 56.3659 99.8428 56.3072 99.8428 56.235Z" fill="white"/>
<path d="M9.20312 73.5768C9.20312 75.8137 11.0229 77.6334 13.2598 77.6334H17.7441C19.981 77.6334 21.8007 75.8137 21.8007 73.5768V69.0928C21.8007 66.8559 19.981 65.0361 17.7441 65.0361H13.2598C11.0229 65.0361 9.20312 66.8559 9.20312 69.0928V73.5768ZM13.1289 69.0928C13.1289 69.0205 13.1878 68.9619 13.2598 68.9619H17.7441C17.816 68.9619 17.8749 69.0205 17.8749 69.0928V73.5768C17.8749 73.649 17.816 73.7077 17.7441 73.7077H13.2598C13.1878 73.7077 13.1289 73.649 13.1289 73.5768V69.0928Z" fill="white"/>
<path d="M26.5469 73.5768C26.5469 75.8137 28.3666 77.6334 30.6035 77.6334H35.0875C37.3244 77.6334 39.1442 75.8137 39.1442 73.5768V69.0928C39.1442 66.8559 37.3244 65.0361 35.0875 65.0361H30.6035C28.3666 65.0361 26.5469 66.8559 26.5469 69.0928V73.5768ZM30.4727 69.0928C30.4727 69.0205 30.5315 68.9619 30.6035 68.9619H35.0875C35.1595 68.9619 35.2184 69.0205 35.2184 69.0928V73.5768C35.2184 73.649 35.1595 73.7077 35.0875 73.7077H30.6035C30.5315 73.7077 30.4727 73.649 30.4727 73.5768V69.0928Z" fill="white"/>
<path d="M43.8906 73.5768C43.8906 75.8137 45.7104 77.6334 47.9473 77.6334H52.4313C54.6682 77.6334 56.4879 75.8137 56.4879 73.5768V69.0928C56.4879 66.8559 54.6682 65.0361 52.4313 65.0361H47.9473C45.7104 65.0361 43.8906 66.8559 43.8906 69.0928V73.5768ZM47.8164 69.0928C47.8164 69.0205 47.8753 68.9619 47.9473 68.9619H52.4313C52.5033 68.9619 52.5622 69.0205 52.5622 69.0928V73.5768C52.5622 73.649 52.5033 73.7077 52.4313 73.7077H47.9473C47.8753 73.7077 47.8164 73.649 47.8164 73.5768V69.0928Z" fill="white"/>
<path d="M9.20312 90.9205C9.20312 93.1575 11.0229 94.9772 13.2598 94.9772H17.7441C19.981 94.9772 21.8007 93.1575 21.8007 90.9205V86.4365C21.8007 84.1996 19.981 82.3799 17.7441 82.3799H13.2598C11.0229 82.3799 9.20312 84.1996 9.20312 86.4365V90.9205ZM13.1289 86.4365C13.1289 86.3643 13.1878 86.3057 13.2598 86.3057H17.7441C17.816 86.3057 17.8749 86.3643 17.8749 86.4365V90.9205C17.8749 90.9928 17.816 91.0514 17.7441 91.0514H13.2598C13.1878 91.0514 13.1289 90.9928 13.1289 90.9205V86.4365Z" fill="white"/>
<path d="M26.5469 90.9205C26.5469 93.1575 28.3666 94.9772 30.6035 94.9772H35.0875C37.3244 94.9772 39.1442 93.1575 39.1442 90.9205V86.4365C39.1442 84.1996 37.3244 82.3799 35.0875 82.3799H30.6035C28.3666 82.3799 26.5469 84.1996 26.5469 86.4365V90.9205ZM30.4727 86.4365C30.4727 86.3643 30.5315 86.3057 30.6035 86.3057H35.0875C35.1595 86.3057 35.2184 86.3643 35.2184 86.4365V90.9205C35.2184 90.9928 35.1595 91.0514 35.0875 91.0514H30.6035C30.5315 91.0514 30.4727 90.9928 30.4727 90.9205V86.4365Z" fill="white"/>
<path d="M43.8906 90.9205C43.8906 93.1575 45.7104 94.9772 47.9473 94.9772H52.4313C54.6682 94.9772 56.4879 93.1575 56.4879 90.9205V86.4365C56.4879 84.1996 54.6682 82.3799 52.4313 82.3799H47.9473C45.7104 82.3799 43.8906 84.1996 43.8906 86.4365V90.9205ZM47.8164 86.4365C47.8164 86.3643 47.8753 86.3057 47.9473 86.3057H52.4313C52.5033 86.3057 52.5622 86.3643 52.5622 86.4365V90.9205C52.5622 90.9928 52.5033 91.0514 52.4313 91.0514H47.9473C47.8753 91.0514 47.8164 90.9928 47.8164 90.9205V86.4365Z" fill="white"/>
<path d="M117.195 76.6852V19.3059C117.195 13.4421 112.424 8.67179 106.56 8.67179H91.174V7.38282C91.174 3.31179 87.8622 0 83.7914 0C79.7207 0 76.4089 3.31179 76.4089 7.38256V8.67153H41.3095V7.38256C41.3095 3.31179 37.9977 0 33.927 0C29.8559 0 26.5441 3.31179 26.5441 7.38256V8.67153H11.1637C5.29991 8.67153 0.529297 13.4421 0.529297 19.3057V50.0668C0.529297 51.1508 1.40789 52.0297 2.49219 52.0297C3.57649 52.0297 4.45508 51.1508 4.45508 50.0668V42.948H113.269V72.8947C107.311 67.9877 99.6838 65.0371 91.3805 65.0371C84.976 65.0371 78.975 66.7943 73.8307 69.8488V69.1678C73.8307 66.8901 71.9777 65.0371 69.7 65.0371H65.3644C63.0866 65.0371 61.2336 66.8901 61.2336 69.1678V73.5037C61.2336 75.5859 62.7838 77.3086 64.7896 77.5897C59.8625 83.5537 56.8991 91.1964 56.8991 99.5186C56.8991 99.5871 56.9012 99.6549 56.9017 99.7235H11.1637C7.46458 99.7235 4.45508 96.714 4.45508 93.0151V57.9184C4.45508 56.8343 3.57649 55.9555 2.49219 55.9555C1.40789 55.9555 0.529297 56.8343 0.529297 57.9184V101.687C0.529297 107.55 5.29964 112.321 11.1637 112.321H15.9126C16.9969 112.321 17.8755 111.442 17.8755 110.358C17.8755 109.274 16.9969 108.395 15.9126 108.395H11.1637C7.46458 108.395 4.45508 105.386 4.45508 101.687V101.259C6.28632 102.752 8.6219 103.649 11.1637 103.649H57.1474C57.3416 105.268 57.6484 106.853 58.0595 108.395H23.7639C22.6796 108.395 21.801 109.274 21.801 110.358C21.801 111.442 22.6796 112.321 23.7639 112.321H59.3647C64.4585 125.013 76.8891 134 91.3805 134C110.394 134 125.862 118.532 125.862 99.5186C125.862 90.7688 122.584 82.7714 117.195 76.6852ZM80.3347 7.38256C80.3347 5.47646 81.8853 3.92578 83.7914 3.92578C85.6975 3.92578 87.2482 5.47646 87.2482 7.38256V18.2222C87.2482 20.1283 85.6975 21.6792 83.7914 21.6792C81.8853 21.6792 80.3347 20.1285 80.3347 18.2222V7.38256ZM30.4699 7.38256C30.4699 5.47646 32.0209 3.92578 33.927 3.92578C35.8331 3.92578 37.3837 5.47646 37.3837 7.38256V18.2222C37.3837 20.1283 35.8331 21.6792 33.927 21.6792C32.0209 21.6792 30.4699 20.1285 30.4699 18.2222V7.38256ZM11.1637 12.5973H26.5441V17.3431H24.1714C23.0871 17.3431 22.2085 18.2219 22.2085 19.3059C22.2085 20.39 23.0871 21.2688 24.1714 21.2688H27.205C28.3675 23.8232 30.9423 25.6047 33.927 25.6047C36.9116 25.6047 39.4864 23.8235 40.6487 21.2688H43.6823C44.7666 21.2688 45.6452 20.39 45.6452 19.3059C45.6452 18.2219 44.7666 17.3431 43.6823 17.3431H41.3095V12.5973H76.4089V17.3431H74.0359C72.9516 17.3431 72.073 18.2219 72.073 19.3059C72.073 20.39 72.9516 21.2688 74.0359 21.2688H77.0697C78.2323 23.8232 80.8071 25.6047 83.7914 25.6047C86.7758 25.6047 89.3509 23.8235 90.5132 21.2688H93.547C94.6313 21.2688 95.5099 20.39 95.5099 19.3059C95.5099 18.2219 94.6313 17.3431 93.547 17.3431H91.174V12.5973H106.56C110.259 12.5973 113.269 15.6068 113.269 19.3057V30.3505H4.45534V19.3059C4.45534 15.6068 7.46484 12.5973 11.1637 12.5973ZM4.45534 39.0223V34.2765H113.269V39.0223H4.45534ZM65.1594 69.1678C65.1594 69.0547 65.2516 68.9629 65.3644 68.9629H69.7C69.813 68.9629 69.9049 69.055 69.9049 69.1678V72.562C69.4406 72.9326 68.9865 73.315 68.5421 73.7086H65.3641C65.251 73.7086 65.1592 73.6165 65.1592 73.5037V69.1678H65.1594ZM91.3805 130.074C74.5321 130.074 60.8248 116.367 60.8248 99.5186C60.8248 82.6702 74.5321 68.9629 91.3805 68.9629C108.229 68.9629 121.936 82.6702 121.936 99.5186C121.936 116.367 108.229 130.074 91.3805 130.074Z" fill="white"/>
<path d="M91.38 73.709C77.1485 73.709 65.5703 85.2872 65.5703 99.5189C65.5703 113.751 77.1485 125.329 91.38 125.329C105.612 125.329 117.19 113.751 117.19 99.5189C117.19 85.2872 105.612 73.709 91.38 73.709ZM91.38 121.403C79.3129 121.403 69.4961 111.586 69.4961 99.5189C69.4961 87.4518 79.3132 77.6348 91.38 77.6348C103.447 77.6348 113.264 87.4518 113.264 99.5189C113.264 111.586 103.447 121.403 91.38 121.403Z" fill="white"/>
<path d="M102.22 97.5551H97.3642C96.7406 95.6587 95.2399 94.1577 93.3434 93.5341V84.3428C93.3434 83.2587 92.4648 82.3799 91.3805 82.3799C90.2962 82.3799 89.4177 83.2587 89.4177 84.3428V93.5341C86.9031 94.3611 85.082 96.7302 85.082 99.518C85.082 102.991 87.9075 105.817 91.3805 105.817C94.1684 105.817 96.5375 103.995 97.3642 101.481H102.22C103.304 101.481 104.183 100.602 104.183 99.518C104.183 98.434 103.304 97.5551 102.22 97.5551ZM91.3803 101.891C90.072 101.891 89.0075 100.827 89.0075 99.518C89.0075 98.2094 90.072 97.145 91.3803 97.145C92.6886 97.145 93.753 98.2094 93.753 99.518C93.753 100.827 92.6886 101.891 91.3803 101.891Z" fill="white"/>
</svg>
