<svg width="130" height="130" viewBox="0 0 130 130" fill="none" xmlns="http://www.w3.org/2000/svg">
<path d="M114.906 54.6305L110.006 53.6514C108.394 53.3284 107.14 52.0772 106.819 50.4644L105.92 45.9652C107.794 44.5798 109.314 42.7497 110.327 40.627H111.719C116.2 40.627 119.844 36.983 119.844 32.502C119.844 30.6719 119.214 29.0002 118.188 27.6412L118.932 25.4109C119.537 23.5909 119.844 21.7039 119.844 19.7905C119.844 9.99781 111.877 2.03125 102.083 2.03125H96.6977C91.7028 2.03125 87.0472 4.38547 84.0877 8.36875L82.6069 8.74047C81.4552 9.02688 80.403 9.51844 79.4645 10.1562H6.09375V62.9688H25.8355L22.7886 75.1562H2.03125V79.2188H127.969V70.5616C127.969 62.8428 122.474 56.1437 114.906 54.6305ZM55.2886 62.9688L58.3355 75.1562H37.1333L40.1802 62.9688H55.2886ZM59.477 62.9688H68.9406C67.7259 65.2539 67.0312 67.8417 67.0312 70.5616V75.1562H62.5239L59.477 62.9688ZM71.0938 70.5616C71.0938 64.7725 75.2131 59.7472 80.8905 58.6117L82.6069 58.2684L90.283 75.1562H71.0938V70.5616ZM89.9722 55.382L93.7523 57.2711L88.5198 61.4575L86.6694 57.3869C87.9348 56.9847 89.0642 56.2981 89.9722 55.382ZM98.0667 62.9688H96.9333L96.133 60.5698L97.5 59.477L98.867 60.5698L98.0667 62.9688ZM93.3827 65.1645L92.5295 70.2812L90.2545 65.2742L92.753 63.2755L93.3827 65.1645ZM97.1892 67.0312H97.8108L99.1656 75.1562H95.8344L97.1892 67.0312ZM101.617 65.1645L102.247 63.2755L104.745 65.2742L102.47 70.2812L101.617 65.1645ZM108.331 57.3889L106.48 61.4595L101.248 57.2731L105.028 55.3841C105.936 56.2981 107.065 56.9847 108.331 57.3889ZM102.836 51.2586C102.877 51.4617 102.946 51.6547 103.001 51.8517L97.5 54.6041L91.9973 51.8537C92.0522 51.6567 92.1213 51.4637 92.1619 51.2606L92.8261 47.9456C94.2927 48.4575 95.8608 48.75 97.5 48.75C99.1392 48.75 100.707 48.4575 102.174 47.9436L102.836 51.2586ZM107.656 34.5312C107.656 40.1314 103.1 44.6875 97.5 44.6875C91.8998 44.6875 87.3438 40.1314 87.3438 34.5312V26.6561C87.3438 23.8652 89.2288 21.4419 91.9303 20.7512C92.8789 22.8841 95.0178 24.375 97.5 24.375H105.625C106.744 24.375 107.656 25.285 107.656 26.4062V34.5312ZM111.719 36.5625H111.556C111.652 35.8963 111.719 35.2219 111.719 34.5312V28.4375C113.959 28.4375 115.781 30.2595 115.781 32.5C115.781 34.7405 113.959 36.5625 111.719 36.5625ZM83.592 12.6791L86.5658 11.9356L87.0005 11.2836C89.1678 8.03359 92.7936 6.09375 96.6977 6.09375H102.083C109.637 6.09375 115.781 12.2383 115.781 19.7905C115.781 21.2652 115.544 22.7216 115.078 24.1231L114.79 24.9864C113.841 24.5984 112.805 24.375 111.719 24.375H111.345C110.504 22.0167 108.27 20.3125 105.625 20.3125H97.5C96.3808 20.3125 95.4688 19.4025 95.4688 18.2812C95.4688 17.16 96.3808 16.25 97.5 16.25H99.5312V12.1875H97.5C94.7091 12.1875 92.3487 14.0745 91.6317 16.638L90.9736 16.8025C87.2056 17.745 84.4147 20.7188 83.5717 24.375H83.2812C82.2595 24.375 81.2927 24.5863 80.3928 24.9295C79.8545 23.0588 79.2188 20.4039 79.2188 18.2812C79.2188 15.6264 81.0164 13.325 83.592 12.6791ZM83.2812 28.4375V34.5312C83.2812 35.2219 83.3483 35.8963 83.4438 36.5625H83.2812C81.0408 36.5625 79.2188 34.7405 79.2188 32.5C79.2188 30.2595 81.0408 28.4375 83.2812 28.4375ZM10.1562 14.2188H76.0663C75.4975 15.468 75.1562 16.837 75.1562 18.2812C75.1562 21.5475 76.3039 25.5673 76.9255 27.5011C75.8347 28.8844 75.1562 30.6048 75.1562 32.5C75.1562 36.9809 78.8003 40.625 83.2812 40.625H84.6727C85.6863 42.7477 87.2056 44.5778 89.0805 45.9631L88.1806 50.4623C87.8577 52.0752 86.6064 53.3264 84.9936 53.6494L80.0942 54.6284C76.9519 55.2561 74.1792 56.7877 71.9956 58.9042H10.1562V14.2188ZM30.0239 62.9688H35.9917L32.9448 75.1562H26.977L30.0239 62.9688ZM123.906 75.1562H104.717L112.393 58.2684L114.11 58.6117C119.787 59.7472 123.906 64.7745 123.906 70.5616V75.1562Z" fill="white"/>
<path d="M71.0937 22.3438H46.7187V30.4688H38.5937V18.2812H14.2188V42.6562H26.4062V54.8438H54.8437V42.6562H71.0937V22.3438ZM18.2812 22.3438H34.5312V38.5938H18.2812V22.3438ZM50.7812 50.7812H30.4687V42.6562H38.5937V34.5312H50.7812V50.7812ZM67.0312 38.5938H54.8437V30.4688H50.7812V26.4062H67.0312V38.5938Z" fill="white"/>
<path d="M114.712 110.09C117.879 107.423 119.812 103.456 119.812 99.2188V97.1875C119.812 90.4661 114.346 85 107.625 85H103.562C96.8411 85 91.375 90.4661 91.375 97.1875V99.2188C91.375 103.458 93.3108 107.427 96.4734 110.09C91.5517 111.494 87.5339 114.872 85.267 119.292C82.9819 114.876 78.9559 111.51 74.0972 110.104C77.205 107.494 79.1875 103.584 79.1875 99.2188V97.1875C79.1875 90.4661 73.7214 85 67 85H62.9375C56.2161 85 50.75 90.4661 50.75 97.1875V99.2188C50.75 103.584 52.7325 107.494 55.8403 110.104C50.9755 111.512 46.9475 114.882 44.6644 119.306C42.3833 114.882 38.3512 111.502 33.4864 110.092C36.5861 107.482 38.5625 103.578 38.5625 99.2188V95.1562C38.5625 89.5561 34.0064 85 28.4062 85H14.1875C11.947 85 10.125 86.822 10.125 89.0625V99.2188C10.125 103.584 12.1075 107.494 15.2153 110.104C7.59406 112.308 2 119.334 2 127.656V129.688H127.938V127.656C127.938 119.355 122.433 112.292 114.712 110.09ZM109.656 113.438C109.656 115.678 107.834 117.5 105.594 117.5C103.353 117.5 101.531 115.678 101.531 113.438C101.531 113.234 101.582 113.045 101.61 112.85C102.892 113.224 104.235 113.438 105.594 113.438C106.953 113.438 108.297 113.224 109.577 112.85C109.605 113.045 109.656 113.234 109.656 113.438ZM95.4375 99.2188V97.1875C95.4375 92.7066 99.0816 89.0625 103.562 89.0625H107.625C112.106 89.0625 115.75 92.7066 115.75 97.1875V99.2188C115.75 103.133 113.457 106.74 109.892 108.416C107.288 109.67 103.916 109.678 101.279 108.408C97.7308 106.74 95.4375 103.133 95.4375 99.2188ZM54.8125 99.2188V97.1875C54.8125 92.7066 58.4566 89.0625 62.9375 89.0625H67C71.4809 89.0625 75.125 92.7066 75.125 97.1875V99.2188C75.125 104.819 70.5689 109.375 64.9688 109.375C59.3686 109.375 54.8125 104.819 54.8125 99.2188ZM60.9062 113.438H69.0312C76.1792 113.438 82.0962 118.747 83.0875 125.625H46.85C47.8413 118.747 53.7583 113.438 60.9062 113.438ZM14.1875 99.2188V89.0625H28.4062C31.7659 89.0625 34.5 91.7966 34.5 95.1562V99.2188C34.5 104.819 29.9439 109.375 24.3438 109.375C18.7436 109.375 14.1875 104.819 14.1875 99.2188ZM6.20672 125.625C7.19594 118.743 13.1292 113.438 20.2812 113.438H28.4062C35.5583 113.438 41.4916 118.743 42.4808 125.625H6.20672ZM87.4709 125.625C88.2591 120.094 92.1997 115.56 97.5256 114.01C97.8262 118.219 101.31 121.562 105.594 121.562C109.876 121.562 113.359 118.221 113.66 114.014C118.988 115.564 122.945 120.094 123.731 125.625H87.4709Z" fill="white"/>
</svg>
