<svg width="126" height="125" viewBox="0 0 126 125" fill="none" xmlns="http://www.w3.org/2000/svg">
<path d="M119.2 77.9117C119.717 77.9117 120.212 77.7065 120.577 77.3412C120.943 76.9759 121.148 76.4805 121.148 75.9639V68.1728C121.148 67.6562 120.943 67.1608 120.577 66.7955C120.212 66.4302 119.717 66.225 119.2 66.225H110.634C108.172 66.2225 105.746 65.6335 103.556 64.5068C101.367 63.38 99.4777 61.748 98.0445 59.7458C96.036 56.9396 93.226 54.8063 89.9832 53.6259V48.6949C89.9832 48.1783 89.778 47.6829 89.4127 47.3176C89.0475 46.9523 88.552 46.7471 88.0354 46.7471H80.2443C79.7277 46.7471 79.2323 46.9523 78.867 47.3176C78.5017 47.6829 78.2965 48.1783 78.2965 48.6949V53.6259C75.0537 54.8063 72.2436 56.9397 70.2352 59.7461C68.802 61.7482 66.9126 63.3802 64.7232 64.5068C62.5339 65.6335 60.1077 66.2225 57.6454 66.225H49.0796C48.563 66.225 48.0676 66.4302 47.7023 66.7955C47.3371 67.1608 47.1318 67.6562 47.1318 68.1728V75.9639C47.1318 76.4805 47.3371 76.9759 47.7023 77.3412C48.0676 77.7065 48.563 77.9117 49.0796 77.9117H55.667L51.7714 85.7029H49.0796C48.563 85.7029 48.0676 85.9081 47.7023 86.2734C47.3371 86.6387 47.1318 87.1341 47.1318 87.6507V88.6246C47.1318 91.9824 48.4657 95.2027 50.8401 97.577C53.2144 99.9513 56.4347 101.285 59.7925 101.285C63.1503 101.285 66.3706 99.9513 68.7449 97.577C71.1192 95.2027 72.4531 91.9824 72.4531 88.6246V87.6507C72.4531 87.1341 72.2479 86.6387 71.8826 86.2734C71.5173 85.9081 71.0219 85.7029 70.5053 85.7029H67.8136L63.918 77.9117H70.5053C70.8584 77.9117 71.2047 77.8158 71.5075 77.6343L77.906 73.795C78.0348 73.7177 78.165 73.6431 78.2965 73.5712V104.591L75.3063 109.076H68.5575C68.1958 109.076 67.8413 109.177 67.5336 109.367C67.2259 109.557 66.9772 109.829 66.8154 110.153L62.9198 117.944C62.7713 118.241 62.7012 118.571 62.7161 118.903C62.731 119.235 62.8305 119.557 63.005 119.839C63.1796 120.122 63.4234 120.355 63.7134 120.517C64.0034 120.678 64.3299 120.763 64.662 120.763H103.618C103.95 120.763 104.276 120.678 104.566 120.517C104.856 120.355 105.1 120.122 105.275 119.839C105.449 119.557 105.549 119.235 105.564 118.903C105.579 118.571 105.508 118.241 105.36 117.944L101.464 110.153C101.303 109.829 101.054 109.557 100.746 109.367C100.438 109.177 100.084 109.076 99.7222 109.076H92.9734L89.9832 104.591V73.5712C90.1145 73.6435 90.2448 73.7177 90.3737 73.795L96.7722 77.6343C97.075 77.8158 97.4214 77.9117 97.7744 77.9117H104.362L100.466 85.7029H97.7744C97.2578 85.7029 96.7624 85.9081 96.3971 86.2734C96.0318 86.6387 95.8266 87.1341 95.8266 87.6507V88.6246C95.8266 91.9824 97.1605 95.2027 99.5348 97.577C101.909 99.9513 105.129 101.285 108.487 101.285C111.845 101.285 115.065 99.9513 117.44 97.577C119.814 95.2027 121.148 91.9824 121.148 88.6246V87.6507C121.148 87.1341 120.943 86.6387 120.577 86.2734C120.212 85.9081 119.717 85.7029 119.2 85.7029H116.508L112.613 77.9117H119.2ZM82.1921 50.6427H86.0877V52.7036C84.7935 52.5527 83.4862 52.5527 82.1921 52.7036V50.6427ZM59.7925 97.3896C57.6372 97.3869 55.5582 96.5914 53.9517 95.1546C52.3452 93.7177 51.3235 91.7401 51.0812 89.5985H68.5038C68.2615 91.7401 67.2397 93.7177 65.6332 95.1546C64.0267 96.5914 61.9478 97.3869 59.7925 97.3896ZM56.1268 85.7029L59.7925 78.3716L63.4581 85.7029H56.1268ZM100.466 116.868H67.8136L69.7614 112.972H98.5184L100.466 116.868ZM86.4148 106.261L88.2916 109.076H79.9882L81.8649 106.261C82.0782 105.941 82.1921 105.565 82.1921 105.181V72.2272C83.482 72.0154 84.7978 72.0154 86.0877 72.2272V105.181C86.0877 105.565 86.2015 105.941 86.4148 106.261ZM92.378 70.4544H92.3779C89.8894 68.9614 87.0419 68.1728 84.1398 68.1728C81.2378 68.1728 78.3903 68.9614 75.9017 70.4544L69.9658 74.0161H51.0274V70.1206H57.6454C60.7276 70.1174 63.7647 69.3802 66.5053 67.9698C69.2459 66.5595 71.6111 64.5166 73.4051 62.0103C74.6256 60.3016 76.2364 58.909 78.1035 57.9482C79.9705 56.9873 82.04 56.486 84.1398 56.486C86.2396 56.486 88.3091 56.9872 90.1762 57.948C92.0433 58.9088 93.6541 60.3014 94.8746 62.0101C96.6686 64.5164 99.0338 66.5593 101.774 67.9697C104.515 69.3801 107.552 70.1174 110.634 70.1206H117.252V74.0161H98.3139L92.378 70.4544ZM108.487 97.3896C106.332 97.3869 104.253 96.5914 102.646 95.1546C101.04 93.7177 100.018 91.7401 99.7759 89.5985H117.199C116.956 91.7401 115.935 93.7177 114.328 95.1546C112.722 96.5914 110.643 97.3869 108.487 97.3896ZM104.822 85.7029L108.487 78.3716L112.153 85.7029H104.822Z" fill="white"/>
<path d="M84.1397 66.2248C86.2912 66.2248 88.0353 64.4806 88.0353 62.3292C88.0353 60.1777 86.2912 58.4336 84.1397 58.4336C81.9883 58.4336 80.2441 60.1777 80.2441 62.3292C80.2441 64.4806 81.9883 66.2248 84.1397 66.2248Z" fill="white"/>
<path d="M37.3926 19.4775H56.8705V23.3731H37.3926V19.4775Z" fill="white"/>
<path d="M27.6543 19.4775H31.5499V23.3731H27.6543V19.4775Z" fill="white"/>
<path d="M39.3408 33.1123H56.8709V37.0079H39.3408V33.1123Z" fill="white"/>
<path d="M17.915 33.1123H35.4452V37.0079H17.915V33.1123Z" fill="white"/>
<path d="M49.0791 46.7471H74.4004V50.6427H49.0791V46.7471Z" fill="white"/>
<path d="M29.6016 46.7471H45.1839V50.6427H29.6016V46.7471Z" fill="white"/>
<path d="M17.915 46.7471H25.7062V50.6427H17.915V46.7471Z" fill="white"/>
<path d="M17.915 60.3818H43.2363V64.2774H17.915V60.3818Z" fill="white"/>
<path d="M31.5498 74.0166H43.2366V77.9122H31.5498V74.0166Z" fill="white"/>
<path d="M17.915 74.0166H25.7062V77.9122H17.915V74.0166Z" fill="white"/>
<path d="M17.915 87.6504H43.2363V91.546H17.915V87.6504Z" fill="white"/>
<path d="M33.4971 101.285H51.0272V105.181H33.4971V101.285Z" fill="white"/>
<path d="M17.915 101.285H29.6018V105.181H17.915V101.285Z" fill="white"/>
<path d="M10.1236 120.763H58.8184V116.867H10.1236C9.60724 116.867 9.11216 116.661 8.747 116.296C8.38185 115.931 8.17645 115.436 8.17586 114.92V9.73892C8.17645 9.22251 8.38185 8.72743 8.747 8.36228C9.11216 7.99712 9.60724 7.79172 10.1236 7.79113H63.3824C63.8127 7.79141 64.2418 7.83883 64.6618 7.93254V27.269C64.6647 29.8511 65.6917 32.3265 67.5175 34.1523C69.3433 35.9781 71.8187 37.0051 74.4008 37.008H86.0875V33.1124H74.4008C72.8515 33.1107 71.3663 32.4945 70.2708 31.399C69.1753 30.3035 68.5591 28.8183 68.5574 27.269V10.5459L92.1671 34.1553C92.7114 34.6967 93.143 35.3407 93.4367 36.0499C93.7305 36.7592 93.8807 37.5197 93.8787 38.2874V52.5903H97.7743V38.2874C97.7777 37.0079 97.5274 35.7405 97.0377 34.5584C96.5481 33.3763 95.8289 32.303 94.9218 31.4007L70.269 6.74828C69.3668 5.84099 68.2936 5.12169 67.1115 4.63201C65.9294 4.14234 64.6619 3.89202 63.3824 3.89554H10.1236C8.57443 3.89732 7.08918 4.51353 5.99372 5.60899C4.89825 6.70445 4.28205 8.1897 4.28027 9.73892V114.92C4.28205 116.469 4.89825 117.954 5.99372 119.05C7.08918 120.145 8.57443 120.761 10.1236 120.763Z" fill="white"/>
</svg>
