<svg width="97" height="125" viewBox="0 0 97 125" fill="none" xmlns="http://www.w3.org/2000/svg">
<path d="M0.547852 14.5758V122.855C0.547852 124.005 1.48018 124.937 2.63037 124.937H81.7574C82.9067 124.937 83.839 124.005 83.839 122.855V35.3992C83.839 35.3529 83.8167 35.3135 83.8124 35.268C83.8022 35.0853 83.7661 34.9052 83.7061 34.7328C83.6829 34.6659 83.6666 34.6016 83.6375 34.5364C83.5363 34.3099 83.3956 34.1032 83.2206 33.9265L62.398 13.104C62.2214 12.9281 62.0138 12.7875 61.7856 12.6871C61.723 12.6605 61.6596 12.6382 61.5944 12.6185C61.4203 12.5585 61.2393 12.5224 61.0549 12.5104C61.0197 12.5164 60.9785 12.4941 60.9348 12.4941H2.63037C1.48018 12.4941 0.547852 13.4256 0.547852 14.5758ZM76.7303 33.3167H63.0165V19.6028L76.7303 33.3167ZM4.71202 16.6583H58.8523V35.3992C58.8523 36.5486 59.7846 37.4809 60.9339 37.4809H79.6749V120.773H4.71202V16.6583Z" fill="white"/>
<path d="M88.0039 108.279V112.443H94.2505C95.4007 112.443 96.3331 111.511 96.3331 110.361V2.08252C96.3331 0.932329 95.4007 0 94.2505 0H15.1235C13.9733 0 13.041 0.932329 13.041 2.08252V8.3292H17.206V4.16417H92.168V108.279H88.0039Z" fill="white"/>
<path d="M17.2061 41.6465H67.1804V45.8107H17.2061V41.6465Z" fill="white"/>
<path d="M17.2061 29.1514H33.8645V33.3164H17.2061V29.1514Z" fill="white"/>
<path d="M17.2061 54.1396H50.5229V58.3047H17.2061V54.1396Z" fill="white"/>
<path d="M54.6865 54.1396H67.1799V58.3047H54.6865V54.1396Z" fill="white"/>
<path d="M17.2061 66.6328H67.1804V70.7978H17.2061V66.6328Z" fill="white"/>
<path d="M17.2061 91.6211H67.1804V95.7861H17.2061V91.6211Z" fill="white"/>
<path d="M35.9463 79.127H67.1806V83.2912H35.9463V79.127Z" fill="white"/>
<path d="M17.2061 79.127H31.7819V83.2912H17.2061V79.127Z" fill="white"/>
<path d="M17.2061 104.114H25.5353V108.278H17.2061V104.114Z" fill="white"/>
<path d="M29.6992 104.114H67.1802V108.278H29.6992V104.114Z" fill="white"/>
</svg>
