<svg width="125" height="125" viewBox="0 0 125 125" fill="none" xmlns="http://www.w3.org/2000/svg">
<path d="M31.4192 50.2102H58.4006L61.1572 52.8936C61.5309 53.2611 62.034 53.467 62.5581 53.467C63.0822 53.467 63.5853 53.2611 63.959 52.8936L66.7178 50.2097H93.3535C94.6713 50.208 95.9346 49.6838 96.8665 48.752C97.7984 47.8203 98.3228 46.557 98.3247 45.2393V7.4126C98.323 6.09438 97.7985 4.83065 96.8662 3.89869C95.9339 2.96672 94.67 2.44263 93.3518 2.44141H66.8228C65.9285 2.44105 65.0449 2.63563 64.2336 3.01161C63.4222 3.38759 62.7026 3.93592 62.1248 4.61841C61.5469 3.93592 60.8273 3.38759 60.0159 3.01161C59.2046 2.63563 58.321 2.44105 57.4268 2.44141H31.4192C30.101 2.4427 28.8371 2.96681 27.9049 3.89876C26.9726 4.83071 26.448 6.0944 26.4463 7.4126V45.2393C26.4481 46.5574 26.9727 47.821 27.9049 48.7529C28.8372 49.6848 30.101 50.2089 31.4192 50.2102ZM63.5923 8.59375C63.5943 7.73831 63.9355 6.9186 64.5412 6.31444C65.1468 5.71029 65.9673 5.37103 66.8228 5.37109H93.3518C93.8933 5.37148 94.4125 5.58664 94.7955 5.96936C95.1786 6.35208 95.3942 6.87112 95.395 7.4126V45.2393C95.3942 45.7807 95.1786 46.2998 94.7955 46.6825C94.4125 47.0652 93.8933 47.2804 93.3518 47.2808H66.3428C65.8195 47.2795 65.3166 47.4838 64.9424 47.8496L63.9902 48.7773L63.5869 8.59375H63.5923ZM29.376 7.4126C29.3768 6.87112 29.5924 6.35208 29.9755 5.96936C30.3585 5.58664 30.8777 5.37148 31.4192 5.37109H57.4268C57.8515 5.37148 58.2719 5.45553 58.6641 5.61844C59.0563 5.78135 59.4126 6.01993 59.7126 6.32055C60.0126 6.62118 60.2504 6.97795 60.4125 7.37051C60.5746 7.76306 60.6577 8.1837 60.6572 8.6084L61.0596 48.709L60.1765 47.8498C59.8023 47.4837 59.2992 47.2793 58.7756 47.2805H31.4192C30.8777 47.2801 30.3585 47.065 29.9755 46.6822C29.5924 46.2995 29.3768 45.7805 29.376 45.239V7.4126Z" fill="white"/>
<path d="M43.9102 13.0195H54.8618C55.2503 13.0195 55.6229 12.8652 55.8976 12.5905C56.1723 12.3158 56.3267 11.9432 56.3267 11.5547C56.3267 11.1662 56.1723 10.7936 55.8976 10.5189C55.6229 10.2442 55.2503 10.0898 54.8618 10.0898H43.9102C43.5217 10.0898 43.1491 10.2442 42.8744 10.5189C42.5996 10.7936 42.4453 11.1662 42.4453 11.5547C42.4453 11.9432 42.5996 12.3158 42.8744 12.5905C43.1491 12.8652 43.5217 13.0195 43.9102 13.0195Z" fill="white"/>
<path d="M34.4238 13.0195H38.6521C39.0406 13.0195 39.4132 12.8652 39.6879 12.5905C39.9626 12.3158 40.1169 11.9432 40.1169 11.5547C40.1169 11.1662 39.9626 10.7936 39.6879 10.5189C39.4132 10.2442 39.0406 10.0898 38.6521 10.0898H34.4238C34.0353 10.0898 33.6627 10.2442 33.388 10.5189C33.1133 10.7936 32.959 11.1662 32.959 11.5547C32.959 11.9432 33.1133 12.3158 33.388 12.5905C33.6627 12.8652 34.0353 13.0195 34.4238 13.0195Z" fill="white"/>
<path d="M54.8613 19.6152H52.333C51.9445 19.6152 51.5719 19.7696 51.2972 20.0443C51.0225 20.319 50.8682 20.6916 50.8682 21.0801C50.8682 21.4686 51.0225 21.8412 51.2972 22.1159C51.5719 22.3906 51.9445 22.5449 52.333 22.5449H54.8613C55.2498 22.5449 55.6224 22.3906 55.8971 22.1159C56.1718 21.8412 56.3262 21.4686 56.3262 21.0801C56.3262 20.6916 56.1718 20.319 55.8971 20.0443C55.6224 19.7696 55.2498 19.6152 54.8613 19.6152Z" fill="white"/>
<path d="M34.4238 22.5449H47.0845C47.473 22.5449 47.8456 22.3906 48.1203 22.1159C48.395 21.8412 48.5493 21.4686 48.5493 21.0801C48.5493 20.6916 48.395 20.319 48.1203 20.0443C47.8456 19.7696 47.473 19.6152 47.0845 19.6152H34.4238C34.0353 19.6152 33.6627 19.7696 33.388 20.0443C33.1133 20.319 32.959 20.6916 32.959 21.0801C32.959 21.4686 33.1133 21.8412 33.388 22.1159C33.6627 22.3906 34.0353 22.5449 34.4238 22.5449Z" fill="white"/>
<path d="M54.8613 29.1406H39.6914C39.3029 29.1406 38.9303 29.295 38.6556 29.5697C38.3809 29.8444 38.2266 30.217 38.2266 30.6055C38.2266 30.994 38.3809 31.3666 38.6556 31.6413C38.9303 31.916 39.3029 32.0703 39.6914 32.0703H54.8613C55.2498 32.0703 55.6224 31.916 55.8971 31.6413C56.1718 31.3666 56.3262 30.994 56.3262 30.6055C56.3262 30.217 56.1718 29.8444 55.8971 29.5697C55.6224 29.295 55.2498 29.1406 54.8613 29.1406Z" fill="white"/>
<path d="M34.3916 32.0703H34.4236C34.8121 32.0703 35.1847 31.916 35.4594 31.6413C35.7341 31.3666 35.8884 30.994 35.8884 30.6055C35.8884 30.217 35.7341 29.8444 35.4594 29.5697C35.1847 29.295 34.8121 29.1406 34.4236 29.1406H34.3926C34.0041 29.1406 33.6315 29.295 33.3568 29.5697C33.0821 29.8444 32.9277 30.217 32.9277 30.6055C32.9277 30.994 33.0821 31.3666 33.3568 31.6413C33.6315 31.916 34.0041 32.0703 34.3926 32.0703H34.3916Z" fill="white"/>
<path d="M54.8616 38.667H53.4141C53.0256 38.667 52.653 38.8213 52.3783 39.096C52.1035 39.3707 51.9492 39.7433 51.9492 40.1318C51.9492 40.5203 52.1035 40.8929 52.3783 41.1676C52.653 41.4423 53.0256 41.5967 53.4141 41.5967H54.8616C55.2501 41.5967 55.6227 41.4423 55.8974 41.1676C56.1721 40.8929 56.3264 40.5203 56.3264 40.1318C56.3264 39.7433 56.1721 39.3707 55.8974 39.096C55.6227 38.8213 55.2501 38.667 54.8616 38.667Z" fill="white"/>
<path d="M48.0884 38.667H34.4238C34.0353 38.667 33.6627 38.8213 33.388 39.096C33.1133 39.3707 32.959 39.7433 32.959 40.1318C32.959 40.5203 33.1133 40.8929 33.388 41.1676C33.6627 41.4423 34.0353 41.5967 34.4238 41.5967H48.0884C48.4769 41.5967 48.8495 41.4423 49.1242 41.1676C49.3989 40.8929 49.5532 40.5203 49.5532 40.1318C49.5532 39.7433 49.3989 39.3707 49.1242 39.096C48.8495 38.8213 48.4769 38.667 48.0884 38.667Z" fill="white"/>
<path d="M87.6973 13.0195H89.9434C90.3319 13.0195 90.7045 12.8652 90.9792 12.5905C91.2539 12.3158 91.4082 11.9432 91.4082 11.5547C91.4082 11.1662 91.2539 10.7936 90.9792 10.5189C90.7045 10.2442 90.3319 10.0898 89.9434 10.0898H87.6973C87.3088 10.0898 86.9362 10.2442 86.6615 10.5189C86.3868 10.7936 86.2324 11.1662 86.2324 11.5547C86.2324 11.9432 86.3868 12.3158 86.6615 12.5905C86.9362 12.8652 87.3088 13.0195 87.6973 13.0195Z" fill="white"/>
<path d="M69.5039 13.0195H82.2749C82.6634 13.0195 83.036 12.8652 83.3107 12.5905C83.5854 12.3158 83.7397 11.9432 83.7397 11.5547C83.7397 11.1662 83.5854 10.7936 83.3107 10.5189C83.036 10.2442 82.6634 10.0898 82.2749 10.0898H69.5039C69.1154 10.0898 68.7428 10.2442 68.4681 10.5189C68.1934 10.7936 68.0391 11.1662 68.0391 11.5547C68.0391 11.9432 68.1934 12.3158 68.4681 12.5905C68.7428 12.8652 69.1154 13.0195 69.5039 13.0195Z" fill="white"/>
<path d="M89.9434 19.6152H77.9805C77.592 19.6152 77.2194 19.7696 76.9447 20.0443C76.67 20.319 76.5156 20.6916 76.5156 21.0801C76.5156 21.4686 76.67 21.8412 76.9447 22.1159C77.2194 22.3906 77.592 22.5449 77.9805 22.5449H89.9434C90.3319 22.5449 90.7044 22.3906 90.9792 22.1159C91.2539 21.8412 91.4082 21.4686 91.4082 21.0801C91.4082 20.6916 91.2539 20.319 90.9792 20.0443C90.7044 19.7696 90.3319 19.6152 89.9434 19.6152Z" fill="white"/>
<path d="M69.5039 22.5449H72.646C73.0345 22.5449 73.4071 22.3906 73.6818 22.1159C73.9565 21.8412 74.1108 21.4686 74.1108 21.0801C74.1108 20.6916 73.9565 20.319 73.6818 20.0443C73.4071 19.7696 73.0345 19.6152 72.646 19.6152H69.5039C69.1154 19.6152 68.7428 19.7696 68.4681 20.0443C68.1934 20.319 68.0391 20.6916 68.0391 21.0801C68.0391 21.4686 68.1934 21.8412 68.4681 22.1159C68.7428 22.3906 69.1154 22.5449 69.5039 22.5449Z" fill="white"/>
<path d="M89.9431 29.1406H86.0254C85.6369 29.1406 85.2643 29.295 84.9896 29.5697C84.7149 29.8444 84.5605 30.217 84.5605 30.6055C84.5605 30.994 84.7149 31.3666 84.9896 31.6413C85.2643 31.916 85.6369 32.0703 86.0254 32.0703H89.9431C90.3316 32.0703 90.7042 31.916 90.9789 31.6413C91.2536 31.3666 91.408 30.994 91.408 30.6055C91.408 30.217 91.2536 29.8444 90.9789 29.5697C90.7042 29.295 90.3316 29.1406 89.9431 29.1406Z" fill="white"/>
<path d="M69.5039 32.0703H80.7791C81.1676 32.0703 81.5401 31.916 81.8149 31.6413C82.0896 31.3666 82.2439 30.994 82.2439 30.6055C82.2439 30.217 82.0896 29.8444 81.8149 29.5697C81.5401 29.295 81.1676 29.1406 80.7791 29.1406H69.5039C69.1154 29.1406 68.7428 29.295 68.4681 29.5697C68.1934 29.8444 68.0391 30.217 68.0391 30.6055C68.0391 30.994 68.1934 31.3666 68.4681 31.6413C68.7428 31.916 69.1154 32.0703 69.5039 32.0703Z" fill="white"/>
<path d="M89.9434 38.667H76.8721C76.4836 38.667 76.111 38.8213 75.8363 39.096C75.5616 39.3707 75.4072 39.7433 75.4072 40.1318C75.4072 40.5203 75.5616 40.8929 75.8363 41.1676C76.111 41.4423 76.4836 41.5967 76.8721 41.5967H89.9434C90.3319 41.5967 90.7045 41.4423 90.9792 41.1676C91.2539 40.8929 91.4082 40.5203 91.4082 40.1318C91.4082 39.7433 91.2539 39.3707 90.9792 39.096C90.7045 38.8213 90.3319 38.667 89.9434 38.667Z" fill="white"/>
<path d="M69.5039 41.5967H71.6394C72.0279 41.5967 72.4005 41.4423 72.6752 41.1676C72.9499 40.8929 73.1042 40.5203 73.1042 40.1318C73.1042 39.7433 72.9499 39.3707 72.6752 39.096C72.4005 38.8213 72.0279 38.667 71.6394 38.667H69.5039C69.1154 38.667 68.7428 38.8213 68.4681 39.096C68.1934 39.3707 68.0391 39.7433 68.0391 40.1318C68.0391 40.5203 68.1934 40.8929 68.4681 41.1676C68.7428 41.4423 69.1154 41.5967 69.5039 41.5967Z" fill="white"/>
<path d="M62.4917 54.5273C59.0473 54.5312 55.7451 55.9012 53.3096 58.3367C50.874 60.7722 49.5039 64.0744 49.5 67.5188V73.3989C49.5039 76.8433 50.874 80.1455 53.3095 82.5811C55.7451 85.0166 59.0473 86.3867 62.4917 86.3906H62.5544C65.9989 86.3867 69.3011 85.0166 71.7366 82.5811C74.1722 80.1455 75.5422 76.8433 75.5462 73.3989V67.5188C75.5422 64.0744 74.1721 60.7723 71.7365 58.3368C69.301 55.9013 65.9988 54.5313 62.5544 54.5273H62.4917ZM72.6165 67.5188V73.3989C72.6134 76.0666 71.5524 78.6241 69.666 80.5105C67.7797 82.3968 65.2221 83.4579 62.5544 83.4609H62.4917C59.824 83.4579 57.2665 82.3968 55.3801 80.5105C53.4938 78.6241 52.4327 76.0666 52.4297 73.3989V67.5188C52.4327 64.8511 53.4938 62.2936 55.3802 60.4073C57.2665 58.521 59.824 57.46 62.4917 57.457H62.5544C65.2221 57.46 67.7797 58.521 69.666 60.4073C71.5523 62.2936 72.6134 64.8511 72.6165 67.5188Z" fill="white"/>
<path d="M96.3032 61.9229C93.2399 61.9263 90.303 63.1448 88.1369 65.3109C85.9709 67.4771 84.7524 70.414 84.749 73.4773V78.6243C84.7525 81.6876 85.9709 84.6244 88.137 86.7905C90.3031 88.9566 93.2399 90.175 96.3032 90.1785H96.3582C99.4214 90.175 102.358 88.9566 104.524 86.7905C106.69 84.6244 107.909 81.6876 107.912 78.6243V73.4773C107.909 70.414 106.69 67.4771 104.524 65.311C102.358 63.1449 99.4215 61.9264 96.3582 61.9229H96.3032ZM104.983 73.4773V78.6243C104.98 80.9109 104.071 83.103 102.454 84.7199C100.837 86.3367 98.6447 87.2462 96.3582 87.2488H96.3032C94.0167 87.2462 91.8245 86.3367 90.2076 84.7199C88.5908 83.103 87.6813 80.9109 87.6787 78.6243V73.4773C87.6813 71.1907 88.5908 68.9985 90.2076 67.3816C91.8245 65.7647 94.0166 64.8552 96.3032 64.8525H96.3582C98.6447 64.8552 100.837 65.7647 102.454 67.3816C104.071 68.9985 104.98 71.1907 104.983 73.4773Z" fill="white"/>
<path d="M104.517 91.0692C103.75 91.0224 103.355 91.5024 102.974 91.9662C102.172 92.9494 101.155 93.736 100.001 94.2661C98.8478 94.7961 97.5885 95.0555 96.3196 95.0244C95.0506 94.9933 93.8055 94.6725 92.6795 94.0867C91.5535 93.5008 90.5762 92.6653 89.8225 91.644C89.6828 91.4543 89.4994 91.3012 89.2878 91.1976C89.0762 91.0941 88.8427 91.0432 88.6072 91.0492C86.2953 91.1006 84.0414 91.7824 82.0886 93.0209C80.8305 91.5016 79.274 90.2566 77.5154 89.3629C75.7569 88.4691 73.8337 87.9457 71.8647 87.8249C71.0925 87.7775 70.7134 88.2387 70.2754 88.7733C69.3381 89.9212 68.1507 90.8397 66.8041 91.4585C65.4576 92.0773 63.9873 92.3802 62.5058 92.3439C61.0243 92.3076 59.5707 91.9331 58.256 91.2491C56.9413 90.565 55.8004 89.5895 54.9204 88.3971C54.7814 88.2068 54.598 88.0531 54.3863 87.9495C54.1745 87.8459 53.9407 87.7954 53.7051 87.8024C49.9335 87.8904 46.3474 89.4567 43.7197 92.1637C43.4448 92.4455 43.186 92.7387 42.937 93.0385C41.1101 91.8778 39.0184 91.2002 36.8579 91.0692C36.0881 91.0224 35.6956 91.5024 35.3157 91.9662C34.5128 92.9494 33.4958 93.736 32.3424 94.2661C31.189 94.7961 29.9297 95.0555 28.6607 95.0244C27.3918 94.9933 26.1467 94.6725 25.0206 94.0867C23.8946 93.5008 22.9173 92.6653 22.1636 91.644C22.0241 91.454 21.8407 91.3008 21.629 91.1972C21.4174 91.0936 21.1838 91.0428 20.9482 91.0492C17.596 91.1364 14.4105 92.5297 12.0708 94.932C9.73118 97.3343 8.4225 100.555 8.42383 103.909V115.308C8.42383 115.696 8.57816 116.069 8.85287 116.343C9.12758 116.618 9.50017 116.772 9.88867 116.772H39.6011V121.094C39.6011 121.482 39.7554 121.855 40.0301 122.129C40.3048 122.404 40.6774 122.558 41.0659 122.558H83.9805C84.369 122.558 84.7416 122.404 85.0163 122.129C85.291 121.855 85.4453 121.482 85.4453 121.094V116.772H115.113C115.501 116.772 115.874 116.618 116.148 116.343C116.423 116.069 116.577 115.696 116.577 115.308V103.909C116.576 100.637 115.328 97.4876 113.088 95.1026C110.847 92.7175 107.783 91.2753 104.517 91.0692ZM11.3528 113.843V103.909C11.3665 101.447 12.2881 99.0764 13.9412 97.2519C15.5943 95.4273 17.8626 94.2769 20.3113 94.0211C21.3654 95.252 22.6727 96.2407 24.144 96.9199C25.6153 97.599 27.2159 97.9525 28.8364 97.9563C30.4569 97.96 32.0591 97.6139 33.5335 96.9416C35.0079 96.2693 36.3199 95.2866 37.3796 94.0607C38.7715 94.2459 40.1077 94.7265 41.2986 95.4704C40.1804 97.5675 39.5973 99.9082 39.6011 102.285V113.843H11.3528ZM82.5156 119.629H42.5308V102.285C42.5296 99.3971 43.6101 96.6131 45.5595 94.4819C47.5089 92.3508 50.1858 91.027 53.0627 90.7714C54.2475 92.179 55.725 93.3113 57.3922 94.0895C59.0594 94.8676 60.8762 95.2728 62.716 95.2768C64.5559 95.2808 66.3745 94.8836 68.045 94.1127C69.7156 93.3419 71.198 92.2161 72.3889 90.8136C75.1845 91.1643 77.756 92.5233 79.6206 94.6356C81.4851 96.7478 82.5146 99.4681 82.5156 102.286V119.629ZM113.648 113.843H85.4453V102.285C85.4467 99.9018 84.8572 97.5552 83.7297 95.4552C85.0134 94.6549 86.4655 94.1638 87.9714 94.0207C89.0254 95.2517 90.3328 96.2406 91.8041 96.9199C93.2755 97.5992 94.8761 97.9529 96.4967 97.9567C98.1173 97.9606 99.7196 97.6145 101.194 96.9422C102.669 96.2699 103.981 95.2872 105.041 94.0612C107.424 94.3839 109.609 95.5596 111.192 97.3703C112.774 99.181 113.647 101.504 113.648 103.909V113.843Z" fill="white"/>
<path d="M28.6421 90.1785H28.697C31.7603 90.175 34.6971 88.9566 36.8632 86.7905C39.0293 84.6244 40.2477 81.6876 40.2512 78.6243V73.4773C40.2478 70.414 39.0294 67.4771 36.8633 65.3109C34.6972 63.1448 31.7604 61.9263 28.697 61.9229H28.6421C25.5788 61.9264 22.6419 63.1449 20.4759 65.311C18.3098 67.4771 17.0914 70.414 17.0879 73.4773V78.6243C17.0914 81.6876 18.3098 84.6244 20.4759 86.7905C22.642 88.9566 25.5788 90.175 28.6421 90.1785ZM20.0176 73.4773C20.0202 71.1907 20.9296 68.9985 22.5465 67.3816C24.1633 65.7647 26.3555 64.8552 28.6421 64.8525H28.697C30.9836 64.8552 33.1758 65.7647 34.7926 67.3816C36.4095 68.9985 37.3189 71.1907 37.3215 73.4773V78.6243C37.3189 80.9109 36.4095 83.103 34.7926 84.7199C33.1758 86.3367 30.9836 87.2462 28.697 87.2488H28.6421C26.3555 87.2462 24.1633 86.3367 22.5465 84.7199C20.9296 83.103 20.0202 80.9109 20.0176 78.6243V73.4773Z" fill="white"/>
</svg>
