<svg width="127" height="127" viewBox="0 0 127 127" fill="none" xmlns="http://www.w3.org/2000/svg">
<path d="M115.094 119.062H109.141C107.036 119.06 105.019 118.223 103.531 116.735C102.043 115.247 101.205 113.229 101.203 111.125V105.172C101.203 104.646 100.994 104.141 100.622 103.769C100.25 103.397 99.745 103.188 99.2188 103.188H42.3032C46.5197 100.223 49.5513 95.863 50.8614 90.8782C52.1714 85.8934 51.6753 80.6058 49.4609 75.9517C47.2465 71.2976 43.4566 67.5772 38.7623 65.4492C34.0681 63.3212 28.7722 62.923 23.8125 64.325V23.8125H19.8438V65.888C16.4912 67.5976 13.6379 70.1454 11.561 73.2837C9.4841 76.422 8.25428 80.0442 7.99102 83.7983C7.72777 87.5523 8.44002 91.3107 10.0586 94.7082C11.6771 98.1056 14.147 101.027 17.2281 103.188H9.92188C9.39559 103.188 8.89085 103.397 8.51871 103.769C8.14657 104.141 7.9375 104.646 7.9375 105.172V111.125C7.94105 114.282 9.19659 117.308 11.4287 119.54C13.6608 121.772 16.6871 123.028 19.8438 123.031H117.078C117.604 123.031 118.109 122.822 118.481 122.45C118.853 122.078 119.062 121.573 119.062 121.047V101.203H115.094V119.062ZM11.9062 85.3281C11.9062 81.7959 12.9537 78.3429 14.9161 75.406C16.8785 72.469 19.6678 70.18 22.9311 68.8282C26.1945 67.4765 29.7854 67.1228 33.2498 67.8119C36.7142 68.501 39.8964 70.202 42.3941 72.6996C44.8918 75.1973 46.5927 78.3796 47.2818 81.8439C47.9709 85.3083 47.6173 88.8992 46.2655 92.1626C44.9138 95.426 42.6247 98.2152 39.6878 100.178C36.7508 102.14 33.2979 103.188 29.7656 103.188C25.0307 103.182 20.4911 101.299 17.143 97.9507C13.7949 94.6026 11.9116 90.0631 11.9062 85.3281ZM19.8438 119.062C17.7393 119.06 15.7218 118.223 14.2337 116.735C12.7456 115.247 11.9086 113.229 11.9062 111.125V107.156H97.2344V111.125C97.2319 114.055 98.3145 116.883 100.273 119.062H19.8438Z" fill="white"/>
<path d="M117.078 3.96875H21.8281C21.3018 3.96875 20.7971 4.17782 20.425 4.54996C20.0528 4.9221 19.8438 5.42684 19.8438 5.95312V19.8438H23.8125V7.9375H115.094V97.2344H119.062V5.95312C119.062 5.42684 118.853 4.9221 118.481 4.54996C118.109 4.17782 117.604 3.96875 117.078 3.96875Z" fill="white"/>
<path d="M31.75 71.4375H27.7812V75.4062C26.2024 75.4062 24.6882 76.0335 23.5718 77.1499C22.4553 78.2663 21.8281 79.7805 21.8281 81.3594C21.8281 82.9382 22.4553 84.4524 23.5718 85.5689C24.6882 86.6853 26.2024 87.3125 27.7812 87.3125H31.75C32.2763 87.3125 32.781 87.5216 33.1532 87.8937C33.5253 88.2659 33.7344 88.7706 33.7344 89.2969C33.7344 89.8232 33.5253 90.3279 33.1532 90.7C32.781 91.0722 32.2763 91.2812 31.75 91.2812H21.8281V95.25H27.7812V99.2188H31.75V95.25C33.3289 95.25 34.8431 94.6228 35.9595 93.5064C37.0759 92.3899 37.7031 90.8757 37.7031 89.2969C37.7031 87.718 37.0759 86.2038 35.9595 85.0874C34.8431 83.971 33.3289 83.3438 31.75 83.3438H27.7812C27.255 83.3438 26.7502 83.1347 26.3781 82.7625C26.0059 82.3904 25.7969 81.8857 25.7969 81.3594C25.7969 80.8331 26.0059 80.3284 26.3781 79.9562C26.7502 79.5841 27.255 79.375 27.7812 79.375H37.7031V75.4062H31.75V71.4375Z" fill="white"/>
<path d="M70.8061 20.94L50.9623 13.0025C50.4893 12.813 49.9614 12.813 49.4884 13.0025L29.6447 20.94C29.2765 21.0873 28.9609 21.3415 28.7386 21.6699C28.5163 21.9983 28.3975 22.3858 28.3975 22.7823C28.3975 23.1789 28.5163 23.5664 28.7386 23.8948C28.9609 24.2231 29.2765 24.4774 29.6447 24.6247L33.735 26.2618V37.7035C33.735 38.2298 33.944 38.7345 34.3162 39.1066C34.6883 39.4788 35.193 39.6879 35.7193 39.6879H63.5006C64.0269 39.6879 64.5316 39.4788 64.9037 39.1066C65.2759 38.7345 65.485 38.2298 65.485 37.7035V26.7532L67.4693 25.9595V31.7504H71.4381V24.2189C71.6787 23.9896 71.8579 23.7035 71.9591 23.3868C72.0604 23.0702 72.0805 22.7332 72.0176 22.4068C71.9546 22.0804 71.8107 21.7751 71.5991 21.5188C71.3874 21.2625 71.1147 21.0634 70.8061 20.94ZM50.2254 16.9821L64.7259 22.7825L50.2254 28.5826L35.7245 22.7825L50.2254 16.9821ZM61.5162 35.7191H37.7037V27.8486L49.4884 32.5615C49.9614 32.751 50.4893 32.751 50.9623 32.5615L61.5162 28.3407V35.7191Z" fill="white"/>
<path d="M75.4062 15.875H111.125V19.8438H75.4062V15.875Z" fill="white"/>
<path d="M75.4062 25.7969H111.125V29.7656H75.4062V25.7969Z" fill="white"/>
<path d="M75.4062 35.7188H111.125V39.6875H75.4062V35.7188Z" fill="white"/>
<path d="M59.5312 47.625H111.125V51.5938H59.5312V47.625Z" fill="white"/>
<path d="M27.7812 47.625H55.5625V51.5938H27.7812V47.625Z" fill="white"/>
<path d="M43.6562 57.5469H85.3281V61.5156H43.6562V57.5469Z" fill="white"/>
<path d="M89.2969 57.5469H111.125V61.5156H89.2969V57.5469Z" fill="white"/>
<path d="M53.5781 67.4688H69.4531V71.4375H53.5781V67.4688Z" fill="white"/>
<path d="M73.4219 67.4688H111.125V71.4375H73.4219V67.4688Z" fill="white"/>
<path d="M57.5469 97.2344H109.141C109.667 97.2344 110.172 97.0253 110.544 96.6532C110.916 96.281 111.125 95.7763 111.125 95.25V79.375C111.125 78.8487 110.916 78.344 110.544 77.9718C110.172 77.5997 109.667 77.3906 109.141 77.3906H57.5469C57.0206 77.3906 56.5159 77.5997 56.1437 77.9718C55.7716 78.344 55.5625 78.8487 55.5625 79.375V95.25C55.5625 95.7763 55.7716 96.281 56.1437 96.6532C56.5159 97.0253 57.0206 97.2344 57.5469 97.2344ZM59.5312 81.3594H107.156V93.2656H59.5312V81.3594Z" fill="white"/>
</svg>
