<svg width="144" height="144" viewBox="0 0 144 144" fill="none" xmlns="http://www.w3.org/2000/svg">
<g clip-path="url(#clip0)">
<path d="M138.452 10.5156H5.20305C2.50762 10.5156 0.314453 12.7088 0.314453 15.4042V32.6107C0.314453 35.3195 4.50468 35.3195 4.50468 32.6107V15.4042C4.50468 15.0193 4.81783 14.7059 5.20305 14.7059H138.452C138.838 14.7059 139.151 15.0193 139.151 15.4042V117.573C139.151 117.958 138.838 118.271 138.452 118.271H111.604V113.912H132.676C133.833 113.912 134.771 112.974 134.771 111.817V89.8769C134.771 87.168 130.581 87.168 130.581 89.8769V109.721H111.604V100.426C111.672 100.431 111.74 100.437 111.805 100.443C113.544 100.596 115.707 100.786 117.206 99.2848C118.703 97.7849 118.514 95.6194 118.362 93.8794C118.198 92.0119 118.374 91.5007 119.809 90.3076C123.505 87.2348 123.574 83.9446 119.809 80.8154C118.374 79.6214 118.198 79.1108 118.362 77.243C118.772 72.5564 116.583 70.2596 111.805 70.6795C109.94 70.8432 109.434 70.6661 108.245 69.2305C105.177 65.5263 101.885 65.4579 98.7599 69.2305C97.571 70.6658 97.0654 70.8437 95.2008 70.6795C90.5108 70.2674 88.2254 72.4687 88.6439 77.243C88.807 79.111 88.6313 79.6214 87.196 80.8154C83.5005 83.8879 83.4321 87.1786 87.196 90.3076C88.6313 91.5015 88.807 92.0122 88.6439 93.8799C88.2039 98.8995 90.6013 100.84 95.4013 100.426V109.722H13.0748V23.2553H130.581V78.7029C130.581 81.4118 134.771 81.4118 134.771 78.7029V21.1602C134.771 20.0031 133.833 19.0651 132.676 19.0651H10.9797C9.82236 19.0651 8.88459 20.0031 8.88459 21.1602V111.817C8.88459 112.974 9.82236 113.912 10.9797 113.912H95.4013V118.271H5.20305C4.81783 118.271 4.50468 117.958 4.50468 117.573V43.2257C4.50468 40.5168 0.314453 40.5168 0.314453 43.2257V117.573C0.314453 120.268 2.50762 122.461 5.20305 122.461H95.4013V131.945C95.6997 133.667 96.6928 134.301 98.38 133.845L103.502 131.462L108.625 133.845C109.892 134.434 111.604 133.503 111.604 131.945V122.461H138.452C141.148 122.461 143.341 120.268 143.341 117.573V15.4042C143.341 12.7085 141.148 10.5156 138.452 10.5156ZM94.8334 96.2686C92.7361 96.4533 92.6344 96.341 92.8176 94.2447C93.0992 91.0275 92.3592 89.1503 89.8744 87.0848C88.1743 85.671 88.1746 85.4506 89.8744 84.0368C92.3592 81.9713 93.0995 80.0941 92.8176 76.8771C92.6344 74.7806 92.7361 74.6694 94.8334 74.8529C98.0509 75.1365 99.9257 74.3909 101.986 71.9027C103.395 70.2032 103.61 70.2032 105.018 71.9027C107.079 74.3909 108.954 75.1354 112.171 74.8529C114.269 74.6683 114.37 74.7806 114.187 76.8768C113.905 80.0941 114.645 81.971 117.13 84.0365C118.83 85.4503 118.831 85.6713 117.13 87.0848C114.645 89.1506 113.905 91.0269 114.187 94.2442C114.371 96.3404 114.269 96.453 112.171 96.2686C110.855 96.153 109.363 96.0217 108.049 96.5675C106.777 97.0958 105.882 98.1749 105.018 99.2188C104.611 99.7105 103.867 100.608 103.502 100.769C103.137 100.608 102.393 99.7105 101.986 99.2188C101.122 98.1752 100.228 97.0958 98.9555 96.5675C97.5995 96.1541 96.2254 96.0544 94.8334 96.2686ZM104.386 127.252C103.826 126.992 103.179 126.992 102.619 127.252L99.5916 128.66V102.863C100.586 103.956 101.812 104.971 103.502 104.971C105.192 104.971 106.419 103.956 107.413 102.863V128.66L104.386 127.252Z" fill="#0054A6"/>
<path d="M27.485 40.7937H99.7097C102.419 40.7937 102.419 36.6035 99.7097 36.6035H27.485C24.7758 36.6035 24.7758 40.7937 27.485 40.7937Z" fill="#0054A6"/>
<path d="M118.266 51.4408C118.266 50.2838 117.328 49.3457 116.171 49.3457H27.4848C24.7759 49.3457 24.7759 53.5359 27.4848 53.5359H116.171C117.328 53.5359 118.266 52.5979 118.266 51.4408Z" fill="#0054A6"/>
<path d="M79.9671 64.183C79.9671 63.0259 79.0293 62.0879 77.872 62.0879H27.4848C24.7759 62.0879 24.7759 66.2781 27.4848 66.2781H77.872C79.029 66.2781 79.9671 65.3401 79.9671 64.183Z" fill="#0054A6"/>
<path d="M52.4547 93.3877C51.3124 93.3897 50.1699 93.3911 49.0276 93.3919C46.83 93.3936 45.6201 92.8078 45.1712 90.4775C44.7614 88.3502 41.6931 88.6212 41.1307 90.4775C40.8818 91.2996 39.6248 93.6531 38.5266 93.4606C37.9448 93.3587 37.6906 92.4611 37.4755 91.9963C37.0567 91.0915 36.7517 90.1325 36.4905 89.1715C35.3876 85.1115 35.1675 80.8723 34.4775 76.7357C34.0775 74.337 30.4211 75.0152 30.3621 77.2928C30.1744 84.5477 28.9883 91.7033 26.4054 98.5034C25.447 101.027 29.4961 102.118 30.4459 99.6175C31.4418 96.9955 32.2324 94.3107 32.8458 91.5859C33.1749 92.5787 33.5674 93.5525 34.0465 94.4998C35.27 96.9179 37.7654 98.3484 40.4354 97.2729C41.3883 96.8891 42.2576 96.2181 42.9976 95.4016C44.9799 97.6875 47.929 97.5838 50.6803 97.5805C54.8277 97.5752 58.9752 97.5654 63.123 97.5539C65.819 97.5464 65.824 93.3562 63.123 93.3637C59.5669 93.3738 56.0108 93.3819 52.4547 93.3877Z" fill="#0054A6"/>
<path d="M103.503 93.7454C108.015 93.7454 111.686 90.0744 111.686 85.5621C111.686 81.0498 108.015 77.3789 103.503 77.3789C98.9905 77.3789 95.3193 81.0501 95.3193 85.5621C95.3193 90.0742 98.9903 93.7454 103.503 93.7454ZM103.503 81.5691C105.704 81.5691 107.496 83.3606 107.496 85.5621C107.496 87.7637 105.704 89.5551 103.503 89.5551C101.301 89.5551 99.5096 87.764 99.5096 85.5621C99.5096 83.3603 101.301 81.5691 103.503 81.5691Z" fill="#0054A6"/>
</g>
<defs>
<clipPath id="clip0">
<rect width="143.026" height="143.026" fill="#0054A6" transform="translate(0.314453 0.755859)"/>
</clipPath>
</defs>
</svg>
