<svg width="139" height="139" viewBox="0 0 139 139" fill="none" xmlns="http://www.w3.org/2000/svg">
<g clip-path="url(#clip0)">
<path d="M112.558 71.3232H118.564C119.504 75.9739 123.622 79.4865 128.546 79.4865C134.161 79.4865 138.729 74.9182 138.729 69.3029C138.729 63.6876 134.161 59.1193 128.545 59.1193C123.622 59.1193 119.504 62.6319 118.564 67.2826H112.557C112.077 56.9918 107.95 47.6382 101.44 40.4893L112.259 29.6705C114.389 31.2213 117.008 32.1396 119.838 32.1396C126.954 32.1396 132.742 26.3505 132.742 19.2348C132.742 12.1191 126.954 6.33027 119.838 6.33027C112.722 6.33027 106.933 12.1193 106.933 19.2348C106.933 22.0651 107.851 24.6836 109.402 26.8133L98.5833 37.6321C91.4345 31.1224 82.0808 26.9954 71.79 26.5154V20.5089C76.4407 19.5691 79.9533 15.4509 79.9533 10.5273C79.9533 4.91203 75.385 0.34375 69.7697 0.34375C64.1544 0.34375 59.5861 4.91203 59.5861 10.5273C59.5861 15.4509 63.0987 19.5691 67.7494 20.5089V26.5151C57.4586 26.9954 48.1049 31.1222 40.9561 37.6318L30.1379 26.8138C31.6889 24.6839 32.6072 22.0651 32.6072 19.2348C32.6072 14.9378 30.4789 10.9363 26.914 8.53077C25.9885 7.9069 24.7329 8.15041 24.1093 9.07544C23.4852 10.0005 23.729 11.256 24.6537 11.8801C27.1039 13.5333 28.5663 16.2827 28.5663 19.2348C28.5663 24.1228 24.5893 28.0998 19.7013 28.0998C14.8133 28.0998 10.8366 24.1228 10.8366 19.2348C10.8366 15.2874 13.4858 11.7789 17.2791 10.7027C18.3526 10.3981 18.9759 9.28097 18.6712 8.20752C18.3666 7.13407 17.249 6.51155 16.1763 6.81541C10.6531 8.38261 6.79599 13.4896 6.79599 19.2348C6.79599 26.3511 12.5853 32.1404 19.7016 32.1404C22.5321 32.1404 25.151 31.2221 27.2806 29.6711L38.0989 40.489C31.589 47.6379 27.4622 56.9916 26.9819 67.2824H20.9757C20.0359 62.6317 15.9177 59.119 10.9941 59.119C5.37882 59.1193 0.810547 63.6876 0.810547 69.3029C0.810547 74.9182 5.37882 79.4865 10.9941 79.4865C15.9177 79.4865 20.0359 75.9739 20.9757 71.3232H26.9822C27.4625 81.614 31.5892 90.9677 38.0991 98.1165L27.2801 108.935C25.1504 107.385 22.5319 106.466 19.7016 106.466C12.5859 106.466 6.79706 112.255 6.79706 119.371C6.79706 126.487 12.5859 132.276 19.7016 132.276C26.8173 132.276 32.6061 126.486 32.6061 119.371C32.6061 116.541 31.6881 113.922 30.1371 111.793L40.9561 100.974C48.1049 107.483 57.4586 111.61 67.7494 112.09V118.097C63.0987 119.036 59.5861 123.155 59.5861 128.078C59.5861 133.694 64.1544 138.262 69.7697 138.262C75.385 138.262 79.9533 133.694 79.9533 128.078C79.9533 123.155 76.4407 119.037 71.79 118.097V112.091C82.0808 111.61 91.4345 107.484 98.5833 100.974L109.402 111.792C107.851 113.922 106.932 116.541 106.932 119.371C106.932 126.487 112.722 132.277 119.838 132.277C126.954 132.277 132.743 126.487 132.743 119.371C132.743 117.974 132.521 116.598 132.082 115.281C131.729 114.223 130.584 113.651 129.527 114.004C128.468 114.356 127.896 115.5 128.249 116.559C128.55 117.463 128.703 118.409 128.703 119.371C128.703 124.259 124.726 128.236 119.838 128.236C114.95 128.236 110.973 124.259 110.973 119.371C110.973 114.482 114.95 110.506 119.838 110.506C120.957 110.506 122.048 110.712 123.081 111.118C124.118 111.526 125.292 111.015 125.7 109.976C126.108 108.938 125.597 107.765 124.559 107.357C123.053 106.765 121.465 106.465 119.838 106.465C117.008 106.465 114.389 107.383 112.259 108.935L101.441 98.1165C107.95 90.9677 112.077 81.614 112.558 71.3232ZM128.545 63.1599C131.933 63.1599 134.688 65.9156 134.688 69.3029C134.688 72.6903 131.933 75.4459 128.545 75.4459C125.158 75.4459 122.402 72.6903 122.402 69.3029C122.402 65.9156 125.158 63.1599 128.545 63.1599ZM119.838 10.3708C124.726 10.3708 128.702 14.3473 128.702 19.2348C128.702 24.1225 124.725 28.099 119.838 28.099C114.95 28.099 110.974 24.1225 110.974 19.2348C110.974 14.347 114.95 10.3708 119.838 10.3708ZM63.6267 10.5273C63.6267 7.14 66.3826 4.38433 69.7697 4.38433C73.1568 4.38433 75.9127 7.14 75.9127 10.5273C75.9127 13.9147 73.1568 16.6704 69.7697 16.6704C66.3826 16.6704 63.6267 13.9144 63.6267 10.5273ZM10.9941 75.4459C7.6068 75.4459 4.85112 72.6903 4.85112 69.3029C4.85112 65.9156 7.6068 63.1599 10.9941 63.1599C14.3815 63.1599 17.1369 65.9156 17.1369 69.3029C17.1369 72.6903 14.3812 75.4459 10.9941 75.4459ZM69.7697 30.5069C91.1619 30.5069 108.566 47.9108 108.566 69.3029C108.566 90.6951 91.1619 108.099 69.7697 108.099C48.3776 108.099 30.9737 90.6953 30.9737 69.3029C30.9737 47.9105 48.3776 30.5069 69.7697 30.5069ZM19.7016 128.235C14.8138 128.235 10.8376 124.259 10.8376 119.371C10.8376 114.483 14.8141 110.507 19.7016 110.507C24.5891 110.507 28.5655 114.483 28.5655 119.371C28.5655 124.259 24.5891 128.235 19.7016 128.235ZM75.9127 128.078C75.9127 131.466 73.1568 134.222 69.7697 134.222C66.3826 134.222 63.6267 131.466 63.6267 128.078C63.6267 124.691 66.3826 121.935 69.7697 121.935C73.1568 121.935 75.9127 124.691 75.9127 128.078Z" fill="#0054A6"/>
<path d="M46.9133 94.1779H58.3225C58.3287 94.1779 58.3347 94.1787 58.3409 94.1787C58.3471 94.1787 58.353 94.1779 58.3592 94.1779H65.0555C66.1715 94.1779 67.0758 93.2734 67.0758 92.1576C67.0758 91.0419 66.1715 90.1373 65.0555 90.1373H60.3612V86.7163C60.3612 85.6006 59.4569 84.696 58.3409 84.696C57.2249 84.696 56.3206 85.6006 56.3206 86.7163V90.1373H48.9336V80.1868C48.9336 75.2987 52.9093 71.3217 57.7957 71.3217H81.7428C86.6295 71.3217 90.6049 75.2987 90.6049 80.1868V90.1373H83.2179V86.7163C83.2179 85.6006 82.3136 84.696 81.1976 84.696C80.0816 84.696 79.1773 85.6006 79.1773 86.7163V90.1373H74.4835C73.3675 90.1373 72.4632 91.0419 72.4632 92.1576C72.4632 93.2734 73.3675 94.1779 74.4835 94.1779H81.1798C81.186 94.1779 81.1919 94.1787 81.1981 94.1787C81.2043 94.1787 81.2103 94.1779 81.2165 94.1779H92.6257C93.7417 94.1779 94.646 93.2734 94.646 92.1576V80.1868C94.646 73.0705 88.858 67.2812 81.7433 67.2812H80.2435C83.4054 64.4199 85.3955 60.2861 85.3955 55.696C85.3955 47.0799 78.3859 40.0703 69.7698 40.0703C61.1536 40.0703 54.1441 47.0799 54.1441 55.696C54.1441 60.2861 56.1342 64.4199 59.2961 67.2812H57.7962C50.6815 67.2812 44.8936 73.0705 44.8936 80.1868V92.1576C44.893 93.2734 45.7976 94.1779 46.9133 94.1779ZM58.1844 55.696C58.1844 49.3081 63.3813 44.1109 69.7695 44.1109C76.1577 44.1109 81.3546 49.3079 81.3546 55.696C81.3546 62.0842 76.1577 67.2812 69.7695 67.2812C63.3813 67.2812 58.1844 62.0842 58.1844 55.696Z" fill="#0054A6"/>
</g>
<defs>
<clipPath id="clip0">
<rect width="137.918" height="137.918" fill="white" transform="translate(0.810547 0.34375)"/>
</clipPath>
</defs>
</svg>
