<svg width="128" height="116" viewBox="0 0 128 116" fill="none" xmlns="http://www.w3.org/2000/svg">
<path d="M121.553 8.89019H107.697V2.95204C107.697 1.85893 106.811 0.972656 105.718 0.972656C104.625 0.972656 103.738 1.85893 103.738 2.95204V8.89019H91.8622V2.95204C91.8622 1.85893 90.9759 0.972656 89.8828 0.972656C88.7897 0.972656 87.9034 1.85893 87.9034 2.95204V8.89019H40.3982V2.95204C40.3982 1.85893 39.5119 0.972656 38.4188 0.972656C37.3257 0.972656 36.4394 1.85893 36.4394 2.95204V8.89019H24.5631V2.95204C24.5631 1.85893 23.6769 0.972656 22.5838 0.972656C21.4907 0.972656 20.6044 1.85893 20.6044 2.95204V8.89019H6.7487C3.4743 8.89019 0.810547 11.5539 0.810547 14.8283V109.839C0.810547 113.113 3.4743 115.777 6.7487 115.777H121.553C124.827 115.777 127.491 113.113 127.491 109.839C127.491 107.128 127.491 17.091 127.491 14.8283C127.491 11.5539 124.827 8.89019 121.553 8.89019ZM4.76931 14.8283C4.76931 13.737 5.65731 12.849 6.7487 12.849H20.6044V17.1482C18.3006 17.9652 16.6456 20.1655 16.6456 22.7459C16.6456 26.0203 19.3094 28.684 22.5838 28.684C25.8582 28.684 28.5219 26.0203 28.5219 22.7459C28.5219 20.1655 26.8669 17.9652 24.5631 17.1482V12.849H36.4394V17.1482C34.1357 17.9652 32.4807 20.1655 32.4807 22.7459C32.4807 26.0203 35.1444 28.684 38.4188 28.684C41.6932 28.684 44.357 26.0203 44.357 22.7459C44.357 20.1655 42.702 17.9652 40.3982 17.1482V12.849H87.9034V17.1482C85.5997 17.9652 83.9447 20.1655 83.9447 22.7459C83.9447 26.0203 86.6084 28.684 89.8828 28.684C93.1572 28.684 95.821 26.0203 95.821 22.7459C95.821 20.1655 94.1659 17.9652 91.8622 17.1482V12.849H103.738V17.1482C101.435 17.9652 99.7797 20.1655 99.7797 22.7459C99.7797 26.0203 102.443 28.684 105.718 28.684C108.992 28.684 111.656 26.0203 111.656 22.7459C111.656 20.1655 110.001 17.9652 107.697 17.1482V12.849H121.553C122.644 12.849 123.532 13.737 123.532 14.8283V32.6428H4.76931V14.8283ZM22.5838 20.7665C23.6751 20.7665 24.5631 21.6545 24.5631 22.7459C24.5631 23.8373 23.6751 24.7253 22.5838 24.7253C21.4924 24.7253 20.6044 23.8373 20.6044 22.7459C20.6044 21.6545 21.4924 20.7665 22.5838 20.7665ZM38.4188 20.7665C39.5102 20.7665 40.3982 21.6545 40.3982 22.7459C40.3982 23.8373 39.5102 24.7253 38.4188 24.7253C37.3274 24.7253 36.4394 23.8373 36.4394 22.7459C36.4394 21.6545 37.3274 20.7665 38.4188 20.7665ZM89.8828 20.7665C90.9742 20.7665 91.8622 21.6545 91.8622 22.7459C91.8622 23.8373 90.9742 24.7253 89.8828 24.7253C88.7914 24.7253 87.9034 23.8373 87.9034 22.7459C87.9034 21.6545 88.7914 20.7665 89.8828 20.7665ZM105.718 20.7665C106.809 20.7665 107.697 21.6545 107.697 22.7459C107.697 23.8373 106.809 24.7253 105.718 24.7253C104.626 24.7253 103.738 23.8373 103.738 22.7459C103.738 21.6545 104.626 20.7665 105.718 20.7665ZM123.532 109.839C123.532 110.93 122.644 111.818 121.553 111.818H6.7487C5.65731 111.818 4.76931 110.93 4.76931 109.839V36.6016H123.532V109.839Z" fill="white"/>
<path d="M76.0269 20.7656H52.2743C51.1812 20.7656 50.2949 21.6519 50.2949 22.745C50.2949 23.8381 51.1812 24.7244 52.2743 24.7244H76.0269C77.12 24.7244 78.0063 23.8381 78.0063 22.745C78.0063 21.6519 77.12 20.7656 76.0269 20.7656Z" fill="white"/>
<path d="M64.1506 42.5391C46.6875 42.5391 32.4805 56.7461 32.4805 74.2092C32.4805 91.6723 46.6875 105.879 64.1506 105.879C81.6137 105.879 95.8207 91.6723 95.8207 74.2092C95.8207 56.7461 81.6137 42.5391 64.1506 42.5391ZM91.862 74.2092H89.2739C88.0531 74.2092 86.9709 73.4766 86.5171 72.3434L85.1964 69.0413C84.6397 67.6475 83.4291 66.6348 81.9579 66.3325C80.487 66.0306 78.9744 66.4832 77.913 67.5444L75.5229 69.9345C74.8403 70.6171 73.9018 70.9197 72.9495 70.7653C71.9956 70.6107 71.2004 70.0263 70.7679 69.1623L67.2892 62.2047C66.108 59.8421 63.7334 58.3741 61.0925 58.3741H56.8467C54.1072 58.3741 51.7861 56.3245 51.4477 53.606L50.9766 49.8348C54.897 47.7072 59.3852 46.4978 64.1506 46.4978C79.4307 46.4978 91.862 58.9291 91.862 74.2092ZM37.6402 66.1353L40.0172 67.3244C40.5878 67.6097 41.0591 68.081 41.3444 68.6518L43.7469 73.457C44.0636 74.0907 44.1435 74.8179 43.9718 75.505L43.1159 78.9283C42.5291 81.2756 43.2273 83.7966 44.9382 85.5073L45.922 86.491C46.0872 86.6563 46.0835 86.8401 46.0511 86.9651C46.0187 87.09 45.9329 87.2526 45.7082 87.3167L40.5893 88.7794C37.9601 84.5436 36.4392 79.5511 36.4392 74.2092C36.4392 71.4017 36.8604 68.6909 37.6402 66.1353ZM43.0791 92.1855L46.7959 91.1235C48.3291 90.6853 49.4834 89.5022 49.8835 87.9585C50.2835 86.4148 49.8491 84.8199 48.7213 83.6922L47.7376 82.7084C47.0044 81.9751 46.7051 80.8948 46.9567 79.8888L47.8125 76.4652C48.2133 74.8619 48.027 73.1651 47.288 71.6867L44.8853 66.8813C44.2194 65.5496 43.1194 64.4494 41.7883 63.7835L39.0733 62.4254C40.9686 58.4083 43.8008 54.9176 47.2868 52.2358L47.5191 54.0957C48.1042 58.7918 52.1142 62.3329 56.8467 62.3329H61.0925C62.2242 62.3329 63.2421 62.9621 63.7483 63.9753L67.2273 70.9336C68.2363 72.9496 70.091 74.3126 72.3158 74.6734C74.5394 75.0344 76.7291 74.327 78.322 72.7341L80.7121 70.344C80.8667 70.1893 81.0414 70.1861 81.1607 70.2104C81.2797 70.2348 81.4388 70.3066 81.5202 70.5107L82.8417 73.8146C83.9009 76.459 86.4256 78.168 89.2739 78.168H91.5779C91.3835 79.5214 91.0908 80.8433 90.7075 82.1267H76.5218C74.3526 82.1267 72.2807 83.1627 70.9795 84.8979L68.0104 88.8566C67.4527 89.6001 66.565 90.0443 65.6351 90.0443H59.4966C56.7217 90.0443 54.2228 91.6923 53.1296 94.2425L51.2148 98.7095C48.1062 97.0617 45.347 94.8398 43.0791 92.1855ZM64.1506 101.921C60.8844 101.921 57.749 101.351 54.8366 100.308L56.7682 95.802C57.2366 94.7092 58.3075 94.003 59.4966 94.003H65.6351C67.8043 94.003 69.8762 92.9671 71.1774 91.2319L74.1465 87.2731C74.7042 86.5296 75.5922 86.0855 76.5218 86.0855H89.1846C84.729 95.4396 75.1829 101.921 64.1506 101.921Z" fill="white"/>
</svg>
