<svg width="130" height="130" viewBox="0 0 130 130" fill="none" xmlns="http://www.w3.org/2000/svg">
<path d="M129.949 104.58V93.1408H117.747V85.5148H113.68V79.1598H117.747V67.7207H87.3335V71.5337H113.934V75.3467H35.0405V79.1598H109.866V85.5148H26.8697C25.1175 85.5148 23.6922 84.0895 23.6922 82.3373C23.6922 80.5851 25.1175 79.1598 26.8697 79.1598H31.2275V75.3467H26.8697C23.0153 75.3467 19.8792 78.4826 19.8792 82.3373C19.8792 86.192 23.0153 89.3278 26.8697 89.3278H113.934V93.1408H48.2226V96.9538H126.135V100.767H18.4811C12.5239 100.767 7.67754 105.613 7.67754 111.57C7.67754 117.528 12.5239 122.374 18.4811 122.374H108.287V118.561H18.4813C14.6266 118.561 11.4908 115.425 11.4908 111.57C11.4908 107.716 14.6266 104.58 18.4813 104.58H122.068V110.935H37.5464V114.748H122.068V118.561H112.1V122.374H126.136V126.187H18.4813C10.4216 126.187 3.86477 119.63 3.86477 111.57C3.86477 103.511 10.4216 96.9538 18.4813 96.9538H44.4099V93.1408H26.87C20.9128 93.1408 16.0664 88.2945 16.0664 82.3373C16.0664 76.3801 20.9128 71.5337 26.87 71.5337H83.5205V67.7207H26.87C18.8103 67.7207 12.2534 74.2776 12.2534 82.3373C12.2534 86.644 14.1266 90.5205 17.1 93.198C7.58119 93.9075 0.0517578 101.873 0.0517578 111.57C0.0517578 121.733 8.31914 130 18.4813 130H129.949V118.561H125.881V104.58H129.949Z" fill="white"/>
<path d="M29.9199 110.936H33.7329V114.749H29.9199V110.936Z" fill="white"/>
<path d="M35.1323 56.6663L35.9813 57.2324C36.3123 57.453 44.3252 62.6367 65.0009 62.6367C85.6766 62.6367 93.6896 57.453 94.0205 57.2324L94.8696 56.6663V24.5673L106.309 20.7543V38.754C103.378 39.5862 101.225 42.2846 101.225 45.4781V55.0107H115.206V45.4781C115.206 42.2846 113.052 39.5862 110.122 38.754V19.4832L116.786 17.2618L96.7636 10.5875L95.5577 14.2048L104.728 17.2615L65.0009 30.5041L25.2736 17.2618L65.0009 4.01943L91.9404 12.9993L93.1463 9.38206L65.0009 0L13.2158 17.2618L35.1323 24.5673V56.6663ZM111.393 45.4781V51.1976H105.038V45.4781C105.038 43.7259 106.463 42.3006 108.215 42.3006C109.967 42.3006 111.393 43.7259 111.393 45.4781ZM38.9453 25.8383L65.0009 34.5236L91.0565 25.8383V40.7754H86.3538V44.5884H91.0565V48.4014H82.795V52.2144H91.0565V54.5129C88.5994 55.7095 80.694 58.8237 65.0009 58.8237C49.2959 58.8237 41.3902 55.7046 38.9453 54.5139V25.8383Z" fill="white"/>
<path d="M22.2939 110.936H26.107V114.749H22.2939V110.936Z" fill="white"/>
<path d="M75.1689 48.4023H78.982V52.2154H75.1689V48.4023Z" fill="white"/>
</svg>
