<svg width="140" height="140" viewBox="0 0 140 140" fill="none" xmlns="http://www.w3.org/2000/svg">
<path d="M135.215 9.55273H4.78516C2.14676 9.55273 0 11.6995 0 14.3379V31.1803C0 33.8318 4.10156 33.8318 4.10156 31.1803V14.3379C4.10156 13.9611 4.40809 13.6543 4.78516 13.6543H135.215C135.592 13.6543 135.898 13.9611 135.898 14.3379V114.345C135.898 114.721 135.592 115.028 135.215 115.028H108.934V110.761H129.561C130.694 110.761 131.611 109.843 131.611 108.71V87.2347C131.611 84.5832 127.51 84.5832 127.51 87.2347V106.659H108.934V97.5602C109.001 97.566 109.068 97.5717 109.131 97.5775C110.834 97.727 112.951 97.9132 114.418 96.4435C115.884 94.9754 115.698 92.8557 115.549 91.1525C115.389 89.3246 115.562 88.8242 116.966 87.6563C120.584 84.6485 120.651 81.428 116.966 78.3649C115.562 77.1963 115.39 76.6964 115.549 74.8682C115.951 70.2807 113.808 68.0325 109.131 68.4435C107.306 68.6037 106.811 68.4304 105.647 67.0252C102.644 63.3994 99.4213 63.3324 96.3624 67.0252C95.1986 68.4301 94.7037 68.6043 92.8785 68.4435C88.2878 68.0402 86.0508 70.1949 86.4604 74.8682C86.6201 76.6967 86.4481 77.1963 85.0432 78.3649C81.4259 81.3725 81.3589 84.5936 85.0432 87.6563C86.4481 88.825 86.6201 89.3248 86.4604 91.153C86.0297 96.0664 88.3764 97.9663 93.0748 97.5605V106.66H12.4904V22.0229H127.51V76.2972C127.51 78.9487 131.611 78.9487 131.611 76.2972V19.9721C131.611 18.8395 130.694 17.9213 129.561 17.9213H10.4396C9.30672 17.9213 8.38879 18.8395 8.38879 19.9721V108.71C8.38879 109.843 9.30672 110.761 10.4396 110.761H93.0748V115.028H4.78516C4.40809 115.028 4.10156 114.721 4.10156 114.345V41.5706C4.10156 38.9191 0 38.9191 0 41.5706V114.345C0 116.983 2.14676 119.13 4.78516 119.13H93.0748V128.413C93.3669 130.098 94.3389 130.718 95.9905 130.272L101.005 127.94L106.019 130.272C107.259 130.849 108.934 129.937 108.934 128.413V119.13H135.215C137.853 119.13 140 116.983 140 114.345V14.3379C140 11.6992 137.853 9.55273 135.215 9.55273ZM92.519 93.4912C90.466 93.672 90.3664 93.562 90.5458 91.5101C90.8214 88.361 90.0971 86.5235 87.6649 84.5017C86.0007 83.1178 86.001 82.9021 87.6649 81.5182C90.0971 79.4964 90.8217 77.6589 90.5458 74.51C90.3664 72.4578 90.466 72.349 92.519 72.5287C95.6684 72.8062 97.5034 72.0764 99.5206 69.6409C100.899 67.9773 101.11 67.9773 102.488 69.6409C104.506 72.0764 106.34 72.8051 109.49 72.5287C111.543 72.3479 111.642 72.4579 111.463 74.5097C111.187 77.6589 111.912 79.4961 114.344 81.5179C116.008 82.9018 116.009 83.1181 114.344 84.5017C111.911 86.5238 111.187 88.3604 111.463 91.5096C111.643 93.5615 111.543 93.6717 109.49 93.4912C108.202 93.378 106.741 93.2495 105.454 93.7838C104.209 94.3009 103.334 95.3571 102.488 96.379C102.089 96.8602 101.362 97.7388 101.004 97.896C100.647 97.7388 99.919 96.8602 99.5203 96.379C98.674 95.3574 97.799 94.3009 96.5538 93.7838C95.2265 93.3791 93.8815 93.2815 92.519 93.4912ZM101.869 123.819C101.321 123.564 100.688 123.564 100.14 123.819L97.1764 125.198V99.946C98.1496 101.016 99.3502 102.009 101.005 102.009C102.659 102.009 103.859 101.016 104.833 99.9463V125.198L101.869 123.819Z" fill="white"/>
<path d="M26.5953 39.1895H97.2917C99.9433 39.1895 99.9433 35.0879 97.2917 35.0879H26.5953C23.9435 35.0879 23.9435 39.1895 26.5953 39.1895Z" fill="white"/>
<path d="M115.455 49.6113C115.455 48.4787 114.537 47.5605 113.404 47.5605H26.5951C23.9436 47.5605 23.9436 51.6621 26.5951 51.6621H113.405C114.537 51.6621 115.455 50.7439 115.455 49.6113Z" fill="white"/>
<path d="M77.9669 62.0859C77.9669 60.9534 77.049 60.0352 75.9161 60.0352H26.5951C23.9436 60.0352 23.9436 64.1367 26.5951 64.1367H75.9161C77.0487 64.1367 77.9669 63.2185 77.9669 62.0859Z" fill="white"/>
<path d="M51.0371 90.6715C49.919 90.6734 48.8007 90.6748 47.6826 90.6756C45.5315 90.6772 44.3472 90.1038 43.9078 87.8228C43.5067 85.7406 40.5032 86.0058 39.9528 87.8228C39.7092 88.6275 38.4787 90.9313 37.4038 90.7429C36.8342 90.6431 36.5854 89.7645 36.3749 89.3095C35.965 88.4238 35.6664 87.4851 35.4107 86.5445C34.3312 82.5704 34.1157 78.4209 33.4403 74.3719C33.0488 72.0239 29.4697 72.6878 29.412 74.9171C29.2283 82.0185 28.0673 89.0227 25.5391 95.679C24.6009 98.1489 28.5644 99.217 29.4941 96.7694C30.4689 94.2029 31.2427 91.5749 31.8432 88.9078C32.1653 89.8796 32.5495 90.8328 33.0184 91.76C34.2161 94.1269 36.6587 95.5272 39.2722 94.4745C40.2049 94.0988 41.0558 93.442 41.7802 92.6427C43.7205 94.8802 46.6072 94.7788 49.3002 94.7755C53.36 94.7703 57.4197 94.7607 61.4797 94.7495C64.1186 94.7422 64.1236 90.6406 61.4797 90.648C57.9988 90.6578 54.518 90.6657 51.0371 90.6715Z" fill="white"/>
<path d="M101.004 91.0201C105.421 91.0201 109.015 87.4269 109.015 83.0101C109.015 78.5932 105.421 75 101.004 75C96.5877 75 92.9941 78.5935 92.9941 83.0101C92.9941 87.4266 96.5874 91.0201 101.004 91.0201ZM101.004 79.1016C103.159 79.1016 104.913 80.8551 104.913 83.0101C104.913 85.165 103.159 86.9186 101.004 86.9186C98.849 86.9186 97.0957 85.1653 97.0957 83.0101C97.0957 80.8548 98.849 79.1016 101.004 79.1016Z" fill="white"/>
</svg>
