<svg width="151" height="91" viewBox="0 0 151 91" fill="none" xmlns="http://www.w3.org/2000/svg">
<path d="M31.9531 82.326L33.1909 83.1485C33.6735 83.469 45.3559 91 75.5 91C105.644 91 117.327 83.469 117.809 83.1485L119.047 82.326V35.6919L135.724 30.1522V56.3027C131.452 57.5118 128.312 61.432 128.312 66.0716V79.9207H148.696V66.0716C148.696 61.432 145.556 57.5118 141.284 56.3027V28.3057L151 25.0783L121.808 15.3817L120.05 20.637L133.42 25.0779L75.5 44.3171L17.5796 25.0783L75.5 5.83952L114.776 18.8857L116.535 13.6305L75.5 0L0 25.0783L31.9531 35.6919V82.326ZM143.137 66.0716V74.3811H133.871V66.0716C133.871 63.526 135.949 61.4553 138.504 61.4553C141.059 61.4553 143.137 63.526 143.137 66.0716ZM37.5123 37.5384L75.5 50.1566L113.488 37.5384V59.2394H106.631V64.779H113.488V70.3187H101.443V75.8583H113.488V79.1976C109.905 80.936 98.3797 85.4604 75.5 85.4604C52.6028 85.4604 41.0768 80.9289 37.5123 79.1991V37.5384Z" fill="white"/>
</svg>
