<svg width="129" height="129" viewBox="0 0 129 129" fill="none" xmlns="http://www.w3.org/2000/svg">
<g clip-path="url(#clip0)">
<path d="M126.272 17.8837C126.257 17.8665 124.7 16.0068 124.7 10.75C124.463 8.28935 124.995 5.81558 126.223 3.67006C126.838 3.05489 127.021 2.12978 126.688 1.3263C126.355 0.522831 125.57 -0.000678973 124.7 5.39354e-06H47.3004C44.4484 -0.00285084 41.7125 1.12882 39.6958 3.14545C37.6792 5.16209 36.5475 7.89805 36.5504 10.75V30.1H19.3504C19.3504 27.7252 17.4252 25.8 15.0504 25.8H10.7504C6.00074 25.8 2.15039 29.6504 2.15039 34.4V64.5C2.15039 69.2497 6.00074 73.1 10.7504 73.1H15.0504C17.4252 73.1 19.3504 71.1748 19.3504 68.8H30.1004V90.6956C27.5325 91.6035 25.8117 94.0264 25.8004 96.75V116.1C25.8004 123.224 31.5759 129 38.7004 129C45.8249 129 51.6004 123.224 51.6004 116.1V105.35H122.55C124.925 105.35 126.85 103.425 126.85 101.05V19.35H126.794C126.802 18.8143 126.617 18.2937 126.272 17.8837ZM42.7252 6.19631C43.9396 4.98416 45.5846 4.30234 47.3004 4.30001H121.247C120.646 6.39584 120.36 8.56982 120.4 10.75C120.36 12.9302 120.646 15.1042 121.247 17.2L113.95 17.2V10.75C113.95 9.56259 112.988 8.60001 111.8 8.60001H90.3004C89.113 8.60001 88.1504 9.56259 88.1504 10.75V17.2H47.3004C44.6921 17.2029 42.3388 15.6347 41.3375 13.2263C40.3361 10.8179 40.8838 8.04351 42.7252 6.19631ZM109.65 12.9V59.3099L102.57 52.23C101.731 51.3906 100.37 51.3906 99.5303 52.23L92.4504 59.3099V12.9H109.65ZM10.7504 68.8C8.37557 68.8 6.45039 66.8748 6.45039 64.5V34.4C6.45039 32.0252 8.37557 30.1 10.7504 30.1H15.0504V32.25V68.8H10.7504ZM19.3504 34.4H58.0504V64.5H19.3504V34.4ZM62.3504 66.65V30.1H66.6504C69.0252 30.1 70.9504 32.0252 70.9504 34.4V64.5C70.9504 66.8748 69.0252 68.8 66.6504 68.8H62.3504V66.65ZM43.0004 68.8V90.3H34.4004V68.8H43.0004ZM47.3004 116.1C47.3004 120.85 43.45 124.7 38.7004 124.7C33.9507 124.7 30.1004 120.85 30.1004 116.1V96.75C30.1004 95.5626 31.063 94.6 32.2504 94.6H45.1504C46.3378 94.6 47.3004 95.5626 47.3004 96.75V116.1ZM51.6004 101.05V96.75C51.5891 94.0264 49.8682 91.6035 47.3004 90.6956V68.8H58.0504C58.0504 71.1748 59.9756 73.1 62.3504 73.1H66.6504C71.4 73.1 75.2504 69.2497 75.2504 64.5V34.4C75.2504 29.6504 71.4 25.8 66.6504 25.8H62.3504C59.9756 25.8 58.0504 27.7252 58.0504 30.1H40.8504V19.2941C42.7002 20.717 44.9666 21.4921 47.3004 21.5H88.1504V64.5C88.1506 65.3695 88.6744 66.1532 89.4777 66.4859C90.281 66.8186 91.2056 66.6348 91.8204 66.0201L101.05 56.7901L110.28 66.0201C110.895 66.6348 111.82 66.8186 112.623 66.4859C113.426 66.1532 113.95 65.3695 113.95 64.5V21.5H122.55V101.05H51.6004Z" fill="#0054A6"/>
<path d="M49.4508 12.8996H51.6008C52.7882 12.8996 53.7508 11.937 53.7508 10.7496C53.7508 9.5622 52.7882 8.59961 51.6008 8.59961H49.4508C48.2634 8.59961 47.3008 9.5622 47.3008 10.7496C47.3008 11.937 48.2634 12.8996 49.4508 12.8996Z" fill="#0054A6"/>
<path d="M60.2008 12.8996H81.7008C82.8882 12.8996 83.8508 11.937 83.8508 10.7496C83.8508 9.5622 82.8882 8.59961 81.7008 8.59961H60.2008C59.0134 8.59961 58.0508 9.5622 58.0508 10.7496C58.0508 11.937 59.0134 12.8996 60.2008 12.8996Z" fill="#0054A6"/>
<path d="M27.9504 38.7012H25.8004C24.613 38.7012 23.6504 39.6638 23.6504 40.8512C23.6504 42.0386 24.613 43.0012 25.8004 43.0012H27.9504C29.1378 43.0012 30.1004 42.0386 30.1004 40.8512C30.1004 39.6638 29.1378 38.7012 27.9504 38.7012Z" fill="#0054A6"/>
<path d="M36.5504 43.0012H51.6004C52.7878 43.0012 53.7504 42.0386 53.7504 40.8512C53.7504 39.6638 52.7878 38.7012 51.6004 38.7012H36.5504C35.363 38.7012 34.4004 39.6638 34.4004 40.8512C34.4004 42.0386 35.363 43.0012 36.5504 43.0012Z" fill="#0054A6"/>
<path d="M96.7502 75.25H75.2502C72.8754 75.25 70.9502 77.1752 70.9502 79.55V83.85C70.9502 86.2248 72.8754 88.15 75.2502 88.15H96.7502C99.125 88.15 101.05 86.2248 101.05 83.85V79.55C101.05 77.1752 99.125 75.25 96.7502 75.25ZM75.2502 83.85V79.55H96.7502V83.85H75.2502Z" fill="#0054A6"/>
<path d="M94.6 92.4492H77.4C76.2126 92.4492 75.25 93.4118 75.25 94.5992C75.25 95.7866 76.2126 96.7492 77.4 96.7492H94.6C95.7874 96.7492 96.75 95.7866 96.75 94.5992C96.75 93.4118 95.7874 92.4492 94.6 92.4492Z" fill="#0054A6"/>
</g>
<defs>
<clipPath id="clip0">
<rect width="129" height="129" fill="white"/>
</clipPath>
</defs>
</svg>
