<svg width="169" height="169" viewBox="0 0 169 169" fill="none" xmlns="http://www.w3.org/2000/svg">
<path d="M127.93 37.8093C115.98 25.8585 99.7709 19.1446 82.8699 19.1445C65.9689 19.1445 49.7601 25.8584 37.8093 37.8091C25.8585 49.7599 19.1446 65.9686 19.1445 82.8696C19.1445 99.7706 25.8584 115.979 37.8091 127.93C49.4362 139.559 65.1086 146.242 81.5492 146.582C97.9897 146.923 113.925 140.894 126.024 129.757L145.349 149.082C145.844 149.577 146.516 149.856 147.217 149.856C147.917 149.856 148.589 149.577 149.084 149.082C149.579 148.587 149.857 147.915 149.857 147.215C149.857 146.515 149.579 145.843 149.084 145.348L129.757 126.024C140.893 113.926 146.922 97.9904 146.581 81.5502C146.241 65.1101 139.558 49.438 127.93 37.8109V37.8093ZM24.4258 82.8699C24.4248 73.2819 26.7827 63.8409 31.2916 55.3792C35.8006 46.9176 42.3221 39.6952 50.2812 34.3489C58.2403 29.0026 67.3925 25.6966 76.9309 24.7223C86.4693 23.748 96.1009 25.1353 104.977 28.762C113.852 32.3888 121.699 38.1434 127.826 45.5187C133.952 52.894 138.17 61.6633 140.108 71.0535C142.046 80.4437 141.643 90.1664 138.936 99.3643C136.229 108.562 131.301 116.953 124.585 123.797C124.269 124 124 124.269 123.796 124.585C123.109 125.26 122.409 125.916 121.695 126.552V125.062C121.703 123.992 121.588 122.925 121.351 121.882C121.307 121.697 121.26 121.513 121.211 121.329C120.552 118.99 119.321 116.851 117.629 115.107C115.936 113.362 113.835 112.067 111.517 111.339L95.6996 106.211V99.6752C98.5559 97.9057 101.015 95.564 102.922 92.7974C104.828 90.0309 106.142 86.8994 106.779 83.6004L107.625 80.6887C109.516 79.9768 111.081 78.597 112.023 76.8099C112.966 75.0228 113.222 72.9523 112.741 70.9897C112.498 69.9669 112.018 69.0156 111.339 68.2124C110.661 67.4092 109.803 66.7765 108.835 66.3653V56.1055C108.86 52.6807 108.206 49.285 106.913 46.1138C105.619 42.9427 103.711 40.0589 101.297 37.6285C98.8844 35.1982 96.0142 33.2693 92.8524 31.953C89.6906 30.6367 86.2996 29.9591 82.8747 29.9591C79.4498 29.9591 76.0588 30.6367 72.897 31.953C69.7352 33.2693 66.865 35.1982 64.452 37.6285C62.0389 40.0589 60.1305 42.9427 58.8368 46.1138C57.5431 49.285 56.8896 52.6807 56.9141 56.1055V66.361C55.944 66.7715 55.0841 67.4044 54.4039 68.2086C53.7237 69.0128 53.2422 69.9657 52.9983 70.9904C52.5183 72.9529 52.7737 75.0234 53.7164 76.8104C54.6591 78.5974 56.2237 79.9772 58.1146 80.6891L58.9609 83.6007C59.5979 86.8998 60.9112 90.0312 62.8181 92.7978C64.7249 95.5643 67.1839 97.9061 70.0403 99.6755V106.211L54.2229 111.339C51.9044 112.068 49.8039 113.363 48.1114 115.107C46.419 116.851 45.1879 118.989 44.5295 121.329C44.4789 121.512 44.4319 121.697 44.3886 121.882C44.1517 122.926 44.0364 123.993 44.045 125.062V126.552C43.1929 125.793 42.3593 125.008 41.544 124.196C36.0999 118.782 31.7838 112.341 28.8454 105.248C25.9071 98.1541 24.4049 90.548 24.4258 82.8699ZM91.0785 106.477C88.4973 107.637 85.6996 108.237 82.8698 108.237C80.0399 108.237 77.2422 107.637 74.661 106.477V101.91C79.968 103.814 85.7715 103.814 91.0785 101.91V106.477ZM57.4861 72.0892C57.5618 71.7587 57.7168 71.4515 57.9377 71.1942C58.1586 70.9369 58.4387 70.7371 58.7539 70.6121C59.5666 70.946 60.4477 71.0795 61.3229 71.0013C62.198 70.9232 63.0415 70.6358 63.7823 70.1633C64.5231 69.6909 65.1394 69.0472 65.5792 68.2865C66.019 67.5259 66.2694 66.6707 66.3094 65.793L66.5982 59.4522C67.9373 59.4522 69.7874 59.4109 71.9739 59.2631C86.0256 71.1459 105.766 70.5309 106.615 70.4979C106.622 70.4979 106.629 70.4979 106.636 70.4959C107.029 70.5817 107.389 70.7769 107.675 71.059C107.961 71.3411 108.162 71.6985 108.253 72.0899C108.372 72.5731 108.39 73.0755 108.306 73.5659C108.223 74.0563 108.039 74.5244 107.768 74.9413C107.496 75.3582 107.142 75.7149 106.727 75.9895C106.313 76.2642 105.846 76.4508 105.356 76.538C104.894 76.6188 104.468 76.8381 104.134 77.1669C103.8 77.4956 103.573 77.9182 103.485 78.3785L102.311 82.4167C102.29 82.4885 102.273 82.5613 102.259 82.6349C101.409 87.1557 99.0064 91.2374 95.466 94.1743C91.9255 97.1112 87.4701 98.7186 82.8701 98.7186C78.2701 98.7186 73.8147 97.1112 70.2742 94.1743C66.7338 91.2374 64.3309 87.1557 63.481 82.6349C63.4673 82.5613 63.4498 82.4885 63.4288 82.4167L62.2551 78.3785C62.1667 77.9182 61.9404 77.4956 61.6063 77.1669C61.2721 76.8381 60.8459 76.6188 60.3842 76.538C59.5422 76.3911 58.7793 75.9514 58.2301 75.2966C57.6808 74.6418 57.3806 73.814 57.3824 72.9593C57.382 72.6662 57.4168 72.3741 57.4861 72.0892ZM84.6934 57.3486C86.6666 59.3598 91.432 63.4177 99.2793 65.4457C93.7029 64.7526 85.7602 62.985 78.7547 58.5207C80.8339 58.2038 82.8135 57.8131 84.6934 57.3486ZM104.215 61.7136C97.2064 60.7669 92.5031 57.9249 89.8651 55.8078C93.4639 54.5808 96.8487 52.7989 99.8972 50.5265C100.383 50.1536 100.702 49.6028 100.782 48.9952C100.862 48.3876 100.698 47.7731 100.325 47.2868C99.9517 46.8005 99.4009 46.4823 98.7933 46.4021C98.1857 46.322 97.5712 46.4864 97.0849 46.8594C85.5071 55.7385 64.7174 54.8017 64.5101 54.7921C64.206 54.7766 63.9018 54.8212 63.615 54.9236C63.3282 55.026 63.0645 55.1841 62.839 55.3888C62.6135 55.5934 62.4307 55.8406 62.3011 56.1162C62.1715 56.3918 62.0976 56.6902 62.0837 56.9944L61.6916 65.5821C61.6868 65.7496 61.6317 65.9117 61.5335 66.0475V56.1055C61.5113 53.289 62.047 50.4961 63.1094 47.8876C64.1719 45.2791 65.7403 42.9067 67.724 40.9073C69.7078 38.9079 72.0677 37.3209 74.6678 36.238C77.2678 35.155 80.0565 34.5975 82.8731 34.5975C85.6896 34.5975 88.4783 35.155 91.0784 36.238C93.6784 37.3209 96.0383 38.9079 98.0221 40.9073C100.006 42.9067 101.574 45.2791 102.637 47.8876C103.699 50.4961 104.235 53.289 104.213 56.1055L104.215 61.7136ZM48.6657 130.271V125.062C48.6577 124.346 48.7325 123.632 48.8885 122.933C48.9178 122.806 48.9499 122.679 48.9849 122.553C49.4417 120.952 50.2901 119.491 51.4534 118.3C52.6167 117.11 54.0583 116.228 55.6479 115.735L72.128 110.392C75.4768 112.013 79.1491 112.856 82.8698 112.856C86.5904 112.856 90.2627 112.013 93.6115 110.392L110.091 115.735C111.681 116.228 113.123 117.11 114.286 118.3C115.449 119.491 116.298 120.952 116.755 122.553C116.789 122.679 116.821 122.805 116.851 122.932C117.007 123.631 117.082 124.346 117.074 125.062V130.271C107.114 137.45 95.1475 141.314 82.8698 141.314C70.592 141.314 58.6255 137.45 48.6657 130.271Z" fill="white"/>
</svg>
