<svg width="148" height="148" viewBox="0 0 148 148" fill="none" xmlns="http://www.w3.org/2000/svg">
<g clip-path="url(#clip0)">
<path d="M1.3295 54.5855L40.683 73.0574C41.0788 73.2432 41.5214 73.3045 41.953 73.2345L56.3179 70.8884C64.5273 69.5482 72.9175 72.28 78.7628 78.1972L90.7847 90.3671C91.5214 91.1128 91.8906 92.0996 91.8242 93.1457C91.7578 94.1918 91.2672 95.1241 90.4421 95.771C89.1889 96.7532 87.4064 96.7966 86.1075 95.8761L74.386 87.5717C72.7225 86.393 70.5066 86.5271 68.9971 87.8967L60.4313 95.6696C59.5452 96.4739 59.4785 97.8441 60.2828 98.7302C61.0868 99.6162 62.4568 99.6829 63.3434 98.8787L71.8806 91.1076L83.6021 99.412C84.9724 100.383 86.5873 100.865 88.2005 100.865C89.9449 100.865 91.687 100.301 93.1156 99.1811C94.9001 97.7823 96.0054 95.6823 96.149 93.4196C96.2926 91.157 95.4609 88.9345 93.8676 87.3215L84.3362 77.6732C89.3766 76.4225 94.7123 76.6277 99.6638 78.3099L104.743 80.0361C105.297 80.2242 105.873 80.3172 106.447 80.3172C107.349 80.3172 108.246 80.0881 109.047 79.638C109.057 79.6322 109.067 79.6264 109.077 79.6206L146.527 57.7805C147.561 57.1775 147.91 55.8509 147.308 54.8172C146.705 53.7833 145.378 53.4346 144.344 54.0369L106.913 75.8658C106.676 75.9955 106.393 76.0195 106.137 75.9329L101.058 74.207C94.5075 71.9813 87.3757 71.9819 80.8365 74.1818C74.0696 67.9442 64.7497 65.1214 55.6194 66.6118L41.9169 68.8499L3.17094 50.6629C2.08757 50.1544 0.797351 50.6204 0.288889 51.7035C-0.219573 52.7869 0.246132 54.0771 1.3295 54.5855Z" fill="white"/>
<path d="M147.695 95.1955C147.17 94.1202 145.872 93.6747 144.797 94.1996L125.733 103.512C125.407 103.671 125.127 103.909 124.917 104.205L123.383 106.367C121.539 108.968 119.151 111.124 116.398 112.695C116.184 112.348 115.94 112.013 115.664 111.696L111.877 107.338C109.119 104.165 104.294 103.826 101.119 106.585L100.808 106.856C99.1945 108.257 98.3157 110.194 98.2019 112.175C98.1686 112.173 98.1354 112.168 98.1022 112.166C96.0709 112.024 94.1047 112.681 92.5672 114.017L92.2549 114.288C90.6408 115.691 89.7617 117.628 89.6487 119.611C87.6695 119.446 85.6284 120.046 84.0146 121.449L83.702 121.72C82.0879 123.123 81.2091 125.061 81.0959 127.043C79.1163 126.879 77.075 127.479 75.4609 128.882L75.1492 129.153C73.6117 130.489 72.6866 132.343 72.5439 134.375C72.4015 136.407 73.059 138.373 74.3949 139.91L76.2247 142.016L75.4944 142.662C75.4811 142.674 75.4676 142.686 75.4546 142.698C74.0436 144.011 71.7064 143.977 70.3303 142.632C69.1508 141.335 69.1138 139.36 70.2497 138.022C70.9919 137.147 70.924 135.845 70.0946 135.053C69.2652 134.261 67.962 134.252 67.1218 135.033L66.8893 135.25C65.478 136.562 63.1405 136.529 61.7648 135.184C60.5687 133.869 60.5433 131.879 61.711 130.538C62.468 129.668 62.4119 128.359 61.5836 127.557C60.7557 126.756 59.4446 126.743 58.6008 127.528L58.536 127.589C57.1248 128.901 54.7873 128.868 53.4116 127.523C52.2294 126.223 52.1941 124.245 53.3353 122.906C54.0047 122.121 54.0269 120.972 53.3887 120.161C52.7503 119.35 51.6285 119.102 50.7078 119.568C49.2812 120.29 47.5492 119.953 46.4956 118.749C45.2695 117.348 45.425 115.134 46.8391 113.802L49.1691 111.738L56.4375 105.143C57.3235 104.338 57.3903 102.968 56.586 102.082C55.7817 101.196 54.4114 101.129 53.5254 101.933L46.2766 108.511L43.9441 110.577C43.9311 110.589 43.9178 110.601 43.9051 110.613C42.7102 111.724 41.9293 113.131 41.5728 114.621L41.5566 114.612C37.584 112.36 34.1189 109.414 31.2574 105.856L30.022 104.319C29.8227 104.071 29.5713 103.87 29.2856 103.73L3.20238 90.9706C2.12739 90.4454 0.829658 90.89 0.303862 91.9647C-0.221933 93.0397 0.22326 94.3374 1.29796 94.8632L26.9476 107.411L27.8804 108.571C31.0866 112.558 34.9688 115.859 39.4199 118.382L42.1194 119.912C42.4091 120.512 42.7792 121.082 43.2348 121.602C44.5522 123.108 46.3437 124.007 48.2253 124.226C47.9569 126.447 48.6416 128.757 50.2655 130.503C50.2834 130.522 50.3016 130.541 50.3198 130.559C51.9948 132.234 54.2774 133.01 56.5146 132.873C56.5256 134.774 57.2291 136.67 58.6184 138.163C58.6363 138.182 58.6545 138.201 58.6727 138.22C60.4035 139.951 62.7834 140.721 65.0912 140.517C65.1469 142.356 65.8472 144.175 67.1834 145.612C67.2013 145.631 67.2195 145.65 67.2377 145.668C68.7876 147.218 70.8585 147.998 72.9307 147.998C74.8941 147.998 76.8592 147.298 78.384 145.89L79.1571 145.206C80.3603 146.179 81.8279 146.762 83.4036 146.872C83.5859 146.885 83.7673 146.891 83.9485 146.891C85.7844 146.891 87.5392 146.237 88.9383 145.021L89.2509 144.75C90.8653 143.347 91.7441 141.409 91.8571 139.426C92.0691 139.443 92.2817 139.455 92.4949 139.455C94.2691 139.455 96.051 138.841 97.492 137.588L97.8038 137.317C99.4181 135.915 100.297 133.977 100.41 131.994C100.622 132.011 100.835 132.023 101.048 132.023C102.822 132.023 104.604 131.409 106.045 130.156L106.357 129.885C107.894 128.549 108.819 126.695 108.962 124.663C108.964 124.629 108.965 124.595 108.967 124.561C109.177 124.579 109.389 124.59 109.601 124.59C111.375 124.59 113.157 123.976 114.597 122.724L114.91 122.453C116.556 121.022 117.437 119.035 117.521 117.011C121.255 115.096 124.482 112.308 126.918 108.874L128.132 107.162L146.699 98.0925C147.774 97.5682 148.22 96.2707 147.695 95.1955ZM86.4096 141.479L86.097 141.751C85.4334 142.328 84.5869 142.612 83.7075 142.55C82.8304 142.488 82.0296 142.089 81.453 141.425L77.6664 137.068C77.0894 136.404 76.8057 135.555 76.8673 134.678C76.9288 133.801 77.3283 133 77.9922 132.424L78.3039 132.153C78.9262 131.612 79.6953 131.347 80.4612 131.347C81.3819 131.347 82.298 131.73 82.948 132.478L86.7346 136.836C87.9251 138.206 87.7793 140.289 86.4096 141.479ZM94.9616 134.047L94.6499 134.318C93.2799 135.509 91.1964 135.363 90.0055 133.993L86.2189 129.635C85.0284 128.265 85.1743 126.182 86.5439 124.991L86.8565 124.72C88.2268 123.529 90.31 123.675 91.5009 125.045L95.2875 129.403C96.478 130.773 96.3321 132.857 94.9616 134.047ZM104.639 124.36C104.578 125.237 104.178 126.038 103.514 126.615L103.203 126.886C101.832 128.077 99.7492 127.931 98.5584 126.561L94.7718 122.203C93.5809 120.833 93.7271 118.749 95.0971 117.559L95.4094 117.287C96.0137 116.762 96.771 116.48 97.564 116.48C97.642 116.48 97.7206 116.483 97.7991 116.488C98.6762 116.55 99.4771 116.949 100.054 117.613L103.84 121.97C104.417 122.634 104.701 123.483 104.639 124.36ZM112.068 119.182L111.756 119.454C110.386 120.644 108.302 120.498 107.111 119.128L103.325 114.771C102.748 114.107 102.464 113.258 102.526 112.381C102.587 111.504 102.986 110.703 103.65 110.126L103.962 109.855C105.332 108.665 107.416 108.811 108.607 110.181L112.393 114.538C113.584 115.908 113.438 117.992 112.068 119.182Z" fill="white"/>
<path d="M66.1633 60.6327L72.1606 62.832C72.7112 63.034 73.2899 63.1351 73.8689 63.1351C74.4475 63.1351 75.0262 63.034 75.5771 62.832L81.5741 60.6327C87.0019 58.6421 91.8502 55.2649 95.5946 50.8658C99.2972 46.5159 101.846 41.2614 102.965 35.6703C103.2 34.4968 102.439 33.3554 101.265 33.1205C100.091 32.8851 98.9502 33.6466 98.7156 34.8198C96.7288 44.7458 89.589 53.0777 80.0822 56.5638L74.085 58.7632C73.9454 58.8143 73.792 58.8143 73.6525 58.7632L67.6552 56.5638C56.1683 52.3514 48.4507 41.3007 48.4507 29.0658V10.2337C48.4507 9.72203 48.8153 9.27972 49.3174 9.18207L74.0023 4.37451L98.4221 9.17745C98.923 9.27597 99.2868 9.71827 99.2868 10.2288V26.0099C99.2868 27.2065 100.257 28.1766 101.453 28.1766C102.65 28.1766 103.62 27.2065 103.62 26.0099V10.2285C103.62 7.65264 101.786 5.42234 99.2584 4.92544L74.4224 0.0407359C74.1476 -0.0132882 73.8651 -0.0135771 73.5901 0.0398692L48.4888 4.92833C45.9555 5.42177 44.1172 7.65293 44.1172 10.2337V29.0664C44.1172 43.1112 52.9768 55.7971 66.1633 60.6327Z" fill="white"/>
<path d="M74.4143 8.87287C74.1396 8.81856 73.857 8.81856 73.582 8.87201L54.5366 12.5809C53.5188 12.7791 52.7842 13.6706 52.7842 14.7078V29.0669C52.7842 39.4915 59.3601 48.907 69.1474 52.4963L73.1227 53.9541C73.3633 54.0425 73.6161 54.0864 73.8686 54.0864C74.1214 54.0864 74.3739 54.0422 74.6145 53.9541L78.5901 52.4963C88.3774 48.9073 94.9533 39.4915 94.9533 29.0669V14.6945C94.9533 13.6591 94.2207 12.7684 93.2046 12.5685L74.4143 8.87287ZM90.6198 29.0669C90.6198 37.6813 85.1859 45.4619 77.0982 48.4278L73.8689 49.6122L70.6396 48.428C62.5516 45.4619 57.1177 37.6816 57.1177 29.0672V16.4935L73.9943 13.2069L90.6198 16.4767V29.0669Z" fill="white"/>
<path d="M68.3073 33.0832C67.4354 32.2633 66.0646 32.3058 65.2444 33.1774C64.4248 34.0493 64.467 35.4204 65.3386 36.2403L68.836 39.5291C69.239 39.9082 69.7703 40.1173 70.3201 40.1173C70.366 40.1173 70.4122 40.1159 70.4584 40.113C71.0568 40.0749 71.6123 39.7903 71.9934 39.3275L83.3214 25.5632C84.0818 24.6393 83.9492 23.2737 83.0253 22.5133C82.1014 21.7529 80.7357 21.8855 79.9753 22.8094L70.1181 34.7863L68.3073 33.0832Z" fill="white"/>
</g>
<defs>
<clipPath id="clip0">
<rect width="148" height="148" fill="white"/>
</clipPath>
</defs>
</svg>
